<svg width="600" height="400" 	xmlns:svg="http://www.w3.org/2000/svg" xmlns="http://www.w3.org/2000/svg">
 <g stroke="red" stroke-width="1">
  <line x1="50" y1="50" x2="50" y2="90"/>
  <line x1="50" y1="50" x2="68.58892688175074" y2="85.4182410261284"/>
  <line x1="50" y1="50" x2="82.91935463574626" y2="72.72258986924624"/>
  <line x1="50" y1="50" x2="89.70835496392216" y2="54.82146721021292"/>
  <line x1="50" y1="50" x2="87.40064970741659" y2="35.81580451829858"/>
  <line x1="50" y1="50" x2="76.5249063296318" y2="20.059570073155957"/>
  <line x1="50" y1="50" x2="59.57262657150231" y2="11.16232730295792"/>
  <line x1="50" y1="50" x2="40.4273734284977" y2="11.162327302957912"/>
  <line x1="50" y1="50" x2="23.475093670368203" y2="20.059570073155946"/>
  <line x1="50" y1="50" x2="12.59935029258341" y2="35.81580451829856"/>
  <line x1="50" y1="50" x2="10.291645036077838" y2="54.82146721021293"/>
  <line x1="50" y1="50" x2="17.08064536425372" y2="72.72258986924619"/>
  <line x1="50" y1="50" x2="31.411073118249263" y2="85.4182410261284"/>
 </g>
 <g stroke="blue" stroke-width="1">
  <line x1="150" y1="50" x2="150" y2="10"/>
  <line x1="150" y1="50" x2="131.41107311824925" y2="14.581758973871601"/>
  <line x1="150" y1="50" x2="117.08064536425374" y2="27.277410130753765"/>
  <line x1="150" y1="50" x2="110.29164503607784" y2="45.17853278978708"/>
  <line x1="150" y1="50" x2="112.59935029258341" y2="64.18419548170142"/>
  <line x1="150" y1="50" x2="123.4750936703682" y2="79.94042992684405"/>
  <line x1="150" y1="50" x2="140.4273734284977" y2="88.83767269704208"/>
  <line x1="150" y1="50" x2="159.5726265715023" y2="88.83767269704208"/>
  <line x1="150" y1="50" x2="176.5249063296318" y2="79.94042992684405"/>
  <line x1="150" y1="50" x2="187.4006497074166" y2="64.18419548170144"/>
  <line x1="150" y1="50" x2="189.70835496392215" y2="45.17853278978707"/>
  <line x1="150" y1="50" x2="182.9193546357463" y2="27.277410130753807"/>
  <line x1="150" y1="50" x2="168.58892688175075" y2="14.581758973871601"/>
 </g>
<polyline points="250,110 231.41107311824925,74.5817589738716 231.41107311824925,114.5817589738716 198.491718482503,91.85916910462537 217.08064536425374,127.27741013075376 177.37229040033156,122.45594292054085 210.29164503607785,145.17853278978708 172.89099532866126,159.3627282714885 212.5993502925834,164.1841954817014 186.0744439629516,194.12462540854546 223.47509367036818,179.94042992684405 213.90246709886588,218.77810262388613 240.4273734284977,188.83767269704208 250,227.67534539408416 259.57262657150227,188.83767269704208 286.09753290113406,218.77810262388613 276.5249063296318,179.94042992684405 313.9255560370484,194.12462540854548 287.4006497074166,164.18419548170144 327.10900467133877,159.36272827148852 289.70835496392215,145.17853278978708 322.62770959966844,122.45594292054089 282.9193546357463,127.27741013075381 301.50828151749704,91.85916910462541 268.58892688175075,114.5817589738716 268.58892688175075,74.5817589738716" style="fill:#f008;stroke:#f00;stroke-width:2" /></svg>
