<?xml version="1.0" encoding="UTF-8" standalone="no"?>
<!-- Created with Inkscape (http://www.inkscape.org/) -->

<svg
   xmlns:dc="http://purl.org/dc/elements/1.1/"
   xmlns:cc="http://creativecommons.org/ns#"
   xmlns:rdf="http://www.w3.org/1999/02/22-rdf-syntax-ns#"
   xmlns:svg="http://www.w3.org/2000/svg"
   xmlns="http://www.w3.org/2000/svg"
   xmlns:sodipodi="http://sodipodi.sourceforge.net/DTD/sodipodi-0.dtd"
   xmlns:inkscape="http://www.inkscape.org/namespaces/inkscape"
   width="332mm"
   height="275mm"
   viewBox="0 0 1176.3778 974.40952"
   id="svg2"
   version="1.1"
   inkscape:version="0.91 r13725"
   sodipodi:docname="stars15.svg">
  <defs
     id="defs4" />
  <sodipodi:namedview
     id="base"
     pagecolor="#ffffff"
     bordercolor="#666666"
     borderopacity="1.0"
     inkscape:pageopacity="0.0"
     inkscape:pageshadow="2"
     inkscape:zoom="0.72266325"
     inkscape:cx="587.8123"
     inkscape:cy="437.07207"
     inkscape:document-units="px"
     inkscape:current-layer="layer1"
     showgrid="false"
     inkscape:window-width="1863"
     inkscape:window-height="1056"
     inkscape:window-x="57"
     inkscape:window-y="24"
     inkscape:window-maximized="1"
     inkscape:object-nodes="true" />
  <metadata
     id="metadata7">
    <rdf:RDF>
      <cc:Work
         rdf:about="">
        <dc:format>image/svg+xml</dc:format>
        <dc:type
           rdf:resource="http://purl.org/dc/dcmitype/StillImage" />
        <dc:title />
      </cc:Work>
    </rdf:RDF>
  </metadata>
  <g
     inkscape:label="Layer 1"
     inkscape:groupmode="layer"
     id="layer1"
     transform="translate(0,-77.95276)">
    <path
       style="display:block;fill:#00ff00;fill-opacity:0.19607843;fill-rule:evenodd;stroke:#000000;stroke-width:3.00000024;stroke-linecap:round;stroke-linejoin:round;stroke-miterlimit:4;stroke-dasharray:none;stroke-opacity:1"
       d="m 662.76425,962.46458 43.3013,-24.99995 43.3012,24.99995 29.3893,-40.45075 49.7261,5.2264 10.3956,-48.9074 47.5528,-15.4508 -10.3956,-48.9074 37.1573,-33.4565 -29.3893,-40.4509 20.3368,-45.6773 -43.3012,-25 0,-50 -49.7261,-5.2264 -20.3368,-45.6773 -47.5529,15.4509 -37.1572,-33.4565 -37.1573,33.4565 -47.5528,-15.4509 -20.3368,45.6773 -49.7261,5.2264 0,50 -43.3013,25 20.3369,45.6773 -29.3893,40.4509 37.1572,33.4565 -10.3956,48.9074 47.5529,15.4508 10.3956,48.9074 49.726,-5.2264 29.3893,40.45075"
       id="path5080-9"
       inkscape:connector-curvature="0" />
    <path
       style="display:block;fill:#ff8000;fill-opacity:0.19607843;fill-rule:evenodd;stroke:#000000;stroke-width:3.00000024;stroke-linecap:round;stroke-linejoin:round;stroke-miterlimit:4;stroke-dasharray:none;stroke-opacity:1"
       d="m 729.02995,927.24023 49.7261,-5.2264 49.7261,5.2264 43.3012,-25 47.5529,-15.4509 29.38933,-40.4508 37.1573,-33.4566 10.3955,-48.9073 20.33692,-45.6773 -10.3956,-48.9074 0,-50 -29.38932,-40.4508 -20.3368,-45.6773 -43.30143,-25 -37.1572,-33.45653 -49.7261,-5.22642 -47.5528,-15.45085 -47.5528,15.45085 -49.7261,5.22642 -37.1572,33.45653 -43.3013,25 -20.3368,45.6773 -29.3893,40.4508 0,50 -10.3956,48.9074 20.3368,45.6773 10.3956,48.9073 37.1573,33.4566 29.3892,40.4508 47.5529,15.4509 z"
       id="path5076-6"
       inkscape:connector-curvature="0" />
    <path
       style="display:block;fill:#00ff7b;fill-opacity:0.19607843;fill-rule:evenodd;stroke:#000000;stroke-width:3.00000024;stroke-linecap:round;stroke-linejoin:round;stroke-miterlimit:4;stroke-dasharray:none;stroke-opacity:1"
       d="m 218.78219,228.64172 37.1572,-33.4565 20.3369,45.6773 47.5528,-15.4509 0,50 49.7261,5.2265 -20.3369,45.6772 43.3013,25 -37.1572,33.4566 29.3892,40.4508 -47.5528,15.4509 10.3956,48.9073 -49.7261,-5.2264 -10.3956,48.90741 -43.3013,-25 -29.3892,40.4508 -29.3893,-40.4508 -43.3013,25 -10.3956,-48.90741 -49.725999,5.2264 10.3955,-48.9073 -47.5528,-15.4509 29.3893,-40.4508 -37.15729,-33.4566 43.30129,-25 -20.3368,-45.6772 49.726099,-5.2265 0,-50 47.5528,15.4509 20.3368,-45.6773 z"
       id="path5082-8"
       inkscape:connector-curvature="0" />
    <path
       style="display:block;fill:#ffff00;fill-opacity:0.19607843;fill-rule:evenodd;stroke:#000000;stroke-width:3.00000024;stroke-linecap:round;stroke-linejoin:round;stroke-miterlimit:4;stroke-dasharray:none;stroke-opacity:1"
       d="m 218.78219,740.06723 49.7261,5.2264 37.1573,33.4566 47.5528,-15.4509 47.5528,15.4509 37.1572,-33.4566 49.72606,-5.2264 20.3369,-45.6773 43.3012,-25 0,-50 29.3893,-40.4508 -20.3368,-45.6773 10.3955,-48.90738 -37.1572,-33.4565 -10.3956,-48.9074 -47.5528,-15.4508 -29.3893,-40.4509 -49.72606,5.2265 -43.3012,-25 -43.3013,25 -49.7261,-5.2265 -29.3892,40.4509 -47.5529,15.4508 -10.3955,48.9074 -37.1573,33.4565 10.3956,48.90738 -20.3368,45.6773 29.3892,40.4508 0,50 43.3013,25 z"
       id="path5078-3"
       inkscape:connector-curvature="0" />
    <path
       style="display:block;fill:#ff0000;fill-opacity:0.19607843;fill-rule:evenodd;stroke:#000000;stroke-width:3.00000024;stroke-linecap:round;stroke-linejoin:round;stroke-miterlimit:4;stroke-dasharray:none;stroke-opacity:1"
       d="m 323.82909,225.41157 49.7261,-5.22642 49.7261,5.22642 47.55276,15.45085 43.3013,25 37.1572,33.45653 29.3893,40.45085 20.3368,45.67727 10.3956,48.90738 0,50 -10.3956,48.90738 -20.3368,45.6773 -29.3893,40.4508 -37.1572,33.4565 -43.3013,25 -47.55276,15.4509 -49.7261,5.2264 -49.7261,-5.2264 -47.5528,-15.4509 -43.3013,-25 -37.1572,-33.4565 -29.3893,-40.4508 -20.3368,-45.6773 -10.3956,-48.90738 0,-50 10.3956,-48.90738 20.3368,-45.67727 29.3893,-40.45085 37.1572,-33.45653 43.3013,-25 47.5528,-15.45085"
       id="path5059-8"
       inkscape:connector-curvature="0" />
    <path
       style="display:block;fill:#ff4f7b;fill-opacity:0.19607843;fill-rule:evenodd;stroke:#000000;stroke-width:3.00000024;stroke-linecap:round;stroke-linejoin:round;stroke-miterlimit:4;stroke-dasharray:none;stroke-opacity:1"
       d="m 956.49348,583.26193 0,-50 20.3369,45.6772 20.3368,-45.6772 0,50 37.15732,-33.4566 -20.3369,45.6773 47.5529,-15.4508 -37.1573,33.4565 49.7261,5.2264 -47.5528,15.4509 43.3012,25 -49.726,-5.2265 29.3892,40.4509 -43.3013,-25 10.3956,48.9074 -29.38932,-40.4509 -10.3955,48.9074 -10.3956,-48.9074 -29.3894,40.4509 10.3957,-48.9074 -43.30146,25 29.38936,-40.4509 -49.72616,5.2264 43.30136,-25 -47.55296,-15.4508 49.72616,-5.2264 -37.15726,-33.4566 47.55286,15.4509 -20.33686,-45.6773 z"
       id="path5086-0"
       inkscape:connector-curvature="0" />
    <path
       style="display:block;fill:none;fill-opacity:0.19607843;fill-rule:evenodd;stroke:#000000;stroke-width:3.00000024;stroke-linecap:round;stroke-linejoin:round;stroke-miterlimit:4;stroke-dasharray:none;stroke-opacity:0.54716982"
       d="m 446.24569,296.08882 0,50 20.3369,-45.6772 20.3368,45.6772 0,-50 37.1573,33.4566 -20.3369,-45.67735 47.5529,15.45085 -37.1573,-33.45655 49.7261,-5.2264 -47.5528,-15.4509 43.3012,-25 -49.726,5.2265 29.3892,-40.45093 -43.3013,24.99998 10.3956,-48.90738 -29.3893,40.4509 -10.3955,-48.9074 -10.3956,48.9074 -29.3893,-40.4509 10.3956,48.90738 -43.3013,-24.99998 29.3893,40.45093 -49.7261,-5.2264 43.3013,25 -47.5529,15.4508 49.7261,5.2264 -37.1572,33.45655 47.5528,-15.45085 -20.3368,45.67735 z"
       id="path5086-0-2"
       inkscape:connector-curvature="0" />
    <text
       xml:space="preserve"
       style="font-style:normal;font-weight:normal;font-size:40.00000381px;line-height:125%;font-family:Sans;text-align:start;letter-spacing:0px;word-spacing:0px;text-anchor:start;fill:#000000;fill-opacity:1;stroke:none;stroke-width:1px;stroke-linecap:butt;stroke-linejoin:miter;stroke-opacity:1"
       x="614.86432"
       y="360.51392"
       id="text9172"
       sodipodi:linespacing="125%"><tspan
         sodipodi:role="line"
         id="tspan9174"
         x="614.86432"
         y="360.51392">1</tspan></text>
    <text
       xml:space="preserve"
       style="font-style:normal;font-weight:normal;font-size:40.00000381px;line-height:125%;font-family:Sans;text-align:start;letter-spacing:0px;word-spacing:0px;text-anchor:start;fill:#000000;fill-opacity:1;stroke:none;stroke-width:1px;stroke-linecap:butt;stroke-linejoin:miter;stroke-opacity:1"
       x="796.67743"
       y="434.80643"
       id="text9172-4"
       sodipodi:linespacing="125%"><tspan
         sodipodi:role="line"
         id="tspan9174-9"
         x="796.67743"
         y="434.80643">2</tspan></text>
    <text
       xml:space="preserve"
       style="font-style:normal;font-weight:normal;font-size:40.00000381px;line-height:125%;font-family:Sans;text-align:start;letter-spacing:0px;word-spacing:0px;text-anchor:start;fill:#000000;fill-opacity:1;stroke:none;stroke-width:1px;stroke-linecap:butt;stroke-linejoin:miter;stroke-opacity:1"
       x="103.82296"
       y="639.77631"
       id="text9172-4-0"
       sodipodi:linespacing="125%"><tspan
         sodipodi:role="line"
         id="tspan9174-9-2"
         x="103.82296"
         y="639.77631">3</tspan></text>
    <text
       xml:space="preserve"
       style="font-style:normal;font-weight:normal;font-size:40.00000381px;line-height:125%;font-family:Sans;text-align:start;letter-spacing:0px;word-spacing:0px;text-anchor:start;fill:#000000;fill-opacity:1;stroke:none;stroke-width:1px;stroke-linecap:butt;stroke-linejoin:miter;stroke-opacity:1"
       x="526.66595"
       y="929.39771"
       id="text9172-4-0-0"
       sodipodi:linespacing="125%"><tspan
         sodipodi:role="line"
         id="tspan9174-9-2-1"
         x="526.66595"
         y="929.39771">4</tspan></text>
    <text
       xml:space="preserve"
       style="font-style:normal;font-weight:normal;font-size:40.00000381px;line-height:125%;font-family:Sans;text-align:start;letter-spacing:0px;word-spacing:0px;text-anchor:start;fill:#000000;fill-opacity:1;stroke:none;stroke-width:1px;stroke-linecap:butt;stroke-linejoin:miter;stroke-opacity:1"
       x="29.161968"
       y="481.19159"
       id="text9172-4-0-0-9"
       sodipodi:linespacing="125%"><tspan
         sodipodi:role="line"
         id="tspan9174-9-2-1-6"
         x="29.161968"
         y="481.19159">5</tspan></text>
    <text
       xml:space="preserve"
       style="font-style:normal;font-weight:normal;font-size:40.00000381px;line-height:125%;font-family:Sans;text-align:start;letter-spacing:0px;word-spacing:0px;text-anchor:start;fill:#000000;fill-opacity:1;stroke:none;stroke-width:1px;stroke-linecap:butt;stroke-linejoin:miter;stroke-opacity:1"
       x="1051.976"
       y="909.93872"
       id="text9172-4-0-0-9-2"
       sodipodi:linespacing="125%"><tspan
         sodipodi:role="line"
         id="tspan9174-9-2-1-6-1"
         x="1051.976"
         y="909.93872">6</tspan></text>
    <text
       xml:space="preserve"
       style="font-style:normal;font-weight:normal;font-size:40.00000381px;line-height:125%;font-family:Sans;text-align:start;letter-spacing:0px;word-spacing:0px;text-anchor:start;fill:#000000;fill-opacity:1;stroke:none;stroke-width:1px;stroke-linecap:butt;stroke-linejoin:miter;stroke-opacity:1"
       x="1015.7686"
       y="532.2594"
       id="text9172-4-0-0-9-2-2"
       sodipodi:linespacing="125%"><tspan
         sodipodi:role="line"
         id="tspan9174-9-2-1-6-1-0"
         x="1015.7686"
         y="532.2594">7</tspan></text>
    <path
       style="display:block;fill:none;fill-opacity:0.19607843;fill-rule:evenodd;stroke:#000000;stroke-width:3.00000024;stroke-linecap:round;stroke-linejoin:round;stroke-miterlimit:4;stroke-dasharray:none;stroke-opacity:0.54716982"
       d="m 235.60259,727.84647 0,-50 20.3369,45.6772 20.3368,-45.6772 0,50 37.1573,-33.4566 -20.3369,45.67735 47.55291,-15.45085 -37.15731,33.45656 49.72611,5.2264 -47.55281,15.4509 43.30121,25 -49.72601,-5.2265 29.38921,40.45094 -43.30131,-24.99999 10.3956,48.90739 -29.3893,-40.45091 -10.3955,48.90741 -10.3956,-48.90741 -29.3893,40.45091 10.3956,-48.90739 -43.3013,24.99999 29.3893,-40.45094 -49.7261,5.2264 43.3013,-25 -47.5529,-15.4508 49.7261,-5.2264 -37.1572,-33.45656 47.5528,15.45085 -20.3368,-45.67735 z"
       id="path5086-0-2-7"
       inkscape:connector-curvature="0" />
    <path
       style="display:block;fill:#004f7b;fill-opacity:0.19607843;fill-rule:evenodd;stroke:#000000;stroke-width:3.00000024;stroke-linecap:round;stroke-linejoin:round;stroke-miterlimit:4;stroke-dasharray:none;stroke-opacity:1"
       d="m 855.69817,957.46688 0,50.00002 37.15718,-33.45652 20.3369,45.67722 20.33683,-45.67732 37.1573,33.45662 0,-50.00002 47.55282,15.4508 -20.33682,-45.67736 49.72602,-5.2264 -37.1572,-33.45648 43.3013,-25 -47.5529,-15.45091 29.3893,-40.45089 -49.72612,5.2264 10.3956,-48.90751 -43.3013,25.00011 -10.3956,-48.90741 -29.38923,40.4509 -29.3893,-40.4509 -10.3956,48.90741 -43.30129,-25.00011 10.3956,48.90751 -49.7261,-5.2264 29.3893,40.45099 -47.5529,15.45081 43.3013,25 -37.1572,33.45648 49.7261,5.2265 -20.3369,45.67726 z"
       id="path5084-2-2-3"
       inkscape:connector-curvature="0" />
  </g>
</svg>
