<?xml version="1.0" encoding="UTF-8" standalone="no"?>
<!-- Created with Inkscape (http://www.inkscape.org/) -->

<svg
   xmlns:dc="http://purl.org/dc/elements/1.1/"
   xmlns:cc="http://creativecommons.org/ns#"
   xmlns:rdf="http://www.w3.org/1999/02/22-rdf-syntax-ns#"
   xmlns:svg="http://www.w3.org/2000/svg"
   xmlns="http://www.w3.org/2000/svg"
   xmlns:sodipodi="http://sodipodi.sourceforge.net/DTD/sodipodi-0.dtd"
   xmlns:inkscape="http://www.inkscape.org/namespaces/inkscape"
   width="219mm"
   height="194mm"
   viewBox="0 0 775.98428 687.40141"
   id="svg2"
   version="1.1"
   inkscape:version="0.91 r13725"
   sodipodi:docname="stars11.svg">
  <defs
     id="defs4" />
  <sodipodi:namedview
     id="base"
     pagecolor="#ffffff"
     bordercolor="#666666"
     borderopacity="1.0"
     inkscape:pageopacity="0.0"
     inkscape:pageshadow="2"
     inkscape:zoom="1.0219843"
     inkscape:cx="390.73926"
     inkscape:cy="228.80488"
     inkscape:document-units="px"
     inkscape:current-layer="layer1"
     showgrid="false"
     inkscape:window-width="1863"
     inkscape:window-height="1056"
     inkscape:window-x="57"
     inkscape:window-y="24"
     inkscape:window-maximized="1"
     inkscape:object-nodes="true" />
  <metadata
     id="metadata7">
    <rdf:RDF>
      <cc:Work
         rdf:about="">
        <dc:format>image/svg+xml</dc:format>
        <dc:type
           rdf:resource="http://purl.org/dc/dcmitype/StillImage" />
        <dc:title />
      </cc:Work>
    </rdf:RDF>
  </metadata>
  <g
     inkscape:label="Layer 1"
     inkscape:groupmode="layer"
     id="layer1"
     transform="translate(0,-364.96085)">
    <path
       style="display:block;fill:#ff0000;fill-opacity:0.39215686;fill-rule:evenodd;stroke:#000000;stroke-width:3;stroke-linecap:round;stroke-linejoin:round;stroke-miterlimit:4;stroke-dasharray:none;stroke-opacity:1"
       d="m 149.4904,755.21531 37.78741,32.743 45.4816,20.7708 49.4911,7.1157 49.491,-7.1157 45.4816,-20.7708 37.7875,-32.743 27.032,-42.0627 14.0867,-47.9746 0,-50 -14.0867,-47.9747 -27.032,-42.0626 -37.7875,-32.7431 -45.4816,-20.7707 -49.4911,-7.11581 -49.491,7.11581 -45.4816,20.7707 -37.78741,32.743 -27.032,42.0627 -14.0866,47.9746 0,50 14.0866,47.9747 z"
       id="path4880-4-1-1"
       inkscape:connector-curvature="0" />
    <path
       style="display:block;fill:#ff9a00;fill-opacity:0.39215686;fill-rule:evenodd;stroke:#000000;stroke-width:3;stroke-linecap:round;stroke-linejoin:round;stroke-miterlimit:4;stroke-dasharray:none;stroke-opacity:1"
       d="m 537.0153,685.26611 45.4816,20.7708 49.49112,7.1157 27.032,42.0627 37.7875,32.743 0,50.0001 14.0867,47.9746 -27.0321,42.0627 -14.0866,47.9745 -45.4816,20.7708 -37.78742,32.74299 -49.4911,-7.1157 -49.4911,7.1157 -37.78749,-32.74299 -45.4816,-20.7708 -14.0866,-47.9746 -27.03201,-42.0627 14.08661,-47.9746 0,-50 37.7875,-32.743 27.0319,-42.0627 49.49109,-7.1157 45.4816,-20.7708"
       id="path5208-6-4-8-1-0"
       inkscape:connector-curvature="0" />
    <path
       style="display:block;fill:#00ffff;fill-opacity:0.39215686;fill-rule:evenodd;stroke:#000000;stroke-width:2.99999976;stroke-linecap:round;stroke-linejoin:round;stroke-miterlimit:4;stroke-dasharray:none;stroke-opacity:1"
       d="m 136.545,665.17791 -14.0866,47.9747 -14.0866,-47.9747 -37.7875,32.743 14.0866,-47.9746 -49.491,7.1157 37.7874,-32.743 -45.4816,-20.7708 49.4911,-7.1157 -27.032,-42.0627 45.4816,20.7708 0,-50 27.032,42.0627 27.032,-42.0627 0,50 45.4816,-20.7708 -27.032,42.0627 49.4911,7.1157 -45.4816,20.7708 37.7874,32.743 -49.491,-7.1157 14.0866,47.9746 -37.7875,-32.743"
       id="path5065-9-5"
       inkscape:connector-curvature="0" />
    <path
       style="display:block;fill:#00ff00;fill-opacity:0.39215686;fill-rule:evenodd;stroke:#000000;stroke-width:3;stroke-linecap:round;stroke-linejoin:round;stroke-miterlimit:4;stroke-dasharray:none;stroke-opacity:1"
       d="m 377.22311,787.95831 45.4816,20.7707 27.03213,-42.0627 27.032,42.0627 45.4816,-20.7708 0,50 49.4911,7.1158 -27.0321,42.0627 37.7875,32.743 -45.4816,20.7708 14.0866,47.9746 -49.491,-7.1157 -14.0867,47.97459 -37.7874,-32.74299 -37.78753,32.74299 -14.0866,-47.97459 -49.4911,7.1157 14.0866,-47.9746 -45.4816,-20.7708 37.7875,-32.743 -27.032,-42.0627 49.491,-7.1157 0,-50"
       id="path6241-6-48-3"
       inkscape:connector-curvature="0" />
    <g
       transform="translate(-1989.4638,-1218.6456)"
       style="display:block;fill:#ffff00;fill-opacity:0.39215686;stroke-width:3;stroke-miterlimit:4;stroke-dasharray:none"
       id="g5386-2-2-3">
      <path
         inkscape:connector-curvature="0"
         id="path5821-3-6-9-8-4"
         d="m 2244.6826,2085.0116 45.4816,20.7707 27.032,-42.0626 49.4911,-7.1157 0,-50.0001 37.7874,-32.743 -27.032,-42.0627 14.0866,-47.9747 -45.4816,-20.7708 -14.0866,-47.9746 -49.4911,7.1157 -37.7875,-32.743"
         style="display:block;fill:#ffff00;fill-opacity:0.39215686;fill-rule:evenodd;stroke:#000000;stroke-width:3;stroke-linecap:butt;stroke-linejoin:miter;stroke-miterlimit:4;stroke-dasharray:none;stroke-opacity:1" />
      <path
         inkscape:connector-curvature="0"
         id="path5821-0-9-0-3-9-0"
         d="m 2244.6824,2085.0116 -45.4816,20.7707 -27.032,-42.0626 -49.4911,-7.1157 0,-50.0001 -37.7874,-32.743 27.032,-42.0627 -14.0866,-47.9747 45.4816,-20.7708 14.0866,-47.9746 49.4911,7.1157 37.7875,-32.743"
         style="display:block;fill:#ffff00;fill-opacity:0.39215686;fill-rule:evenodd;stroke:#000000;stroke-width:3;stroke-linecap:butt;stroke-linejoin:miter;stroke-miterlimit:4;stroke-dasharray:none;stroke-opacity:1" />
    </g>
    <path
       style="display:block;fill:none;fill-opacity:0.39215686;fill-rule:evenodd;stroke:#000000;stroke-width:2.99999976;stroke-linecap:round;stroke-linejoin:round;stroke-miterlimit:4;stroke-dasharray:none;stroke-opacity:0.47798743"
       d="m 296.33701,430.76802 -14.08659,-47.9747 -14.0866,47.9747 -37.7875,-32.743 14.0866,47.97459 -49.49099,-7.1157 37.78739,32.743 -45.48159,20.7708 49.49109,7.1157 -27.032,42.0627 45.4816,-20.7708 0,49.99999 27.032,-42.06269 27.03199,42.06269 0,-49.99999 45.4816,20.7708 -27.032,-42.0627 49.49109,-7.1157 -45.48159,-20.7708 37.78739,-32.743 -49.49099,7.1157 14.0866,-47.97459 -37.7875,32.743"
       id="path5065-9-5-5"
       inkscape:connector-curvature="0" />
    <path
       style="display:block;fill:none;fill-opacity:0.39215686;fill-rule:evenodd;stroke:#000000;stroke-width:2.99999976;stroke-linecap:round;stroke-linejoin:round;stroke-miterlimit:4;stroke-dasharray:none;stroke-opacity:0.47798743"
       d="m 673.1066,853.18988 -14.08659,47.97469 -14.08659,-47.97469 -37.7875,32.74299 14.0866,-47.97458 -49.49099,7.1157 37.78739,-32.743 -45.48159,-20.7708 49.49109,-7.1157 -27.032,-42.0627 45.4816,20.7708 0,-49.99998 27.03199,42.06268 27.03199,-42.06268 0,49.99998 45.4816,-20.7708 -27.032,42.0627 49.49108,7.1157 -45.48158,20.7708 37.78738,32.743 -49.49098,-7.1157 14.0866,47.97458 -37.7875,-32.74299"
       id="path5065-9-5-5-1"
       inkscape:connector-curvature="0" />
    <text
       xml:space="preserve"
       style="font-style:normal;font-weight:normal;font-size:25px;line-height:125%;font-family:Sans;text-align:start;letter-spacing:0px;word-spacing:0px;text-anchor:start;fill:#000000;fill-opacity:1;stroke:none;stroke-width:1px;stroke-linecap:butt;stroke-linejoin:miter;stroke-opacity:1"
       x="438.36295"
       y="534.74182"
       id="text9897"
       sodipodi:linespacing="125%"><tspan
         sodipodi:role="line"
         id="tspan9899"
         x="438.36295"
         y="534.74182">1</tspan></text>
    <text
       xml:space="preserve"
       style="font-style:normal;font-weight:normal;font-size:25px;line-height:125%;font-family:Sans;text-align:start;letter-spacing:0px;word-spacing:0px;text-anchor:start;fill:#000000;fill-opacity:1;stroke:none;stroke-width:1px;stroke-linecap:butt;stroke-linejoin:miter;stroke-opacity:1"
       x="487.28738"
       y="695.21399"
       id="text9901"
       sodipodi:linespacing="125%"><tspan
         sodipodi:role="line"
         id="tspan9903"
         x="487.28738"
         y="695.21399">2</tspan></text>
    <text
       xml:space="preserve"
       style="font-style:normal;font-weight:normal;font-size:25px;line-height:125%;font-family:Sans;text-align:start;letter-spacing:0px;word-spacing:0px;text-anchor:start;fill:#000000;fill-opacity:1;stroke:none;stroke-width:1px;stroke-linecap:butt;stroke-linejoin:miter;stroke-opacity:1"
       x="66.537239"
       y="768.60065"
       id="text9905"
       sodipodi:linespacing="125%"><tspan
         sodipodi:role="line"
         id="tspan9907"
         x="66.537239"
         y="768.60065">3</tspan></text>
    <text
       xml:space="preserve"
       style="font-style:normal;font-weight:normal;font-size:25px;line-height:125%;font-family:Sans;text-align:start;letter-spacing:0px;word-spacing:0px;text-anchor:start;fill:#000000;fill-opacity:1;stroke:none;stroke-width:1px;stroke-linecap:butt;stroke-linejoin:miter;stroke-opacity:1"
       x="319.96582"
       y="964.29834"
       id="text9909"
       sodipodi:linespacing="125%"><tspan
         sodipodi:role="line"
         id="tspan9911"
         x="319.96582"
         y="964.29834">4</tspan></text>
    <text
       xml:space="preserve"
       style="font-style:normal;font-weight:normal;font-size:25px;line-height:125%;font-family:Sans;text-align:start;letter-spacing:0px;word-spacing:0px;text-anchor:start;fill:#000000;fill-opacity:1;stroke:none;stroke-width:1px;stroke-linecap:butt;stroke-linejoin:miter;stroke-opacity:1"
       x="62.623356"
       y="536.69885"
       id="text9913"
       sodipodi:linespacing="125%"><tspan
         sodipodi:role="line"
         id="tspan9915"
         x="62.623356"
         y="536.69885">5</tspan></text>
    <path
       style="display:block;fill:none;fill-opacity:0.39215686;fill-rule:evenodd;stroke:#000000;stroke-width:2.99999976;stroke-linecap:round;stroke-linejoin:round;stroke-miterlimit:4;stroke-dasharray:none;stroke-opacity:0.47798743"
       d="m 174.3325,927.99559 -14.08659,47.97471 -14.0866,-47.97471 -37.7875,32.743 14.0866,-47.97459 -49.49099,7.1157 37.78739,-32.743 -45.48159,-20.7708 49.49109,-7.1157 -27.032,-42.0627 45.4816,20.7708 0,-49.99999 27.032,42.06269 27.03199,-42.06269 0,49.99999 45.4816,-20.7708 -27.032,42.0627 49.49109,7.1157 -45.48159,20.7708 37.78739,32.743 -49.49099,-7.1157 14.0866,47.97459 -37.7875,-32.743"
       id="path5065-9-5-5-8"
       inkscape:connector-curvature="0" />
  </g>
</svg>
