<?xml version="1.0" encoding="UTF-8" standalone="no"?>
<!-- Created with Inkscape (http://www.inkscape.org/) -->

<svg
   xmlns:dc="http://purl.org/dc/elements/1.1/"
   xmlns:cc="http://creativecommons.org/ns#"
   xmlns:rdf="http://www.w3.org/1999/02/22-rdf-syntax-ns#"
   xmlns:svg="http://www.w3.org/2000/svg"
   xmlns="http://www.w3.org/2000/svg"
   xmlns:sodipodi="http://sodipodi.sourceforge.net/DTD/sodipodi-0.dtd"
   xmlns:inkscape="http://www.inkscape.org/namespaces/inkscape"
   width="210mm"
   height="297mm"
   viewBox="0 0 744.09448819 1052.3622047"
   id="svg9634"
   version="1.1"
   inkscape:version="0.91 r13725"
   sodipodi:docname="10s-161005.svg">
  <defs
     id="defs9636" />
  <sodipodi:namedview
     id="base"
     pagecolor="#ffffff"
     bordercolor="#666666"
     borderopacity="1.0"
     inkscape:pageopacity="0.0"
     inkscape:pageshadow="2"
     inkscape:zoom="0.82130906"
     inkscape:cx="212.62302"
     inkscape:cy="450.37709"
     inkscape:document-units="px"
     inkscape:current-layer="layer1"
     showgrid="false"
     inkscape:window-width="1863"
     inkscape:window-height="1056"
     inkscape:window-x="57"
     inkscape:window-y="24"
     inkscape:window-maximized="1"
     inkscape:object-nodes="true"
     inkscape:snap-nodes="true"
     inkscape:snap-others="false" />
  <metadata
     id="metadata9639">
    <rdf:RDF>
      <cc:Work
         rdf:about="">
        <dc:format>image/svg+xml</dc:format>
        <dc:type
           rdf:resource="http://purl.org/dc/dcmitype/StillImage" />
        <dc:title></dc:title>
      </cc:Work>
    </rdf:RDF>
  </metadata>
  <g
     inkscape:label="Layer 1"
     inkscape:groupmode="layer"
     id="layer1">
    <path
       style="fill:none;fill-rule:evenodd;stroke:#000000;stroke-width:1px;stroke-linecap:butt;stroke-linejoin:miter;stroke-opacity:1"
       d="m 277.74345,838.61031 29.99999,-10 30,10 20,25 0,29.99999 -20,25 -30,10.00001 -29.99999,-10.00001 -20,-25 0,-29.99999 20,-25"
       id="path10201"
       inkscape:connector-curvature="0" />
    <path
       style="fill:none;fill-rule:evenodd;stroke:#000000;stroke-width:1px;stroke-linecap:butt;stroke-linejoin:miter;stroke-opacity:1"
       d="m 327.74345,873.61031 29.99999,-10 30,10 20,24.99999 0,30 -20,24.99999 -30,10.00001 -29.99999,-10.00001 -20,-24.99999 0,-30 20,-24.99999"
       id="path10201-9"
       inkscape:connector-curvature="0" />
    <path
       style="fill:#000000;fill-opacity:0.18238992;fill-rule:evenodd;stroke:#000000;stroke-width:1px;stroke-linecap:butt;stroke-linejoin:miter;stroke-opacity:1"
       d="m 182.62302,585.88998 29.99999,-10 30,10 20.00001,25 0,30 -20.00001,24.99999 -30,10.00001 -29.99999,-10.00001 -20,-24.99999 0,-30 20,-25"
       id="path10201-9-4"
       inkscape:connector-curvature="0" />
    <path
       style="fill:none;fill-rule:evenodd;stroke:#000000;stroke-width:1px;stroke-linecap:butt;stroke-linejoin:miter;stroke-opacity:1"
       d="m 454.61866,710.42889 29.99999,-10 30,10 20,24.99999 0,30 -20,24.99999 -30,10.00001 -29.99999,-10.00001 -20,-24.99999 0,-30 20,-24.99999"
       id="path10201-9-8"
       inkscape:connector-curvature="0" />
    <path
       style="fill:none;fill-rule:evenodd;stroke:#000000;stroke-width:2;stroke-linecap:butt;stroke-linejoin:miter;stroke-miterlimit:4;stroke-dasharray:none;stroke-opacity:1"
       d="m 484.61865,800.42888 30,-10 30,10 20,25 0,29.99999 -20,25 -30,10.00001 -30,-10.00001 -20,-25 0,-29.99999 20,-25"
       id="path10201-1"
       inkscape:connector-curvature="0" />
    <path
       style="fill:#000000;fill-opacity:0.18238992;fill-rule:evenodd;stroke:#000000;stroke-width:1px;stroke-linecap:butt;stroke-linejoin:miter;stroke-opacity:1"
       d="m 49.815593,199.08356 30,10 29.999987,-10 0,30 20,25 -29.999977,10 -20,24.99999 -20.00001,-24.99999 -30,-10 20,-25 0,-30"
       id="path10269"
       inkscape:connector-curvature="0" />
    <path
       style="fill:none;fill-rule:evenodd;stroke:#000000;stroke-width:1px;stroke-linecap:butt;stroke-linejoin:miter;stroke-opacity:1"
       d="m 109.8156,199.08356 -2e-5,30 20,25 30.00002,9.99999 0,-29.99999 -20,-25 z"
       id="path10271"
       inkscape:connector-curvature="0" />
    <path
       style="fill:none;fill-rule:evenodd;stroke:#000000;stroke-width:2;stroke-linecap:butt;stroke-linejoin:miter;stroke-miterlimit:4;stroke-dasharray:none;stroke-opacity:1"
       d="m 584.61865,800.42888 30,-10 30,10 20,25 0,29.99999 -20,25 -30,10 -30,-10 -20,-25 0,-29.99999 20,-25"
       id="path10201-1-2"
       inkscape:connector-curvature="0" />
    <path
       style="fill:none;fill-rule:evenodd;stroke:#000000;stroke-width:1px;stroke-linecap:butt;stroke-linejoin:miter;stroke-opacity:1"
       d="m 79.815593,209.08356 0,-29.99999 29.999997,10 30,-10 1e-5,29.99999 -30,-10 z"
       id="path10288"
       inkscape:connector-curvature="0" />
    <path
       style="fill:#000000;fill-opacity:0.18238992;fill-rule:evenodd;stroke:#000000;stroke-width:1px;stroke-linecap:butt;stroke-linejoin:miter;stroke-opacity:1"
       d="m 159.8156,234.08356 30,10 29.99999,-10 0,30 20,25 -29.99998,10 -20,24.99999 -20.00001,-24.99999 -30,-10 20,-25 0,-30"
       id="path10269-9"
       inkscape:connector-curvature="0" />
    <path
       style="fill:none;fill-rule:evenodd;stroke:#000000;stroke-width:1px;stroke-linecap:butt;stroke-linejoin:miter;stroke-opacity:1"
       d="m 79.815603,289.08356 29.999997,10.00001 30,-10.00001 20.00002,-24.99999 -30.00002,-10 -29.999977,10 -20.00002,24.99999"
       id="path10305"
       inkscape:connector-curvature="0" />
    <path
       style="fill:#000000;fill-opacity:0.18238992;fill-rule:evenodd;stroke:#000000;stroke-width:1px;stroke-linecap:butt;stroke-linejoin:miter;stroke-opacity:1"
       d="m 109.81559,189.08357 30,-10 29.99999,10 0,-30 20,-25 -29.99998,-10 -20,-24.999988 -20.00001,24.999988 -29.999997,10 19.999997,25 0,30"
       id="path10269-9-3"
       inkscape:connector-curvature="0" />
    <path
       style="fill:none;fill-rule:evenodd;stroke:#000000;stroke-width:1px;stroke-linecap:butt;stroke-linejoin:miter;stroke-opacity:1"
       d="m 189.81558,244.08356 0,-29.99999 30,10 30,-10 10e-6,29.99999 -30,-10 z"
       id="path10288-9"
       inkscape:connector-curvature="0" />
    <path
       style="fill:none;fill-rule:evenodd;stroke:#000000;stroke-width:1px;stroke-linecap:butt;stroke-linejoin:miter;stroke-opacity:1"
       d="m 139.81558,179.08356 -2e-5,30.00001 20,25 30.00002,9.99999 0,-29.99999 -20,-25 z"
       id="path10271-0"
       inkscape:connector-curvature="0" />
    <path
       style="fill:none;fill-rule:evenodd;stroke:#000000;stroke-width:1px;stroke-linecap:butt;stroke-linejoin:miter;stroke-opacity:1"
       d="m 299.81557,279.08355 0,-29.99999 30,10 30,-10 1e-5,29.99999 -30,-10 z"
       id="path10288-8"
       inkscape:connector-curvature="0" />
    <path
       style="fill:#000000;fill-opacity:0.18238992;fill-rule:evenodd;stroke:#000000;stroke-width:1px;stroke-linecap:butt;stroke-linejoin:miter;stroke-opacity:1"
       d="m 219.81558,224.08357 30,-10 29.99999,10 0,-30 20,-25 -29.99998,-10 -20,-24.99999 -20.00001,24.99999 -30,10 20,25 0,30"
       id="path10269-9-3-8"
       inkscape:connector-curvature="0" />
    <path
       style="fill:none;fill-rule:evenodd;stroke:#000000;stroke-width:1px;stroke-linecap:butt;stroke-linejoin:miter;stroke-opacity:1"
       d="m 169.81558,159.08357 0,30 20,25 30,10 0,-30 -20,-25 -30,-10"
       id="path10382"
       inkscape:connector-curvature="0" />
    <path
       style="fill:none;fill-rule:evenodd;stroke:#000000;stroke-width:1px;stroke-linecap:butt;stroke-linejoin:miter;stroke-opacity:1"
       d="m 169.81558,159.08357 30,10 30,-10 20.00001,-24.99999 -30.00001,-10 -30,9.99999 z"
       id="path10384"
       inkscape:connector-curvature="0" />
    <path
       style="fill:#000000;fill-opacity:0.18238992;fill-rule:evenodd;stroke:#000000;stroke-width:1px;stroke-linecap:butt;stroke-linejoin:miter;stroke-opacity:1"
       d="m 189.81557,34.083592 30,10 29.99999,-10 0,30 20,25 -29.99998,10 -20,24.999988 -20.00001,-24.999988 -30,-10 20,-25 0,-30"
       id="path10269-5"
       inkscape:connector-curvature="0" />
    <path
       style="fill:none;fill-rule:evenodd;stroke:#000000;stroke-width:1px;stroke-linecap:butt;stroke-linejoin:miter;stroke-opacity:1"
       d="m 139.8156,99.083582 29.99997,-9.99999 30,10 20.00001,24.999988 -30,9.99999 -29.99998,-10 -20,-24.999988"
       id="path10401"
       inkscape:connector-curvature="0" />
    <path
       style="fill:none;fill-rule:evenodd;stroke:#000000;stroke-width:1px;stroke-linecap:butt;stroke-linejoin:miter;stroke-opacity:1"
       d="m 219.81559,124.08357 30,10.00001 30,-10.00001 20.00002,-24.999988 -30.00002,-10 -29.99998,10 -20.00002,24.999988"
       id="path10305-0"
       inkscape:connector-curvature="0" />
    <path
       style="fill:none;fill-rule:evenodd;stroke:#000000;stroke-width:1px;stroke-linecap:butt;stroke-linejoin:miter;stroke-opacity:1"
       d="m 249.81556,34.083592 -2e-5,30 20,25 30.00002,9.99999 0,-29.99999 -20,-25 z"
       id="path10271-9"
       inkscape:connector-curvature="0" />
    <path
       style="fill:#000000;fill-opacity:0.18238992;fill-rule:evenodd;stroke:#000000;stroke-width:1px;stroke-linecap:butt;stroke-linejoin:miter;stroke-opacity:1"
       d="m 299.81556,69.083582 30,10 29.99999,-10 0,30 20,24.999998 -29.99998,10 -20,24.99999 -20.00001,-24.99999 -30,-10 20,-24.999998 0,-30"
       id="path10269-9-6"
       inkscape:connector-curvature="0" />
    <path
       style="fill:none;fill-rule:evenodd;stroke:#000000;stroke-width:1px;stroke-linecap:butt;stroke-linejoin:miter;stroke-opacity:1"
       d="m 249.81562,134.08356 29.99997,-9.99999 30,10 20.00001,24.99999 -30,9.99999 -29.99998,-10 -20,-24.99999"
       id="path10401-3"
       inkscape:connector-curvature="0" />
    <path
       style="fill:none;fill-rule:evenodd;stroke:#000000;stroke-width:1px;stroke-linecap:butt;stroke-linejoin:miter;stroke-opacity:1"
       d="m 279.81557,194.08356 30,10 30,-10 20.00001,-24.99999 -30.00001,-10 -30,9.99999 z"
       id="path10384-8"
       inkscape:connector-curvature="0" />
    <path
       style="fill:none;fill-rule:evenodd;stroke:#000000;stroke-width:1px;stroke-linecap:butt;stroke-linejoin:miter;stroke-opacity:1"
       d="m 279.81557,194.08356 0,30 20,25 30,10 0,-30 -20,-25 -30,-10"
       id="path10382-5"
       inkscape:connector-curvature="0" />
    <path
       style="fill:none;fill-rule:evenodd;stroke:#000000;stroke-width:1px;stroke-linecap:butt;stroke-linejoin:miter;stroke-opacity:1"
       d="m 249.81559,214.08356 0,30 20,25 30,10 0,-30 -20,-25 -30,-10"
       id="path10382-6"
       inkscape:connector-curvature="0" />
    <path
       style="fill:none;fill-rule:evenodd;stroke:#000000;stroke-width:1px;stroke-linecap:butt;stroke-linejoin:miter;stroke-opacity:1"
       d="m 219.81559,234.08356 0,30 20,25 30,10 0,-30 -20,-25 -30,-10"
       id="path10382-1"
       inkscape:connector-curvature="0" />
    <path
       style="fill:#000000;fill-opacity:0.18238992;fill-rule:evenodd;stroke:#000000;stroke-width:1px;stroke-linecap:butt;stroke-linejoin:miter;stroke-opacity:1"
       d="m 329.81557,259.08356 30,-10 29.99999,10 0,-30 20,-25 -29.99998,-10 -20,-24.99999 -20.00001,24.99999 -30,10 20,25 0,30"
       id="path10269-9-3-8-1"
       inkscape:connector-curvature="0" />
    <path
       style="fill:#000000;fill-opacity:0.18238992;fill-rule:evenodd;stroke:#000000;stroke-width:1px;stroke-linecap:butt;stroke-linejoin:miter;stroke-opacity:1"
       d="m 269.81559,269.08356 30,10 29.99999,-10 0,30 20,25 -29.99998,10 -20,24.99999 -20.00001,-24.99999 -30,-10 20,-25 0,-30"
       id="path10269-9-9"
       inkscape:connector-curvature="0" />
    <path
       style="fill:none;fill-rule:evenodd;stroke:#000000;stroke-width:1px;stroke-linecap:butt;stroke-linejoin:miter;stroke-opacity:1"
       d="m 329.81555,159.08357 30,10.00001 30,-10.00001 20.00002,-24.99999 -30.00002,-10 -29.99998,10 -20.00002,24.99999"
       id="path10305-0-8"
       inkscape:connector-curvature="0" />
    <path
       style="fill:none;fill-rule:evenodd;stroke:#000000;stroke-width:1px;stroke-linecap:butt;stroke-linejoin:miter;stroke-opacity:1"
       d="m 359.81558,169.08356 29.99997,-9.99999 30,10 20.00001,24.99999 -30,9.99999 -29.99998,-10 -20,-24.99999"
       id="path10401-3-4"
       inkscape:connector-curvature="0" />
    <path
       style="fill:none;fill-rule:evenodd;stroke:#000000;stroke-width:1px;stroke-linecap:butt;stroke-linejoin:miter;stroke-opacity:1"
       d="m 189.81559,324.08355 30,10 30,-10 20.00001,-24.99999 -30.00001,-10 -30,9.99999 z"
       id="path10384-8-8"
       inkscape:connector-curvature="0" />
    <path
       style="fill:none;fill-rule:evenodd;stroke:#000000;stroke-width:1px;stroke-linecap:butt;stroke-linejoin:miter;stroke-opacity:1"
       d="m 109.81563,299.08355 29.99997,-9.99999 30,10 20.00001,24.99999 -30,9.99999 -29.99998,-10 -20,-24.99999"
       id="path10401-1"
       inkscape:connector-curvature="0" />
    <path
       style="fill:none;fill-rule:evenodd;stroke:#000000;stroke-width:1px;stroke-linecap:butt;stroke-linejoin:miter;stroke-opacity:1"
       d="m 139.81561,359.08354 30,10 30,-10 20.00001,-24.99999 -30.00001,-10 -30,9.99999 z"
       id="path10384-0"
       inkscape:connector-curvature="0" />
    <path
       style="fill:#000000;fill-opacity:0.18238992;fill-rule:evenodd;stroke:#000000;stroke-width:1px;stroke-linecap:butt;stroke-linejoin:miter;stroke-opacity:1"
       d="m 189.81561,424.08354 30,-10 29.99999,10 0,-30 20,-25 -29.99998,-10 -20,-24.99999 -20.00001,24.99999 -30,10 20,25 0,30"
       id="path10269-9-3-8-3"
       inkscape:connector-curvature="0" />
    <path
       style="fill:none;fill-rule:evenodd;stroke:#000000;stroke-width:1px;stroke-linecap:butt;stroke-linejoin:miter;stroke-opacity:1"
       d="m 219.81562,334.08355 29.99997,-9.99999 30,10 20.00001,24.99999 -30,9.99999 -29.99998,-10 -20,-24.99999"
       id="path10401-3-0"
       inkscape:connector-curvature="0" />
    <path
       style="fill:#000000;fill-opacity:0.18238992;fill-rule:evenodd;stroke:#000000;stroke-width:1px;stroke-linecap:butt;stroke-linejoin:miter;stroke-opacity:1"
       d="m 79.815623,389.08354 29.999997,-10 29.99999,10 0,-30 20,-25 -29.99998,-10 -20,-24.99999 -20.000007,24.99999 -30,10 20,25 0,30"
       id="path10269-9-3-8-4"
       inkscape:connector-curvature="0" />
    <path
       style="fill:none;fill-rule:evenodd;stroke:#000000;stroke-width:1px;stroke-linecap:butt;stroke-linejoin:miter;stroke-opacity:1"
       d="m 152.62302,675.88997 30,-10 -20,-24.99999 0,-30 -30,10 20,25 z"
       id="path10661"
       inkscape:connector-curvature="0" />
    <path
       style="fill:none;fill-rule:evenodd;stroke:#000000;stroke-width:2;stroke-linecap:butt;stroke-linejoin:miter;stroke-miterlimit:4;stroke-dasharray:none;stroke-opacity:1"
       d="m 554.61865,710.42888 30,-10 30,10 20,25 0,29.99999 -20,25 -30,10.00001 -30,-10.00001 -20,-25 0,-29.99999 20,-25"
       id="path10201-1-4"
       inkscape:connector-curvature="0" />
    <path
       style="fill:none;fill-rule:evenodd;stroke:#000000;stroke-width:1px;stroke-linecap:butt;stroke-linejoin:miter;stroke-opacity:1"
       d="m 132.62302,620.88999 30,-10.00001 20,-25 0,-29.99998 -30,10 -20,25 0,29.99999"
       id="path10678"
       inkscape:connector-curvature="0" />
    <path
       style="fill:#000000;fill-opacity:0.18238992;fill-rule:evenodd;stroke:#000000;stroke-width:1px;stroke-linecap:butt;stroke-linejoin:miter;stroke-opacity:1"
       d="m 72.623034,620.88999 29.999986,-10 30,10 20.00001,25 0,30 -20.00001,24.99999 -30,10.00002 -29.999986,-10.00002 -20,-24.99999 0,-30 20,-25"
       id="path10201-9-4-4"
       inkscape:connector-curvature="0" />
    <path
       style="fill:none;fill-rule:evenodd;stroke:#000000;stroke-width:1px;stroke-linecap:butt;stroke-linejoin:miter;stroke-opacity:1"
       d="m 72.623034,620.88999 -1e-5,-29.99999 29.999996,10 30,-10 0,29.99998 -30,-9.99999 -29.999986,10"
       id="path10695"
       inkscape:connector-curvature="0" />
    <path
       style="fill:#000000;fill-opacity:0.18238992;fill-rule:evenodd;stroke:#000000;stroke-width:1px;stroke-linecap:butt;stroke-linejoin:miter;stroke-opacity:1"
       d="m 72.623024,510.89 29.999986,-10 30,10 20.00001,25 0,30 -20.00001,24.99999 -30,10.00002 -29.999986,-10.00002 -20,-24.99999 0,-30 20,-25"
       id="path10201-9-4-47"
       inkscape:connector-curvature="0" />
    <path
       style="fill:none;fill-rule:evenodd;stroke:#000000;stroke-width:1px;stroke-linecap:butt;stroke-linejoin:miter;stroke-opacity:1"
       d="m 182.62303,585.88999 -1e-5,-29.99999 30,10 30,-10 0,29.99998 -30,-9.99999 -29.99999,10"
       id="path10695-6"
       inkscape:connector-curvature="0" />
    <path
       style="fill:#000000;fill-opacity:0.18238992;fill-rule:evenodd;stroke:#000000;stroke-width:1px;stroke-linecap:butt;stroke-linejoin:miter;stroke-opacity:1"
       d="m 182.62302,475.89001 29.99999,-10 30,10 20.00001,25 0,30 -20.00001,24.99999 -30,10.00003 -29.99999,-10.00003 -20,-24.99999 0,-30 20,-25"
       id="path10201-9-4-47-3"
       inkscape:connector-curvature="0" />
    <path
       style="fill:none;fill-rule:evenodd;stroke:#000000;stroke-width:1px;stroke-linecap:butt;stroke-linejoin:miter;stroke-opacity:1"
       d="m 72.623042,730.88999 -1e-5,-29.99999 29.999988,10 30,-10 0,29.99998 -30,-9.99999 -29.999978,10"
       id="path10695-1"
       inkscape:connector-curvature="0" />
    <path
       style="fill:none;fill-rule:evenodd;stroke:#000000;stroke-width:1px;stroke-linecap:butt;stroke-linejoin:miter;stroke-opacity:1"
       d="m 182.62302,695.88997 -1e-5,-29.99999 30,10 30,-10 0,29.99998 -30,-9.99999 -29.99999,10"
       id="path10695-7"
       inkscape:connector-curvature="0" />
    <path
       style="fill:none;fill-rule:evenodd;stroke:#000000;stroke-width:1px;stroke-linecap:butt;stroke-linejoin:miter;stroke-opacity:1"
       d="m 132.62301,730.88997 30,-10.00001 20,-25 0,-29.99998 -30,10 -20,25 0,29.99999"
       id="path10678-5"
       inkscape:connector-curvature="0" />
    <path
       style="fill:#000000;fill-opacity:0.18238992;fill-rule:evenodd;stroke:#000000;stroke-width:1px;stroke-linecap:butt;stroke-linejoin:miter;stroke-opacity:1"
       d="m 72.623032,730.88999 29.999988,-10 30,10 20.00001,25 0,30 -20.00001,24.99999 -30,10.00003 -29.999988,-10.00003 -20,-24.99999 0,-30 20,-25"
       id="path10201-9-4-47-9"
       inkscape:connector-curvature="0" />
    <path
       style="fill:#000000;fill-opacity:0.18238992;fill-rule:evenodd;stroke:#000000;stroke-width:1px;stroke-linecap:butt;stroke-linejoin:miter;stroke-opacity:1"
       d="m 182.62302,695.88995 29.99998,-10 30,10 20.00002,25 0,30 -20.00002,24.99999 -30,10.00002 -29.99998,-10.00002 -20,-24.99999 0,-30 20,-25"
       id="path10201-9-4-47-6"
       inkscape:connector-curvature="0" />
    <path
       style="fill:none;fill-rule:evenodd;stroke:#000000;stroke-width:1px;stroke-linecap:butt;stroke-linejoin:miter;stroke-opacity:1"
       d="m 242.62302,585.89 30,-10.00001 20,-25 0,-29.99998 -30,10 -20,25 0,29.99999"
       id="path10678-2"
       inkscape:connector-curvature="0" />
    <path
       style="fill:none;fill-rule:evenodd;stroke:#000000;stroke-width:1px;stroke-linecap:butt;stroke-linejoin:miter;stroke-opacity:1"
       d="m 242.62302,695.88997 30,-10.00001 20,-25 0,-29.99998 -30,10 -20,25 0,29.99999"
       id="path10678-1"
       inkscape:connector-curvature="0" />
    <path
       style="fill:#000000;fill-opacity:0.18238992;fill-rule:evenodd;stroke:#000000;stroke-width:1px;stroke-linecap:butt;stroke-linejoin:miter;stroke-opacity:1"
       d="m 292.62302,550.88999 29.99999,-10 30,10 20.00001,25 0,30 -20.00001,24.99999 -30,10.00004 -29.99999,-10.00004 -20,-24.99999 0,-30 20,-25"
       id="path10201-9-4-47-3-7"
       inkscape:connector-curvature="0" />
    <path
       style="fill:#000000;fill-opacity:0.18238992;fill-rule:evenodd;stroke:#000000;stroke-width:1px;stroke-linecap:butt;stroke-linejoin:miter;stroke-opacity:1"
       d="m 292.62302,660.88996 29.99999,-10 30,10 20.00001,25 0,30 -20.00001,24.99999 -30,10.00004 -29.99999,-10.00004 -20,-24.99999 0,-30 20,-25"
       id="path10201-9-4-47-3-8"
       inkscape:connector-curvature="0" />
    <path
       style="fill:none;fill-rule:evenodd;stroke:#000000;stroke-width:1px;stroke-linecap:butt;stroke-linejoin:miter;stroke-opacity:1"
       d="m 455.18376,457.71574 0,30 20,25 30,10 0,-30 -20,-25 -30,-10"
       id="path10382-6-5"
       inkscape:connector-curvature="0" />
    <path
       style="fill:#000000;fill-opacity:0.18238992;fill-rule:evenodd;stroke:#000000;stroke-width:1px;stroke-linecap:butt;stroke-linejoin:miter;stroke-opacity:1"
       d="m 455.18376,457.71574 0,30 20,25 30,10 -19.99999,25 -30,9.99999 -30,-10 -20,-24.99999 0,-30 20,-25 29.99999,-10"
       id="path10856"
       inkscape:connector-curvature="0" />
    <path
       style="fill:#000000;fill-opacity:0.18238992;fill-rule:evenodd;stroke:#000000;stroke-width:1px;stroke-linecap:butt;stroke-linejoin:miter;stroke-opacity:1"
       d="m 535.18377,402.71574 0,30 -20,25 -30,10 19.99999,25 30,9.99999 30,-10 20,-24.99999 0,-30 -20,-25 -29.99999,-10"
       id="path10856-7"
       inkscape:connector-curvature="0" />
    <path
       style="fill:none;fill-rule:evenodd;stroke:#000000;stroke-width:1px;stroke-linecap:butt;stroke-linejoin:miter;stroke-opacity:1"
       d="m 505.18376,492.71574 30,9.99999 -20,25 0,29.99999 -29.99999,-9.99998 19.99999,-25 0,-30"
       id="path10873"
       inkscape:connector-curvature="0" />
    <path
       style="fill:#000000;fill-opacity:0.18238992;fill-rule:evenodd;stroke:#000000;stroke-width:1px;stroke-linecap:butt;stroke-linejoin:miter;stroke-opacity:1"
       d="m 515.18376,527.71572 0,30 -20,25 -30,10 19.99999,25 30,9.99999 30,-10 20,-24.99999 0,-30 -20,-25 -29.99999,-10"
       id="path10856-7-4"
       inkscape:connector-curvature="0" />
    <path
       style="fill:none;fill-rule:evenodd;stroke:#000000;stroke-width:1px;stroke-linecap:butt;stroke-linejoin:miter;stroke-opacity:1"
       d="m 465.18376,592.71572 -30,-10 20.00001,-24.99999 30,-9.99999 29.99999,9.99998 -20,25 z"
       id="path10890"
       inkscape:connector-curvature="0" />
    <path
       style="fill:none;fill-rule:evenodd;stroke:#000000;stroke-width:1px;stroke-linecap:butt;stroke-linejoin:miter;stroke-opacity:1"
       d="m 485.18376,467.71574 -30,-10 20.00001,-24.99999 30,-9.99998 29.99999,9.99997 -20,25 z"
       id="path10890-1"
       inkscape:connector-curvature="0" />
    <path
       style="fill:none;fill-rule:evenodd;stroke:#000000;stroke-width:1px;stroke-linecap:butt;stroke-linejoin:miter;stroke-opacity:1"
       d="m 525.18377,367.71574 30,10 -20,25 0,29.99999 -29.99999,-9.99998 19.99999,-25 0,-30.00001"
       id="path10873-8"
       inkscape:connector-curvature="0" />
    <path
       style="fill:#000000;fill-opacity:0.18238992;fill-rule:evenodd;stroke:#000000;stroke-width:1px;stroke-linecap:butt;stroke-linejoin:miter;stroke-opacity:1"
       d="m 625.18374,492.71572 0,30 20,25 30,10 -19.99999,25 -30,9.99999 -30,-10 -20,-24.99999 0,-30 20,-25 29.99999,-10"
       id="path10856-5"
       inkscape:connector-curvature="0" />
    <path
       style="fill:none;fill-rule:evenodd;stroke:#000000;stroke-width:1px;stroke-linecap:butt;stroke-linejoin:miter;stroke-opacity:1"
       d="m 565.18375,592.71572 30,-10.00001 -20,-24.99999 0,-30 -30,10 20,25 z"
       id="path10937"
       inkscape:connector-curvature="0" />
    <path
       style="fill:none;fill-rule:evenodd;stroke:#000000;stroke-width:1px;stroke-linecap:butt;stroke-linejoin:miter;stroke-opacity:1"
       d="m 545.18375,537.71572 30,-10 20,-25 -29.99999,-9.99999 -30,10 -20,24.99999 29.99999,10"
       id="path10939"
       inkscape:connector-curvature="0" />
    <path
       style="fill:none;fill-rule:evenodd;stroke:#000000;stroke-width:1px;stroke-linecap:butt;stroke-linejoin:miter;stroke-opacity:1"
       d="m 595.18374,502.71572 30,-10 20,-25 -29.99999,-9.99998 -30,9.99999 -20,24.99999 29.99999,10"
       id="path10939-9"
       inkscape:connector-curvature="0" />
    <path
       style="fill:none;fill-rule:evenodd;stroke:#000000;stroke-width:1px;stroke-linecap:butt;stroke-linejoin:miter;stroke-opacity:1"
       d="m 585.18376,467.71574 30,-10.00001 -20,-24.99999 0,-30 -30,10 20,25 z"
       id="path10937-7"
       inkscape:connector-curvature="0" />
    <path
       style="fill:#000000;fill-opacity:0.18238992;fill-rule:evenodd;stroke:#000000;stroke-width:1px;stroke-linecap:butt;stroke-linejoin:miter;stroke-opacity:1"
       d="m 645.18375,367.71574 0,30 20,25 30,10 -19.99999,25 -30,9.99999 -30,-10 -20,-24.99999 0,-30 20,-25 29.99999,-10"
       id="path10856-5-5"
       inkscape:connector-curvature="0" />
    <path
       style="fill:none;fill-rule:evenodd;stroke:#000000;stroke-width:1px;stroke-linecap:butt;stroke-linejoin:miter;stroke-opacity:1"
       d="m 655.18374,502.71572 -30,-10 20.00001,-24.99999 30,-9.99998 29.99999,9.99997 -20,25 z"
       id="path10890-1-3"
       inkscape:connector-curvature="0" />
    <path
       style="fill:none;fill-rule:evenodd;stroke:#000000;stroke-width:1px;stroke-linecap:butt;stroke-linejoin:miter;stroke-opacity:1"
       d="m 675.18374,527.71572 30,9.99999 -20,25 0,29.99999 -29.99999,-9.99998 19.99999,-25 0,-30"
       id="path10873-88"
       inkscape:connector-curvature="0" />
    <path
       style="fill:none;fill-rule:evenodd;stroke:#000000;stroke-width:1px;stroke-linecap:butt;stroke-linejoin:miter;stroke-opacity:1"
       d="m 675.18374,557.71572 0,-30 -20,-25 -30,-10 0,30 20,25 z"
       id="path11016"
       inkscape:connector-curvature="0" />
    <path
       style="fill:none;fill-rule:evenodd;stroke:#000000;stroke-width:1px;stroke-linecap:butt;stroke-linejoin:miter;stroke-opacity:1"
       d="m 565.18376,412.71573 30,-10 20,-25 -29.99999,-9.99999 -30,10 -20,24.99999 29.99999,10"
       id="path10939-3"
       inkscape:connector-curvature="0" />
    <path
       style="fill:#000000;fill-opacity:0.18238992;fill-rule:evenodd;stroke:#000000;stroke-width:1px;stroke-linecap:butt;stroke-linejoin:miter;stroke-opacity:1"
       d="m 665.18374,242.71578 0,30 20,25 30,10 -19.99999,25 -30,9.99999 -30,-10 -20,-24.99999 0,-30 20,-25 29.99999,-10"
       id="path10856-5-1"
       inkscape:connector-curvature="0" />
    <path
       style="fill:#000000;fill-opacity:0.18238992;fill-rule:evenodd;stroke:#000000;stroke-width:1px;stroke-linecap:butt;stroke-linejoin:miter;stroke-opacity:1"
       d="m 475.18376,332.71576 0,30 20,25 30,10 -19.99999,25 -30,9.99999 -30,-10 -20,-24.99999 0,-30 20,-25 29.99999,-10"
       id="path10856-9"
       inkscape:connector-curvature="0" />
    <path
       style="fill:none;fill-rule:evenodd;stroke:#000000;stroke-width:1px;stroke-linecap:butt;stroke-linejoin:miter;stroke-opacity:1"
       d="m 505.18376,342.71576 -30,-10 20.00001,-24.99999 30,-9.99998 29.99999,9.99997 -20,25 z"
       id="path10890-1-6"
       inkscape:connector-curvature="0" />
    <path
       style="fill:#000000;fill-opacity:0.18238992;fill-rule:evenodd;stroke:#000000;stroke-width:1px;stroke-linecap:butt;stroke-linejoin:miter;stroke-opacity:1"
       d="m 555.18376,277.71576 0,30 -20,25 -30,10 19.99999,25 30,9.99999 30,-10 20,-24.99999 0,-30 -20,-25 -29.99999,-10"
       id="path10856-7-43"
       inkscape:connector-curvature="0" />
    <path
       style="fill:none;fill-rule:evenodd;stroke:#000000;stroke-width:1px;stroke-linecap:butt;stroke-linejoin:miter;stroke-opacity:1"
       d="m 615.18374,377.71575 30,-10 20,-25 -29.99999,-9.99998 -30,9.99999 -20,24.99999 29.99999,10"
       id="path10939-9-3"
       inkscape:connector-curvature="0" />
    <path
       style="fill:none;fill-rule:evenodd;stroke:#000000;stroke-width:1px;stroke-linecap:butt;stroke-linejoin:miter;stroke-opacity:1"
       d="m 695.18375,432.71574 0,-30 -20,-25 -30,-10 0,30 20,25 z"
       id="path11016-8"
       inkscape:connector-curvature="0" />
    <path
       style="fill:none;fill-rule:evenodd;stroke:#000000;stroke-width:1px;stroke-linecap:butt;stroke-linejoin:miter;stroke-opacity:1"
       d="m 675.18375,377.71574 -30,-10 20.00001,-24.99999 30,-9.99998 29.99999,9.99997 -20,25 z"
       id="path10890-1-3-6"
       inkscape:connector-curvature="0" />
    <path
       style="fill:none;fill-rule:evenodd;stroke:#ff0000;stroke-width:3;stroke-linecap:butt;stroke-linejoin:miter;stroke-opacity:1;stroke-miterlimit:4;stroke-dasharray:none"
       d="m 162.62302,610.89 20.00001,-25.00001 -1e-5,-29.99999 30,10 29.99999,-10 0,29.99998 20,25.00001 -30,10 -20,25 -19.99999,-24.99999 -30,-10"
       id="path11168"
       inkscape:connector-curvature="0" />
    <path
       style="fill:none;fill-rule:evenodd;stroke:#ff0000;stroke-width:3;stroke-linecap:butt;stroke-linejoin:miter;stroke-miterlimit:4;stroke-dasharray:none;stroke-opacity:1"
       d="m 162.62301,720.88998 20.00001,-25.00001 -1e-5,-29.99999 30,10 29.99999,-10 0,29.99998 19.99999,25.00001 -29.99999,10 -20,25 -19.99999,-24.99999 -30,-10"
       id="path11168-0"
       inkscape:connector-curvature="0" />
    <path
       style="fill:none;fill-rule:evenodd;stroke:#ff0000;stroke-width:3;stroke-linecap:butt;stroke-linejoin:miter;stroke-miterlimit:4;stroke-dasharray:none;stroke-opacity:1"
       d="m 272.62302,575.89001 20.00001,-25.00001 -1e-5,-29.99999 30,10 29.99999,-10 0,29.99998 20,25.00001 -30,10 -20,25 -19.99999,-24.99999 -30,-10"
       id="path11168-4"
       inkscape:connector-curvature="0" />
    <path
       style="fill:none;fill-rule:evenodd;stroke:#ff0000;stroke-width:3;stroke-linecap:butt;stroke-linejoin:miter;stroke-miterlimit:4;stroke-dasharray:none;stroke-opacity:1"
       d="m 272.62301,685.89002 20.00001,-25.00001 -10e-6,-29.99999 30,10 29.99999,-10 0,29.99998 19.99999,25.00001 -29.99999,10 -20,25 -19.99999,-24.99999 -30,-10"
       id="path11168-8"
       inkscape:connector-curvature="0" />
    <path
       style="fill:none;fill-rule:evenodd;stroke:#ff0000;stroke-width:3;stroke-linecap:butt;stroke-linejoin:miter;stroke-miterlimit:4;stroke-dasharray:none;stroke-opacity:1"
       d="m 52.62302,755.89 20.00001,-25.00001 -1e-5,-29.99999 30,10 29.99999,-10 0,29.99998 19.99999,25.00001 -29.99999,10 -20,25 -19.99999,-24.99999 -30,-10"
       id="path11168-88"
       inkscape:connector-curvature="0" />
    <path
       style="fill:none;fill-rule:evenodd;stroke:#ff0000;stroke-width:3;stroke-linecap:butt;stroke-linejoin:miter;stroke-miterlimit:4;stroke-dasharray:none;stroke-opacity:1"
       d="m 52.62302,645.88999 20.00001,-25.00001 -1e-5,-29.99999 30,10 29.99999,-10 0,29.99998 20,25.00001 -30,10 -20,25 -19.99999,-24.99999 -30,-10"
       id="path11168-9"
       inkscape:connector-curvature="0" />
  </g>
</svg>
