<?xml version="1.0" encoding="UTF-8" standalone="no"?>
<!-- Created with Inkscape (http://www.inkscape.org/) -->

<svg
   xmlns:dc="http://purl.org/dc/elements/1.1/"
   xmlns:cc="http://creativecommons.org/ns#"
   xmlns:rdf="http://www.w3.org/1999/02/22-rdf-syntax-ns#"
   xmlns:svg="http://www.w3.org/2000/svg"
   xmlns="http://www.w3.org/2000/svg"
   xmlns:sodipodi="http://sodipodi.sourceforge.net/DTD/sodipodi-0.dtd"
   xmlns:inkscape="http://www.inkscape.org/namespaces/inkscape"
   width="744.09448819"
   height="1052.3622047"
   id="svg2"
   version="1.1"
   inkscape:version="0.91 r13725"
   sodipodi:docname="14gon-def.svg">
  <defs
     id="defs4" />
  <sodipodi:namedview
     id="base"
     pagecolor="#ffffff"
     bordercolor="#666666"
     borderopacity="1.0"
     inkscape:pageopacity="0.0"
     inkscape:pageshadow="2"
     inkscape:zoom="0.89227836"
     inkscape:cx="372.04724"
     inkscape:cy="346.86485"
     inkscape:document-units="px"
     inkscape:current-layer="layer1"
     showgrid="true"
     inkscape:window-width="1863"
     inkscape:window-height="1056"
     inkscape:window-x="57"
     inkscape:window-y="24"
     inkscape:window-maximized="1"
     inkscape:snap-grids="true">
    <inkscape:grid
       type="xygrid"
       id="grid3004" />
  </sodipodi:namedview>
  <metadata
     id="metadata7">
    <rdf:RDF>
      <cc:Work
         rdf:about="">
        <dc:format>image/svg+xml</dc:format>
        <dc:type
           rdf:resource="http://purl.org/dc/dcmitype/StillImage" />
        <dc:title />
      </cc:Work>
    </rdf:RDF>
  </metadata>
  <g
     inkscape:label="Layer 1"
     inkscape:groupmode="layer"
     id="layer1">
    <path
       style="fill:#ff7f00;stroke:#000000;stroke-width:1px;stroke-linecap:butt;stroke-linejoin:miter;stroke-opacity:1;fill-opacity:1"
       d="m 20,142.36218 0,-40 30,30 20,40 0,40 -30,-30 z"
       id="path3006"
       inkscape:connector-curvature="0" />
    <path
       style="fill:none;stroke:#000000;stroke-width:1px;stroke-linecap:butt;stroke-linejoin:miter;stroke-opacity:1"
       d="m 20,102.36218 20,-39.999997 40,10 40,-10 -20,39.999997 -40,-9.999997 -40,9.999997"
       id="path3010"
       inkscape:connector-curvature="0" />
    <path
       style="fill:#ff7f00;stroke:#000000;stroke-width:1px;stroke-linecap:butt;stroke-linejoin:miter;stroke-opacity:1;fill-opacity:1"
       d="m 40,62.362183 30,-30 40,-10 40,10 -30,30 -40,10 z"
       id="path3012"
       inkscape:connector-curvature="0" />
    <path
       style="fill:none;stroke:#000000;stroke-width:1px;stroke-linecap:butt;stroke-linejoin:miter;stroke-opacity:1"
       d="m 150,32.362183 30,30 -20,39.999997 -30,30 -30,-30 20,-39.999997 z"
       id="path3014"
       inkscape:connector-curvature="0" />
    <path
       style="fill:#ff7f00;stroke:#000000;stroke-width:1px;stroke-linecap:butt;stroke-linejoin:miter;stroke-opacity:1;fill-opacity:1"
       d="m 180,62.362183 20,39.999997 0,40 -20,40 -20,-40 0,-40 z"
       id="path3016"
       inkscape:connector-curvature="0" />
    <path
       style="fill:none;stroke:#000000;stroke-width:1px;stroke-linecap:butt;stroke-linejoin:miter;stroke-opacity:1"
       d="m 180,182.36218 -30,30 0,-40 -20,-40 30,-30 0,40 z"
       id="path3018"
       inkscape:connector-curvature="0" />
    <path
       style="fill:none;stroke:#000000;stroke-width:1px;stroke-linecap:butt;stroke-linejoin:miter;stroke-opacity:1"
       d="m 150,212.36218 -40,10 -40,-10 0,-40 40,-10 40,10 z"
       id="path3020"
       inkscape:connector-curvature="0" />
    <path
       style="fill:#ff7f00;stroke:#000000;stroke-width:1px;stroke-linecap:butt;stroke-linejoin:miter;stroke-opacity:1;fill-opacity:1"
       d="m 110,162.36218 -30,-30 -20,-39.999997 40,9.999997 30,30 20,40 z"
       id="path3022"
       inkscape:connector-curvature="0" />
    <path
       style="fill:#ff7f00;fill-opacity:1;stroke:#000000;stroke-width:1px;stroke-linecap:butt;stroke-linejoin:miter;stroke-opacity:1"
       d="m 350,22.36218 40,10 -30,30 -40,10 -40,-10 30,-30 z"
       id="path3792"
       inkscape:connector-curvature="0" />
    <path
       style="fill:none;stroke:#000000;stroke-width:1px;stroke-linecap:butt;stroke-linejoin:miter;stroke-opacity:1"
       d="m 390,32.36218 30,30 -20,40 -30,30 -30,-30 20,-40 z"
       id="path3794"
       inkscape:connector-curvature="0" />
    <path
       style="fill:#ff7f00;fill-opacity:1;stroke:#000000;stroke-width:1px;stroke-linecap:butt;stroke-linejoin:miter;stroke-opacity:1"
       d="m 420,62.36218 20,40 0,40 -20,40 -20,-40 0,-40 z"
       id="path3796"
       inkscape:connector-curvature="0" />
    <path
       style="fill:#ff7f00;fill-opacity:1;stroke:#000000;stroke-width:1px;stroke-linecap:butt;stroke-linejoin:miter;stroke-opacity:1"
       d="m 350,222.36218 -40,-10 -30,-30 -20,-40 40,10 30,30 z"
       id="path3802"
       inkscape:connector-curvature="0" />
    <path
       style="fill:none;stroke:#000000;stroke-width:1px;stroke-linecap:butt;stroke-linejoin:miter;stroke-opacity:1"
       d="m 330,142.36218 0,40 -30,-30 -40,-10 0,-40 30,30 z"
       id="path3804"
       inkscape:connector-curvature="0" />
    <path
       style="fill:#ff7f00;fill-opacity:1;stroke:#000000;stroke-width:1px;stroke-linecap:butt;stroke-linejoin:miter;stroke-opacity:1"
       d="m 370,132.36218 -40,10 -40,-10 -30,-30 40,-10 40,10 z"
       id="path3806"
       inkscape:connector-curvature="0" />
    <path
       style="fill:none;stroke:#000000;stroke-width:1px;stroke-linecap:butt;stroke-linejoin:miter;stroke-opacity:1"
       d="m 260,102.36218 20,-40 40,10 40,-10 -20,40 -40,-10 z"
       id="path3808"
       inkscape:connector-curvature="0" />
    <path
       style="fill:#ff7f00;stroke:#000000;stroke-width:1px;stroke-linecap:butt;stroke-linejoin:miter;stroke-opacity:1;fill-opacity:1"
       d="m 500,102.36218 0,40 20,40 30,30 0,-40 -20,-40 z"
       id="path3810"
       inkscape:connector-curvature="0"
       sodipodi:nodetypes="ccccccc" />
    <path
       style="fill:#ff7f00;stroke:#000000;stroke-width:1px;stroke-linecap:butt;stroke-linejoin:miter;stroke-opacity:1;fill-opacity:1"
       d="m 500,102.36218 40,-9.999997 40,9.999997 30,30 -40,10 -40,-10 z"
       id="path3812"
       inkscape:connector-curvature="0" />
    <path
       style="fill:none;stroke:#000000;stroke-width:1px;stroke-linecap:butt;stroke-linejoin:miter;stroke-opacity:1"
       d="m 500,102.36218 20,-39.999997 40,10 40,-10 -20,39.999997 -40,-9.999997 z"
       id="path3814"
       inkscape:connector-curvature="0" />
    <path
       style="fill:#ff7f00;stroke:#000000;stroke-width:1px;stroke-linecap:butt;stroke-linejoin:miter;stroke-opacity:1;fill-opacity:1"
       d="m 520,62.362183 30,-30 40,-10 40,10 -30,30 -40,10 z"
       id="path3816"
       inkscape:connector-curvature="0" />
    <path
       style="fill:none;stroke:#000000;stroke-width:1px;stroke-linecap:butt;stroke-linejoin:miter;stroke-opacity:1"
       d="m 630,32.362183 30,30 -20,39.999997 -30,30 -30,-30 20,-39.999997 z"
       id="path3818"
       inkscape:connector-curvature="0" />
    <path
       style="fill:#ff7f00;stroke:#000000;stroke-width:1px;stroke-linecap:butt;stroke-linejoin:miter;stroke-opacity:1;fill-opacity:1"
       d="m 660,62.362183 20,39.999997 0,40 -20,40 -20,-40 0,-40 z"
       id="path3820"
       inkscape:connector-curvature="0" />
    <path
       style="fill:#c8c8c8;stroke:#000000;stroke-width:1px;stroke-linecap:butt;stroke-linejoin:miter;stroke-opacity:1;fill-opacity:1"
       d="m 660,182.36218 -30,30 -40,10 -40,-10 0,-40 -20,-40 40,10 40,-10 30,-30 0,40 z"
       id="path3822"
       inkscape:connector-curvature="0" />
    <path
       style="fill:none;stroke:#000000;stroke-width:1px;stroke-linecap:butt;stroke-linejoin:miter;stroke-opacity:1"
       d="m 570,142.36218 0,40 20,40"
       id="path3824"
       inkscape:connector-curvature="0" />
    <path
       style="fill:none;stroke:#000000;stroke-width:1px;stroke-linecap:butt;stroke-linejoin:miter;stroke-opacity:1"
       d="m 610,132.36218 20,40 0,40"
       id="path3826"
       inkscape:connector-curvature="0" />
    <path
       style="fill:none;stroke:#000000;stroke-width:1px;stroke-linecap:butt;stroke-linejoin:miter;stroke-opacity:1"
       d="m 640,142.36218 -40,10 -30,30"
       id="path3828"
       inkscape:connector-curvature="0" />
    <path
       style="fill:none;stroke:#000000;stroke-width:1px;stroke-linecap:butt;stroke-linejoin:miter;stroke-opacity:1"
       d="m 550,172.36218 40,-10 40,10"
       id="path3830"
       inkscape:connector-curvature="0" />
    <path
       style="fill:#ff7f00;stroke:#000000;stroke-width:1px;stroke-linecap:butt;stroke-linejoin:miter;stroke-opacity:1;fill-opacity:1"
       d="m 110,272.36218 40,10 30,30 -40,10 -40,-10 -30,-30 z"
       id="path3832"
       inkscape:connector-curvature="0" />
    <path
       style="fill:#ff7f00;stroke:#000000;stroke-width:1px;stroke-linecap:butt;stroke-linejoin:miter;stroke-opacity:1;fill-opacity:1"
       d="m 180,312.36218 20,40 0,40 -20,40 -20,-40 0,-40 z"
       id="path3834"
       inkscape:connector-curvature="0" />
    <path
       style="fill:#ff7f00;stroke:#000000;stroke-width:1px;stroke-linecap:butt;stroke-linejoin:miter;stroke-opacity:1;fill-opacity:1"
       d="m 160,352.36218 -30,30 -40,10 -40,-10 30,-30 40,-10 z"
       id="path3836"
       inkscape:connector-curvature="0" />
    <path
       style="fill:none;stroke:#000000;stroke-width:1px;stroke-linecap:butt;stroke-linejoin:miter;stroke-opacity:1"
       d="m 80,352.36218 20,-40 -30,-30 -30,30 -20,40 30,30 z"
       id="path3838"
       inkscape:connector-curvature="0"
       sodipodi:nodetypes="ccccccc" />
    <path
       style="fill:#ff7f00;stroke:#000000;stroke-width:1px;stroke-linecap:butt;stroke-linejoin:miter;stroke-opacity:1;fill-opacity:1"
       d="m 20,352.36218 30,30 20,40 0,40 -30,-30 -20,-40 z"
       id="path3840"
       inkscape:connector-curvature="0" />
    <path
       style="fill:#c8c8c8;stroke:#000000;stroke-width:1px;stroke-linecap:butt;stroke-linejoin:miter;stroke-opacity:1;fill-opacity:1"
       d="m 70,462.36218 40,10 40,-10 30,-30 -20,-40 0,-40 -30,30 -40,10 -40,-10 20,40 z"
       id="path3842"
       inkscape:connector-curvature="0" />
    <path
       style="fill:#dedede;stroke:#000000;stroke-width:1px;stroke-linecap:butt;stroke-linejoin:miter;stroke-opacity:1;fill-opacity:1"
       d="m 330,142.36218 40,-10 30,-30 0,40 20,40 -30,30 -40,10 -20,-40 0,-40"
       id="path3844"
       inkscape:connector-curvature="0" />
    <path
       style="fill:none;stroke:#000000;stroke-width:1px;stroke-linecap:butt;stroke-linejoin:miter;stroke-opacity:1"
       d="m 400,142.36218 -40,10 -30,30"
       id="path3846"
       inkscape:connector-curvature="0" />
    <path
       style="fill:none;stroke:#000000;stroke-width:1px;stroke-linecap:butt;stroke-linejoin:miter;stroke-opacity:1"
       d="m 390,212.36218 0,-40 -20,-40"
       id="path3848"
       inkscape:connector-curvature="0" />
    <text
       xml:space="preserve"
       style="font-size:28px;font-style:normal;font-weight:normal;text-align:center;line-height:125%;letter-spacing:0px;word-spacing:0px;text-anchor:middle;fill:#000000;fill-opacity:1;stroke:none;font-family:Sans"
       x="189.27904"
       y="212.66486"
       id="text3850"
       sodipodi:linespacing="125%"><tspan
         sodipodi:role="line"
         id="tspan3852"
         x="189.27904"
         y="212.66486">1</tspan></text>
    <text
       xml:space="preserve"
       style="font-size:28px;font-style:normal;font-weight:normal;text-align:center;line-height:125%;letter-spacing:0px;word-spacing:0px;text-anchor:middle;fill:#000000;fill-opacity:1;stroke:none;font-family:Sans"
       x="440"
       y="212.36218"
       id="text3850-3"
       sodipodi:linespacing="125%"><tspan
         sodipodi:role="line"
         id="tspan3852-6"
         x="440"
         y="212.36218">2</tspan></text>
    <text
       xml:space="preserve"
       style="font-size:28px;font-style:normal;font-weight:normal;text-align:center;line-height:125%;letter-spacing:0px;word-spacing:0px;text-anchor:middle;fill:#000000;fill-opacity:1;stroke:none;font-family:Sans"
       x="680"
       y="212.36218"
       id="text3850-3-7"
       sodipodi:linespacing="125%"><tspan
         sodipodi:role="line"
         id="tspan3852-6-5"
         x="680"
         y="212.36218">3</tspan></text>
    <text
       xml:space="preserve"
       style="font-size:28px;font-style:normal;font-weight:normal;text-align:center;line-height:125%;letter-spacing:0px;word-spacing:0px;text-anchor:middle;fill:#000000;fill-opacity:1;stroke:none;font-family:Sans"
       x="200"
       y="462.36218"
       id="text3896"
       sodipodi:linespacing="125%"><tspan
         sodipodi:role="line"
         id="tspan3898"
         x="200"
         y="462.36218">3</tspan></text>
    <path
       style="fill:none;stroke:#000000;stroke-width:1px;stroke-linecap:butt;stroke-linejoin:miter;stroke-opacity:1"
       d="m 130,382.36218 20,40 0,40"
       id="path3900"
       inkscape:connector-curvature="0" />
    <path
       style="fill:none;stroke:#000000;stroke-width:1px;stroke-linecap:butt;stroke-linejoin:miter;stroke-opacity:1"
       d="m 90,392.36218 0,40 20,40"
       id="path3902"
       inkscape:connector-curvature="0" />
    <path
       style="fill:none;stroke:#000000;stroke-width:1px;stroke-linecap:butt;stroke-linejoin:miter;stroke-opacity:1"
       d="m 70,422.36218 40,-10 40,10"
       id="path3904"
       inkscape:connector-curvature="0" />
    <path
       style="fill:none;stroke:#000000;stroke-width:1px;stroke-linecap:butt;stroke-linejoin:miter;stroke-opacity:1"
       d="m 90,432.36218 30,-30 40,-10"
       id="path3906"
       inkscape:connector-curvature="0" />
    <path
       style="fill:#ff7f00;stroke:#000000;stroke-width:1px;stroke-linecap:butt;stroke-linejoin:miter;stroke-opacity:1;fill-opacity:1"
       d="m 350,272.36218 40,10 30,30 -40,10 -40,-10 -30,-30 z"
       id="path3908"
       inkscape:connector-curvature="0" />
    <path
       style="fill:#ff7f00;stroke:#000000;stroke-width:1px;stroke-linecap:butt;stroke-linejoin:miter;stroke-opacity:1;fill-opacity:1"
       d="m 420,312.36218 20,40 0,40 -20,40 -20,-40 0,-40 z"
       id="path3910"
       inkscape:connector-curvature="0" />
    <path
       style="fill:none;stroke:#000000;stroke-width:1px;stroke-linecap:butt;stroke-linejoin:miter;stroke-opacity:1"
       d="m 340,312.36218 40,10 40,-10 -20,40 -40,-10 -40,10 z"
       id="path3912"
       inkscape:connector-curvature="0" />
    <path
       style="fill:none;stroke:#000000;stroke-width:1px;stroke-linecap:butt;stroke-linejoin:miter;stroke-opacity:1"
       d="m 310,282.36218 -30,30 -20,40 30,30 30,-30 20,-40 z"
       id="path3914"
       inkscape:connector-curvature="0"
       sodipodi:nodetypes="ccccccc" />
    <path
       style="fill:#ff7f00;stroke:#000000;stroke-width:1px;stroke-linecap:butt;stroke-linejoin:miter;stroke-opacity:1;fill-opacity:1"
       d="m 260,352.36218 30,30 20,40 0,40 -30,-30 -20,-40 z"
       id="path3916"
       inkscape:connector-curvature="0"
       sodipodi:nodetypes="ccccccc" />
    <path
       style="fill:#ff7f00;stroke:#000000;stroke-width:1px;stroke-linecap:butt;stroke-linejoin:miter;stroke-opacity:1;fill-opacity:1"
       d="m 310,462.36218 40,10 40,-10 30,-30 -40,-10 -40,10 z"
       id="path3918"
       inkscape:connector-curvature="0" />
    <path
       style="fill:#c8c8c8;stroke:#000000;stroke-width:1px;stroke-linecap:butt;stroke-linejoin:miter;stroke-opacity:1;fill-opacity:1"
       d="m 290,382.36218 30,-30 40,-10 40,10 0,40 20,40 -40,-10 -40,10 -30,30 0,-40 -20,-40"
       id="path3920"
       inkscape:connector-curvature="0" />
    <path
       style="fill:none;stroke:#000000;stroke-width:1px;stroke-linecap:butt;stroke-linejoin:miter;stroke-opacity:1"
       d="m 320,352.36218 0,40 20,40"
       id="path3922"
       inkscape:connector-curvature="0" />
    <path
       style="fill:none;stroke:#000000;stroke-width:1px;stroke-linecap:butt;stroke-linejoin:miter;stroke-opacity:1"
       d="m 380,422.36218 0,-40 -20,-40"
       id="path3924"
       inkscape:connector-curvature="0" />
    <path
       style="fill:none;stroke:#000000;stroke-width:1px;stroke-linecap:butt;stroke-linejoin:miter;stroke-opacity:1"
       d="m 310,422.36218 40,-10 30,-30"
       id="path3926"
       inkscape:connector-curvature="0" />
    <path
       style="fill:none;stroke:#000000;stroke-width:1px;stroke-linecap:butt;stroke-linejoin:miter;stroke-opacity:1"
       d="m 400,392.36218 -40,10 -40,-10"
       id="path3928"
       inkscape:connector-curvature="0" />
    <text
       xml:space="preserve"
       style="font-size:28px;font-style:normal;font-weight:normal;text-align:center;line-height:125%;letter-spacing:0px;word-spacing:0px;text-anchor:middle;fill:#000000;fill-opacity:1;stroke:none;font-family:Sans"
       x="450"
       y="462.36218"
       id="text3896-3"
       sodipodi:linespacing="125%"><tspan
         sodipodi:role="line"
         id="tspan3898-5"
         x="450"
         y="462.36218">3</tspan></text>
    <path
       style="fill:#ff7f00;stroke:#000000;stroke-width:1px;stroke-linecap:butt;stroke-linejoin:miter;stroke-opacity:1;fill-opacity:1"
       d="m 500,352.36218 20,-40 30,-30 40,-10 -20,40 -30,30 z"
       id="path3951"
       inkscape:connector-curvature="0" />
    <path
       style="fill:#ff7f00;stroke:#000000;stroke-width:1px;stroke-linecap:butt;stroke-linejoin:miter;stroke-opacity:1;fill-opacity:1"
       d="m 500,352.36218 40,-10 40,10 30,30 -40,10 -40,-10 z"
       id="path3953"
       inkscape:connector-curvature="0" />
    <path
       style="fill:#ff7f00;stroke:#000000;stroke-width:1px;stroke-linecap:butt;stroke-linejoin:miter;stroke-opacity:1;fill-opacity:1"
       d="m 500,352.36218 30,30 20,40 0,40 -30,-30 -20,-40 z"
       id="path3955"
       inkscape:connector-curvature="0" />
    <path
       style="fill:#dedede;stroke:#000000;stroke-width:1px;stroke-linecap:butt;stroke-linejoin:miter;stroke-opacity:1;fill-opacity:1"
       d="m 540,342.36218 30,-30 20,-40 40,10 30,30 -20,40 -30,30 -30,-30 z"
       id="path3957"
       inkscape:connector-curvature="0" />
    <path
       style="fill:#dedede;stroke:#000000;stroke-width:1px;stroke-linecap:butt;stroke-linejoin:miter;stroke-opacity:1;fill-opacity:1"
       d="m 530,382.36218 40,10 40,-10 20,40 0,40 -40,10 -40,-10 0,-40 z"
       id="path3959"
       inkscape:connector-curvature="0" />
    <path
       style="fill:#ff7f00;stroke:#000000;stroke-width:1px;stroke-linecap:butt;stroke-linejoin:miter;stroke-opacity:1;fill-opacity:1"
       d="m 660,312.36218 20,40 0,40 -20,40 -20,-40 0,-40 z"
       id="path3961"
       inkscape:connector-curvature="0" />
    <path
       style="fill:none;stroke:#000000;stroke-width:1px;stroke-linecap:butt;stroke-linejoin:miter;stroke-opacity:1"
       d="m 610,382.36218 30,-30 0,40 20,40 -30,30 0,-40 z"
       id="path3963"
       inkscape:connector-curvature="0" />
    <path
       style="fill:none;stroke:#000000;stroke-width:1px;stroke-linecap:butt;stroke-linejoin:miter;stroke-opacity:1"
       d="m 550,422.36218 40,-10 40,10"
       id="path3965"
       inkscape:connector-curvature="0" />
    <path
       style="fill:none;stroke:#000000;stroke-width:1px;stroke-linecap:butt;stroke-linejoin:miter;stroke-opacity:1"
       d="m 570,392.36218 0,40 20,40"
       id="path3967"
       inkscape:connector-curvature="0" />
    <path
       style="fill:none;stroke:#000000;stroke-width:1px;stroke-linecap:butt;stroke-linejoin:miter;stroke-opacity:1"
       d="m 580,352.36218 20,-40 30,-30"
       id="path3969"
       inkscape:connector-curvature="0" />
    <path
       style="fill:none;stroke:#000000;stroke-width:1px;stroke-linecap:butt;stroke-linejoin:miter;stroke-opacity:1"
       d="m 570,312.36218 30,30 40,10"
       id="path3971"
       inkscape:connector-curvature="0" />
    <text
       xml:space="preserve"
       style="font-size:28px;font-style:normal;font-weight:normal;text-align:center;line-height:125%;letter-spacing:0px;word-spacing:0px;text-anchor:middle;fill:#000000;fill-opacity:1;stroke:none;font-family:Sans"
       x="680"
       y="462.36218"
       id="text3896-3-6"
       sodipodi:linespacing="125%"><tspan
         sodipodi:role="line"
         id="tspan3898-5-2"
         x="680"
         y="462.36218">4</tspan></text>
    <text
       xml:space="preserve"
       style="font-size:10px;font-style:normal;font-weight:normal;text-align:center;line-height:125%;letter-spacing:0px;word-spacing:0px;text-anchor:middle;fill:#000000;fill-opacity:1;stroke:none;font-family:Sans"
       x="683.30463"
       y="495.48718"
       id="text3994"
       sodipodi:linespacing="125%"><tspan
         sodipodi:role="line"
         id="tspan3996"
         x="683.30463"
         y="495.48718" /></text>
    <text
       xml:space="preserve"
       style="font-size:16px;font-style:normal;font-weight:normal;text-align:center;line-height:125%;letter-spacing:0px;word-spacing:0px;text-anchor:middle;fill:#000000;fill-opacity:1;stroke:none;font-family:Sans"
       x="95.600349"
       y="52.434223"
       id="text3998"
       sodipodi:linespacing="125%"><tspan
         sodipodi:role="line"
         id="tspan4000"
         x="95.600349"
         y="52.434223">D</tspan></text>
    <text
       xml:space="preserve"
       style="font-size:16px;font-style:normal;font-weight:normal;text-align:center;line-height:125%;letter-spacing:0px;word-spacing:0px;text-anchor:middle;fill:#000000;fill-opacity:1;stroke:none;font-family:Sans"
       x="72.029808"
       y="88.238251"
       id="text3998-9"
       sodipodi:linespacing="125%"><tspan
         sodipodi:role="line"
         id="tspan4000-1"
         x="72.029808"
         y="88.238251">E</tspan></text>
    <text
       xml:space="preserve"
       style="font-size:16px;font-style:normal;font-weight:normal;text-align:center;line-height:125%;letter-spacing:0px;word-spacing:0px;text-anchor:middle;fill:#000000;fill-opacity:1;stroke:none;font-family:Sans"
       x="140.24194"
       y="88.238251"
       id="text3998-2"
       sodipodi:linespacing="125%"><tspan
         sodipodi:role="line"
         id="tspan4000-7"
         x="140.24194"
         y="88.238251">F</tspan></text>
    <text
       xml:space="preserve"
       style="font-size:16px;font-style:normal;font-weight:normal;text-align:center;line-height:125%;letter-spacing:0px;word-spacing:0px;text-anchor:middle;fill:#000000;fill-opacity:1;stroke:none;font-family:Sans"
       x="112.54429"
       y="245.55118"
       id="text4036"
       sodipodi:linespacing="125%"><tspan
         sodipodi:role="line"
         id="tspan4038"
         x="112.54429"
         y="245.55118">4D + 3E + 2F</tspan></text>
    <path
       style="fill:none;stroke:#000000;stroke-width:1px;stroke-linecap:butt;stroke-linejoin:miter;stroke-opacity:1"
       d="m 20,522.36218 700,0"
       id="path4040"
       inkscape:connector-curvature="0"
       sodipodi:nodetypes="cc" />
    <path
       style="fill:none;stroke:#000000;stroke-width:1px;stroke-linecap:butt;stroke-linejoin:miter;stroke-opacity:1"
       d="m 110,562.36218 30,30 40,10 -30,30 -30,-30 -40,-10 z"
       id="path4042"
       inkscape:connector-curvature="0" />
    <path
       style="fill:#ff7f00;stroke:#000000;stroke-width:1px;stroke-linecap:butt;stroke-linejoin:miter;stroke-opacity:1;fill-opacity:1"
       d="m 80,592.36218 40,10 30,30 -40,10 -40,-10 -30,-30 z"
       id="path4044"
       inkscape:connector-curvature="0" />
    <path
       style="fill:#ff7f00;stroke:#000000;stroke-width:1px;stroke-linecap:butt;stroke-linejoin:miter;stroke-opacity:1;fill-opacity:1"
       d="m 40,602.36218 30,30 20,40 0,40 -30,-30 -20,-40 z"
       id="path4046"
       inkscape:connector-curvature="0"
       sodipodi:nodetypes="ccccccc" />
    <path
       style="fill:none;stroke:#000000;stroke-width:1px;stroke-linecap:butt;stroke-linejoin:miter;stroke-opacity:1"
       d="m 40,642.36218 20,40 30,30 -20,40 -20,-40 -30,-30 z"
       id="path4048"
       inkscape:connector-curvature="0" />
    <path
       style="fill:#c8c8c8;stroke:#000000;stroke-width:1px;stroke-linecap:butt;stroke-linejoin:miter;stroke-opacity:1;fill-opacity:1"
       d="m 70,752.36218 40,-10 40,10 20,-40 0,-40 -20,-40 -40,10 -40,-10 20,40 0,40 z"
       id="path4050"
       inkscape:connector-curvature="0" />
    <path
       style="fill:none;stroke:#000000;stroke-width:1px;stroke-linecap:butt;stroke-linejoin:miter;stroke-opacity:1"
       d="m 180,602.36218 0,40 20,40 -30,30 0,-40 -20,-40 z"
       id="path4052"
       inkscape:connector-curvature="0" />
    <path
       style="fill:none;stroke:#000000;stroke-width:1px;stroke-linecap:butt;stroke-linejoin:miter;stroke-opacity:1"
       d="m 90,672.36218 40,-10 40,10"
       id="path4054"
       inkscape:connector-curvature="0" />
    <path
       style="fill:none;stroke:#000000;stroke-width:1px;stroke-linecap:butt;stroke-linejoin:miter;stroke-opacity:1"
       d="m 90,712.36218 40,10 40,-10"
       id="path4056"
       inkscape:connector-curvature="0" />
    <path
       style="fill:none;stroke:#000000;stroke-width:1px;stroke-linecap:butt;stroke-linejoin:miter;stroke-opacity:1"
       d="m 110,742.36218 0,-40 20,-40"
       id="path4058"
       inkscape:connector-curvature="0" />
    <path
       style="fill:none;stroke:#000000;stroke-width:1px;stroke-linecap:butt;stroke-linejoin:miter;stroke-opacity:1"
       d="m 110,642.36218 0,40 20,40"
       id="path4060"
       inkscape:connector-curvature="0" />
    <text
       xml:space="preserve"
       style="font-size:28px;font-style:normal;font-weight:normal;text-align:center;line-height:125%;letter-spacing:0px;word-spacing:0px;text-anchor:middle;fill:#000000;fill-opacity:1;stroke:none;font-family:Sans"
       x="190"
       y="772.36218"
       id="text3896-0"
       sodipodi:linespacing="125%"><tspan
         sodipodi:role="line"
         id="tspan3898-9"
         x="190"
         y="772.36218">3</tspan></text>
    <path
       style="fill:none;stroke:#000000;stroke-width:1px;stroke-linecap:butt;stroke-linejoin:miter;stroke-opacity:1"
       d="m 350,562.36218 -30,30 -40,10 30,30 30,-30 40,-10 z"
       id="path4083"
       inkscape:connector-curvature="0" />
    <path
       style="fill:none;stroke:#000000;stroke-width:1px;stroke-linecap:butt;stroke-linejoin:miter;stroke-opacity:1"
       d="m 280,602.36218 0,40 -20,40 30,30 0,-40 20,-40 z"
       id="path4085"
       inkscape:connector-curvature="0" />
    <path
       style="fill:#ff7f00;stroke:#000000;stroke-width:1px;stroke-linecap:butt;stroke-linejoin:miter;stroke-opacity:1;fill-opacity:1"
       d="m 310,632.36218 20,40 0,40 -20,40 -20,-40 0,-40 z"
       id="path4087"
       inkscape:connector-curvature="0" />
    <path
       style="fill:#ff7f00;stroke:#000000;stroke-width:1px;stroke-linecap:butt;stroke-linejoin:miter;stroke-opacity:1;fill-opacity:1"
       d="m 310,632.36218 30,-30 40,-10 40,10 -30,30 -40,10 -40,-10"
       id="path4089"
       inkscape:connector-curvature="0" />
    <path
       style="fill:#c8c8c8;stroke:#000000;stroke-width:1px;stroke-linecap:butt;stroke-linejoin:miter;stroke-opacity:1;fill-opacity:1"
       d="m 390,632.36218 20,40 0,40 -20,40 -40,-10 -40,10 20,-40 0,-40 -20,-40 40,10 z"
       id="path4091"
       inkscape:connector-curvature="0" />
    <path
       style="fill:none;stroke:#000000;stroke-width:1px;stroke-linecap:butt;stroke-linejoin:miter;stroke-opacity:1"
       d="m 420,602.36218 0,40 20,40 -30,30 0,-40 -20,-40 z"
       id="path4093"
       inkscape:connector-curvature="0" />
    <text
       xml:space="preserve"
       style="font-size:16px;font-style:normal;font-weight:normal;text-align:center;line-height:125%;letter-spacing:0px;word-spacing:0px;text-anchor:middle;fill:#000000;fill-opacity:1;stroke:none;font-family:Sans"
       x="100"
       y="812.36218"
       id="text4036-3"
       sodipodi:linespacing="125%"><tspan
         sodipodi:role="line"
         id="tspan4038-6"
         x="100"
         y="812.36218">2D + 5E + F</tspan></text>
    <path
       style="fill:none;stroke:#000000;stroke-width:1px;stroke-linecap:butt;stroke-linejoin:miter;stroke-opacity:1"
       d="m 330,672.36218 40,-10 40,10"
       id="path4116"
       inkscape:connector-curvature="0" />
    <path
       style="fill:none;stroke:#000000;stroke-width:1px;stroke-linecap:butt;stroke-linejoin:miter;stroke-opacity:1"
       d="m 370,662.36218 -20,40 0,40"
       id="path4118"
       inkscape:connector-curvature="0" />
    <path
       style="fill:none;stroke:#000000;stroke-width:1px;stroke-linecap:butt;stroke-linejoin:miter;stroke-opacity:1"
       d="m 330,712.36218 40,10 40,-10"
       id="path4120"
       inkscape:connector-curvature="0" />
    <path
       style="fill:none;stroke:#000000;stroke-width:1px;stroke-linecap:butt;stroke-linejoin:miter;stroke-opacity:1"
       d="m 370,722.36218 -20,-40 0,-40"
       id="path4122"
       inkscape:connector-curvature="0" />
    <text
       xml:space="preserve"
       style="font-size:28px;font-style:normal;font-weight:normal;text-align:center;line-height:125%;letter-spacing:0px;word-spacing:0px;text-anchor:middle;fill:#000000;fill-opacity:1;stroke:none;font-family:Sans"
       x="440"
       y="772.36218"
       id="text3896-0-0"
       sodipodi:linespacing="125%"><tspan
         sodipodi:role="line"
         id="tspan3898-9-6"
         x="440"
         y="772.36218">3</tspan></text>
    <path
       style="fill:none;stroke:#000000;stroke-width:1px;stroke-linecap:butt;stroke-linejoin:miter;stroke-opacity:1"
       d="m 590,562.36218 -30,30 -40,10 30,30 30,-30 40,-10 z"
       id="path4083-2"
       inkscape:connector-curvature="0" />
    <path
       style="fill:#ff7f00;stroke:#000000;stroke-width:1px;stroke-linecap:butt;stroke-linejoin:miter;stroke-opacity:1;fill-opacity:1"
       d="m 550,632.36218 30,-30 40,-10 40,10 -30,30 -40,10 z"
       id="path4163"
       inkscape:connector-curvature="0" />
    <path
       style="fill:#ff7f00;stroke:#000000;stroke-width:1px;stroke-linecap:butt;stroke-linejoin:miter;stroke-opacity:1;fill-opacity:1"
       d="m 520,602.36218 30,30 20,40 0,40 -30,-30 -20,-40 0,-40"
       id="path4165"
       inkscape:connector-curvature="0" />
    <path
       style="fill:none;stroke:#000000;stroke-width:1px;stroke-linecap:butt;stroke-linejoin:miter;stroke-opacity:1"
       d="m 520,642.36218 20,40 30,30 -20,40 -20,-40 -30,-30 20,-40"
       id="path4167"
       inkscape:connector-curvature="0" />
    <path
       style="fill:#c8c8c8;stroke:#000000;stroke-width:1px;stroke-linecap:butt;stroke-linejoin:miter;stroke-opacity:1;fill-opacity:1"
       d="m 550,752.36218 40,-10 40,10 20,-40 30,-30 -20,-40 0,-40 -30,30 -40,10 -40,-10 20,40 0,40 z"
       id="path4169"
       inkscape:connector-curvature="0" />
    <text
       xml:space="preserve"
       style="font-size:28px;font-style:normal;font-weight:normal;text-align:center;line-height:125%;letter-spacing:0px;word-spacing:0px;text-anchor:middle;fill:#000000;fill-opacity:1;stroke:none;font-family:Sans"
       x="680"
       y="772.36218"
       id="text3896-3-61"
       sodipodi:linespacing="125%"><tspan
         sodipodi:role="line"
         id="tspan3898-5-8"
         x="680"
         y="772.36218">6</tspan></text>
    <text
       xml:space="preserve"
       style="font-size:16px;font-style:normal;font-weight:normal;text-align:center;line-height:125%;letter-spacing:0px;word-spacing:0px;text-anchor:middle;fill:#000000;fill-opacity:1;stroke:none;font-family:Sans"
       x="493.19888"
       y="810.91815"
       id="text4192"
       sodipodi:linespacing="125%"><tspan
         sodipodi:role="line"
         id="tspan4194"
         x="493.19888"
         y="810.91815" /></text>
    <path
       style="fill:none;stroke:#000000;stroke-width:1px;stroke-linecap:butt;stroke-linejoin:miter;stroke-opacity:1"
       d="m 650,712.36218 0,-40 -20,-40"
       id="path4196"
       inkscape:connector-curvature="0"
       sodipodi:nodetypes="ccc" />
    <path
       style="fill:none;stroke:#000000;stroke-width:1px;stroke-linecap:butt;stroke-linejoin:miter;stroke-opacity:1"
       d="m 570,672.36218 40,-10 40,10"
       id="path4198"
       inkscape:connector-curvature="0" />
    <path
       style="fill:none;stroke:#000000;stroke-width:1px;stroke-linecap:butt;stroke-linejoin:miter;stroke-opacity:1"
       d="m 590,642.36218 0,40 20,40 40,-10"
       id="path4200"
       inkscape:connector-curvature="0" />
    <path
       style="fill:none;stroke:#000000;stroke-width:1px;stroke-linecap:butt;stroke-linejoin:miter;stroke-opacity:1"
       d="m 610,722.36218 -40,-10"
       id="path4202"
       inkscape:connector-curvature="0" />
    <path
       style="fill:none;stroke:#000000;stroke-width:1px;stroke-linecap:butt;stroke-linejoin:miter;stroke-opacity:1"
       d="m 610,662.36218 -20,40 0,40"
       id="path4204"
       inkscape:connector-curvature="0" />
    <path
       style="fill:none;stroke:#000000;stroke-width:1px;stroke-linecap:butt;stroke-linejoin:miter;stroke-opacity:1"
       d="m 660,642.36218 -40,10 -30,30"
       id="path4206"
       inkscape:connector-curvature="0" />
  </g>
</svg>
