<?xml version="1.0" encoding="UTF-8" standalone="no"?>
<!-- Created with Inkscape (http://www.inkscape.org/) -->

<svg
   xmlns:dc="http://purl.org/dc/elements/1.1/"
   xmlns:cc="http://creativecommons.org/ns#"
   xmlns:rdf="http://www.w3.org/1999/02/22-rdf-syntax-ns#"
   xmlns:svg="http://www.w3.org/2000/svg"
   xmlns="http://www.w3.org/2000/svg"
   xmlns:sodipodi="http://sodipodi.sourceforge.net/DTD/sodipodi-0.dtd"
   xmlns:inkscape="http://www.inkscape.org/namespaces/inkscape"
   width="210mm"
   height="297mm"
   viewBox="0 0 744.09448819 1052.3622047"
   id="svg4312"
   version="1.1"
   inkscape:version="0.91 r13725"
   sodipodi:docname="9.svg">
  <defs
     id="defs4314" />
  <sodipodi:namedview
     id="base"
     pagecolor="#ffffff"
     bordercolor="#666666"
     borderopacity="1.0"
     inkscape:pageopacity="0.0"
     inkscape:pageshadow="2"
     inkscape:zoom="1.1407699"
     inkscape:cx="-90"
     inkscape:cy="549.93597"
     inkscape:document-units="px"
     inkscape:current-layer="layer1"
     showgrid="true"
     inkscape:object-paths="false"
     inkscape:object-nodes="true"
     inkscape:window-width="1863"
     inkscape:window-height="1056"
     inkscape:window-x="57"
     inkscape:window-y="24"
     inkscape:window-maximized="1">
    <inkscape:grid
       type="xygrid"
       id="grid4860" />
  </sodipodi:namedview>
  <metadata
     id="metadata4317">
    <rdf:RDF>
      <cc:Work
         rdf:about="">
        <dc:format>image/svg+xml</dc:format>
        <dc:type
           rdf:resource="http://purl.org/dc/dcmitype/StillImage" />
        <dc:title />
      </cc:Work>
    </rdf:RDF>
  </metadata>
  <g
     inkscape:label="Layer 1"
     inkscape:groupmode="layer"
     id="layer1">
    <path
       style="fill:none;fill-opacity:1;fill-rule:evenodd;stroke:#000000;stroke-width:1px;stroke-linecap:butt;stroke-linejoin:miter;stroke-opacity:1"
       d="m 490,212.3622 20,50 45,-25 -20,50 50,10 -45,25 30,35 -50,-10 0,50 -30,-35 -30,35 0,-50 -50,10 30,-35 -45,-25 50,-10 -20,-50 45,25 z"
       id="path5367"
       inkscape:connector-curvature="0"
       sodipodi:nodetypes="ccccccccccccccccccc" />
    <path
       style="fill:#00ff00;fill-opacity:0.40880504;fill-rule:evenodd;stroke:#00af00;stroke-width:1px;stroke-linecap:butt;stroke-linejoin:miter;stroke-opacity:1"
       d="m -265,477.3622 30,-35 45,-25 50,-10 50,10 45,25 30,35 20,50 0,50 -20,50 -30,35 -45,25 -50,10 -50,-10 -45,-25 -30,-35 -20,-50 0,-50 z"
       id="path5458"
       inkscape:connector-curvature="0" />
    <path
       style="fill:#00ff00;fill-opacity:0.40880504;fill-rule:evenodd;stroke:#00af00;stroke-width:1px;stroke-linecap:butt;stroke-linejoin:miter;stroke-opacity:1"
       d="m -360,272.36221 30,-34.99999 45,-24.99999 50,-10 50,10 45,24.99999 30,34.99999 20,49.99999 0,50 -20,50 -30,35 -45,25 -50,10 -50,-10 -45,-25 -30,-35 -20,-50 0,-50 z"
       id="path5458-7"
       inkscape:connector-curvature="0" />
    <path
       style="fill:#ffc8ff;fill-rule:evenodd;stroke:#000000;stroke-width:1px;stroke-linecap:butt;stroke-linejoin:miter;stroke-opacity:1;fill-opacity:1"
       d="m 585,567.3622 45,-25 30,-35 20,-50 0,-50 -20,-50 -30,-35 -45,-25 -45,25 30,35 20,50 0,50 -20,50 -30,35 z"
       id="path5475"
       inkscape:connector-curvature="0"
       sodipodi:nodetypes="ccccccccccccccc" />
    <path
       style="fill:none;fill-rule:evenodd;stroke:#000000;stroke-width:1px;stroke-linecap:butt;stroke-linejoin:miter;stroke-opacity:1"
       d="m 680,457.3622 50,-10 20,-50 0,-50 -20,-50 -30,-35 -45,-25 -50,-10 -50,10 -20,50 50,10 45,25 30,35 20,50 z"
       id="path5477"
       inkscape:connector-curvature="0" />
    <path
       style="fill:none;fill-rule:evenodd;stroke:#000000;stroke-width:1px;stroke-linecap:butt;stroke-linejoin:miter;stroke-opacity:1"
       d="m 510,262.3622 45,-25 50,-10 50,10 45,25 30,35 30,-35 -20,-50 -30,-35 -45,-25 -50,-10 -50,10 -45,25 -30,35 z"
       id="path5494"
       inkscape:connector-curvature="0" />
    <path
       style="fill:none;fill-rule:evenodd;stroke:#000000;stroke-width:1px;stroke-linecap:butt;stroke-linejoin:miter;stroke-opacity:1"
       d="m 470,262.3622 20,-50 30,-35 45,-25 50,-10 50,10 0,-50 -45,-24.999995 -50,-10 -50,10 -45,24.999995 -30,35 -20,50 0,50 z"
       id="path5496"
       inkscape:connector-curvature="0" />
    <path
       style="fill:#87ffff;fill-rule:evenodd;stroke:#000000;stroke-width:1px;stroke-linecap:butt;stroke-linejoin:miter;stroke-opacity:1;fill-opacity:1"
       d="m 395,297.3622 50,-10 -20,-50 0,-50 20,-50 30,-35 45,-24.999995 -30,-35 -50,10 -45,25 -30,34.999995 -20,50 0,50 20,50 z"
       id="path5498"
       inkscape:connector-curvature="0" />
    <path
       style="fill:none;fill-rule:evenodd;stroke:#000000;stroke-width:1px;stroke-linecap:butt;stroke-linejoin:miter;stroke-opacity:1"
       d="m 410,357.3622 30,-35 -45,-25 -30,-35 -20,-50 0,-50 20,-50 -50,-10 -30,35 -20,50 0,50 20,50 30,35 45,25 z"
       id="path5500"
       inkscape:connector-curvature="0" />
    <path
       style="fill:none;fill-rule:evenodd;stroke:#000000;stroke-width:1px;stroke-linecap:butt;stroke-linejoin:miter;stroke-opacity:1"
       d="m 460,397.3622 0,-50 -50,10 -50,-10 -45,-25 -30,-35 -20,-50 -45,25 0,50 20,50 30,35 45,25 50,10 50,-10 z"
       id="path5502"
       inkscape:connector-curvature="0" />
    <path
       style="fill:none;fill-rule:evenodd;stroke:#000000;stroke-width:1px;stroke-linecap:butt;stroke-linejoin:miter;stroke-opacity:1"
       d="m 520,397.3622 -30,-35 -30,35 -45,25 -50,10 -50,-10 -45,-25 -20,50 30,35 45,25 50,10 50,-10 45,-25 30,-35 z"
       id="path5504"
       inkscape:connector-curvature="0" />
    <path
       style="fill:#ffc864;fill-rule:evenodd;stroke:#000000;stroke-width:1px;stroke-linecap:butt;stroke-linejoin:miter;stroke-opacity:1;fill-opacity:1"
       d="m 520,347.3622 50,10 20,50 0,50 -20,50 -30,35 -45,25 -50,10 -50,-10 -20,-50 50,-10 45,-25 30,-35 20,-50 0,-50"
       id="path5506"
       inkscape:connector-curvature="0" />
    <path
       style="fill:#ffc864;fill-opacity:1;fill-rule:evenodd;stroke:#000000;stroke-width:1px;stroke-linecap:butt;stroke-linejoin:miter;stroke-opacity:1"
       d="m 325,507.36221 50,9.99999 20,50 0,50 -20,50 -30,35 -45,25 -50,10 -50,-10 -20,-50 50,-10 45,-25 30,-35 20,-50 0,-49.99999"
       id="path5506-6"
       inkscape:connector-curvature="0" />
    <path
       style="fill:#ffc8ff;fill-opacity:1;fill-rule:evenodd;stroke:#000000;stroke-width:1px;stroke-linecap:butt;stroke-linejoin:miter;stroke-opacity:1"
       d="m 540,812.3622 45,-25 30,-35 20,-50 0,-50 -20,-50 -30,-35 -45,-25 -45,25 30,35 20,50 0,50 -20,50 -30,35 z"
       id="path5475-7"
       inkscape:connector-curvature="0"
       sodipodi:nodetypes="ccccccccccccccc" />
    <path
       style="fill:#ffc864;fill-opacity:1;fill-rule:evenodd;stroke:#000000;stroke-width:1px;stroke-linecap:butt;stroke-linejoin:miter;stroke-opacity:1"
       d="m 395,567.36221 50,9.99999 20,50 0,50 -20,50 -30,35 -45,25 -50,10 -50,-10 -20,-50 50,-10 45,-25 30,-35 20,-50 0,-49.99999"
       id="path5506-3"
       inkscape:connector-curvature="0" />
    <path
       style="fill:#ffc8ff;fill-opacity:1;fill-rule:evenodd;stroke:#000000;stroke-width:1px;stroke-linecap:butt;stroke-linejoin:miter;stroke-opacity:1"
       d="m 630,812.3622 45,-25 30,-35 20,-50 0,-50 -20,-50 -30,-35 -45,-25 -45,25 30,35 20,50 0,50 -20,50 -30,35 z"
       id="path5475-7-6"
       inkscape:connector-curvature="0"
       sodipodi:nodetypes="ccccccccccccccc" />
    <path
       style="fill:#87ffff;fill-opacity:1;fill-rule:evenodd;stroke:#000000;stroke-width:1px;stroke-linecap:butt;stroke-linejoin:miter;stroke-opacity:1"
       d="m 495,567.3622 -50,10 20,50 0,50 -20,49.99999 -30,35.00001 -45,24.99999 30,35 50,-10 45,-25 30,-34.99999 20,-50 0,-50 -20,-50 z"
       id="path5498-5"
       inkscape:connector-curvature="0" />
    <path
       style="fill:#ffc864;fill-opacity:1;fill-rule:evenodd;stroke:#000000;stroke-width:1px;stroke-linecap:butt;stroke-linejoin:miter;stroke-opacity:1"
       d="m 200,727.36222 50,9.99998 20,50 0,50 -20,50 -30,35 -45,25 -50,10 -50,-10 -20,-50 50,-10 45,-25 30,-35 20,-50 0,-49.99998"
       id="path5506-6-6"
       inkscape:connector-curvature="0" />
    <path
       style="fill:#ffc864;fill-opacity:1;fill-rule:evenodd;stroke:#000000;stroke-width:1px;stroke-linecap:butt;stroke-linejoin:miter;stroke-opacity:1"
       d="m 270,787.36222 50,9.99998 20,50 0,50 -20,50 -30,35 -45,25 -50,10 -50,-10 -20,-50 50,-10 45,-25 30,-35 20,-50 0,-49.99998"
       id="path5506-6-3"
       inkscape:connector-curvature="0" />
    <path
       style="fill:#87ffff;fill-opacity:1;fill-rule:evenodd;stroke:#000000;stroke-width:1px;stroke-linecap:butt;stroke-linejoin:miter;stroke-opacity:1"
       d="m 370,787.3622 -50,10 20,50 0,50 -20,49.99999 -30,35.00001 -45,25 30,35 50,-10 45,-25 30,-35 20,-50 0,-50 -20,-50 z"
       id="path5498-5-9"
       inkscape:connector-curvature="0" />
    <path
       style="fill:#87ffff;fill-opacity:1;fill-rule:evenodd;stroke:#000000;stroke-width:1px;stroke-linecap:butt;stroke-linejoin:miter;stroke-opacity:1"
       d="m 450,812.3622 -50,10 20,50 0,50 -20,49.99999 -30,35.00001 -45,25 30,35 50,-10 45,-25 30,-35 20,-50 0,-50 -20,-50 z"
       id="path5498-5-9-4"
       inkscape:connector-curvature="0" />
    <path
       style="fill:#ffc864;fill-opacity:1;fill-rule:evenodd;stroke:#000000;stroke-width:1px;stroke-linecap:butt;stroke-linejoin:miter;stroke-opacity:1"
       d="m 130,667.36223 50,9.99997 20,50 0,50 -20,50 -30,35 -45,25 -50,10 -50,-10 -20,-50 50,-10 45,-25 30,-35 20,-50 0,-49.99997"
       id="path5506-6-6-8"
       inkscape:connector-curvature="0" />
    <path
       style="fill:#ffc8ff;fill-opacity:1;fill-rule:evenodd;stroke:#000000;stroke-width:1px;stroke-linecap:butt;stroke-linejoin:miter;stroke-opacity:1"
       d="m 495,1057.3622 45,-25 30,-35 20,-50 0,-50 -20,-50 -30,-35 -45,-25 -45,25 30,35 20,50 0,50 -20,50 -30,35 z"
       id="path5475-7-1"
       inkscape:connector-curvature="0"
       sodipodi:nodetypes="ccccccccccccccc" />
    <path
       style="fill:#ffc8ff;fill-opacity:1;fill-rule:evenodd;stroke:#000000;stroke-width:1px;stroke-linecap:butt;stroke-linejoin:miter;stroke-opacity:1"
       d="m 585,1057.3622 45,-25 30,-35 20,-50 0,-50 -20,-50 -30,-35 -45,-25 -45,25 30,35 20,50 0,50 -20,50 -30,35 z"
       id="path5475-7-2"
       inkscape:connector-curvature="0"
       sodipodi:nodetypes="ccccccccccccccc" />
    <path
       style="fill:#ffc8ff;fill-opacity:1;fill-rule:evenodd;stroke:#000000;stroke-width:1px;stroke-linecap:butt;stroke-linejoin:miter;stroke-opacity:1"
       d="m 675,1057.3622 45,-25 30,-35 20,-50 0,-50 -20,-50 -30,-35 -45,-25 -45,25 30,35 20,50 0,50 -20,50 -30,35 z"
       id="path5475-7-9"
       inkscape:connector-curvature="0"
       sodipodi:nodetypes="ccccccccccccccc" />
    <path
       style="fill:#00ff00;fill-opacity:0.40880504;fill-rule:evenodd;stroke:#00af00;stroke-width:1px;stroke-linecap:butt;stroke-linejoin:miter;stroke-opacity:1"
       d="m -215,392.3622 30,-35 45,-25 50,-10 50,10 45,25 30,35 20,49.99999 0,50 -20,50 -30,35 -45,25 -50,10 -50,-10 -45,-25 -30,-35 -20,-50 0,-50 z"
       id="path5458-4"
       inkscape:connector-curvature="0" />
    <path
       style="fill:#00ff00;fill-opacity:0.40880504;fill-rule:evenodd;stroke:#00af00;stroke-width:1px;stroke-linecap:butt;stroke-linejoin:miter;stroke-opacity:1"
       d="m -310,357.3622 30,-35 45,-25 50,-10 50,10 45,25 30,35 20,49.99998 0,50 -20,50 -30,35 -45,25 -50,10 -50,-10 -45,-25 -30,-35 -20,-50 0,-50 z"
       id="path5458-4-4"
       inkscape:connector-curvature="0" />
    <path
       style="fill:#00ff00;fill-opacity:0.40880504;fill-rule:evenodd;stroke:#00af00;stroke-width:1px;stroke-linecap:butt;stroke-linejoin:miter;stroke-opacity:1"
       d="m -120,357.36221 30,-35 45,-25 50,-10 50,10 45,25 30,35 20,49.99999 0,50 -20,50 -30,35 -45,25 -50,10 -50,-10 -45,-25 -30,-35 -20,-50 0,-50 z"
       id="path5458-44"
       inkscape:connector-curvature="0" />
    <path
       style="fill:#00ff00;fill-opacity:0.40880504;fill-rule:evenodd;stroke:#00af00;stroke-width:1px;stroke-linecap:butt;stroke-linejoin:miter;stroke-opacity:1"
       d="m -245,577.3622 30,-35 45,-25 50,-10 50,10 45,25 30,35 20,49.99998 0,50 -20,50 -30,35 -45,25 -50,10 -50,-10 -45,-25 -30,-35 -20,-50 0,-50 z"
       id="path5458-44-7"
       inkscape:connector-curvature="0" />
  </g>
</svg>
