<?xml version="1.0" encoding="UTF-8" standalone="no"?>
<!-- Created with Inkscape (http://www.inkscape.org/) -->

<svg
   xmlns:dc="http://purl.org/dc/elements/1.1/"
   xmlns:cc="http://creativecommons.org/ns#"
   xmlns:rdf="http://www.w3.org/1999/02/22-rdf-syntax-ns#"
   xmlns:svg="http://www.w3.org/2000/svg"
   xmlns="http://www.w3.org/2000/svg"
   xmlns:sodipodi="http://sodipodi.sourceforge.net/DTD/sodipodi-0.dtd"
   xmlns:inkscape="http://www.inkscape.org/namespaces/inkscape"
   width="210mm"
   height="297mm"
   viewBox="0 0 744.09448819 1052.3622047"
   id="svg9589"
   version="1.1"
   inkscape:version="0.91 r13725"
   sodipodi:docname="stars7-161001.svg">
  <defs
     id="defs9591" />
  <sodipodi:namedview
     id="base"
     pagecolor="#ffffff"
     bordercolor="#666666"
     borderopacity="1.0"
     inkscape:pageopacity="0.0"
     inkscape:pageshadow="2"
     inkscape:zoom="0.61551138"
     inkscape:cx="1194.8971"
     inkscape:cy="364.57726"
     inkscape:document-units="px"
     inkscape:current-layer="layer1"
     showgrid="false"
     inkscape:window-width="1863"
     inkscape:window-height="1056"
     inkscape:window-x="57"
     inkscape:window-y="24"
     inkscape:window-maximized="1"
     inkscape:object-nodes="true"
     inkscape:object-paths="true"
     showborder="false">
    <inkscape:grid
       type="xygrid"
       id="grid10879" />
  </sodipodi:namedview>
  <metadata
     id="metadata9594">
    <rdf:RDF>
      <cc:Work
         rdf:about="">
        <dc:format>image/svg+xml</dc:format>
        <dc:type
           rdf:resource="http://purl.org/dc/dcmitype/StillImage" />
        <dc:title />
      </cc:Work>
    </rdf:RDF>
  </metadata>
  <g
     inkscape:label="Layer 1"
     inkscape:groupmode="layer"
     id="layer1">
    <path
       style="fill:#00c800;fill-opacity:1;fill-rule:evenodd;stroke:#000000;stroke-width:4;stroke-linecap:round;stroke-linejoin:round;stroke-miterlimit:4;stroke-dasharray:none;stroke-opacity:1"
       d="m 520,102.36221 40,9.9131 39.897,-9.9566 30,-25 30.0001,24.9999 40,10 19.9998,-34.9998 30.0001,-25 40,-10 20,35 30,24.9999 40,10 19.9999,-34.9999 30,-25 40.0001,-9.9999 19.9999,34.9999 30,25 -20,35.0001 -30,25.00001 -39.9999,9.9999 0,39.9999 -20,35.0002 -30,25 -30,-25.0001 -40,-9.9999 -40,10 -29.9999,24.9998 -20.0002,34.9997 0,40.0001 -30,-25 -39.9998,-9.9997 -40,10 -20,-35.0001 -29.9997,-25.0001 -30.0003,25.0002 -10e-5,-40 -39.9998,-10 30,-24.9999 -19.9998,-35.0003 -4e-4,-39.99981 z"
       id="path5774-1-90-85-3"
       inkscape:connector-curvature="0" />
    <path
       style="fill:#00ffff;fill-opacity:1;fill-rule:evenodd;stroke:#000000;stroke-width:4;stroke-linecap:round;stroke-linejoin:round;stroke-miterlimit:4;stroke-dasharray:none;stroke-opacity:1"
       d="m 1209.8973,492.31851 39.8971,-10.043 19.9999,34.9999 30,25 40.1028,10.0428 20.0003,-34.9997 29.9997,-25.0001 -19.9998,-34.9999 4e-4,-39.9998 19.9998,-35.0003 -29.9999,-24.9999 39.9997,-10 -30.0003,-25.0004 -39.9998,-9.9997 -40,10 -20.0001,-35 -29.9999,-25.0001 -30.0001,25.0002 -10e-5,-40 -39.9996,-10 29.9998,-24.9999 -19.9998,-35 -4e-4,-40.0001 20.0001,-35.0003 -29.8968,-24.9565 -20.0002,-34.9999 -39.9998,9.913 -30.0001,25.0001 -20.1028,35.0434 -40.0002,-9.9998 -19.99998,35.0001 -30,25 -39.9999,9.9999 0,39.9999 -20,35.0002 -1e-4,40.0001 20.0002,34.9997 29.9999,24.9998 40,10 39.99998,-9.9999 30,-25.0001 29.9999,25 20,35.0002 10e-5,40.0001 39.9998,9.9996 30,25 z"
       id="path6001-1-5-7-5-61-1"
       inkscape:connector-curvature="0" />
    <path
       style="fill:#00ffff;fill-opacity:1;fill-rule:evenodd;stroke:#000000;stroke-width:4;stroke-linecap:round;stroke-linejoin:round;stroke-miterlimit:4;stroke-dasharray:none;stroke-opacity:1"
       d="m 1029.8973,1372.3188 39.8971,-10.043 19.9999,34.9999 30,25 40.1028,10.0428 20.0003,-34.9997 29.9997,-25.0001 -19.9998,-34.9999 4e-4,-39.9998 19.9998,-35.0003 -29.9999,-24.9999 39.9997,-10 -30.0003,-25.0004 -39.9998,-9.9997 -40,10 -20.0001,-35 -29.9999,-25.0001 -30.0001,25.0002 -10e-5,-40 -39.9996,-10 29.9998,-24.9999 -19.9998,-35 -4e-4,-40.0001 20.0001,-35.00032 -29.8968,-24.9565 -20.0002,-34.9999 -39.9998,9.913 -30.0001,25.0001 -20.1028,35.0434 -40.0002,-9.9998 -20,35.00012 -30,25 -39.9999,9.9999 0,39.9999 -20,35.0002 -10e-5,40.0001 20.0002,34.9997 29.9999,24.9998 40,10 40,-9.9999 30,-25.0001 29.9999,25 20,35.0002 10e-5,40.0001 39.9998,9.9996 30,25 z"
       id="path6001-1-5-7-5-61"
       inkscape:connector-curvature="0" />
    <path
       style="fill:#00c8c8;fill-opacity:1;fill-rule:evenodd;stroke:#000000;stroke-width:4;stroke-linecap:round;stroke-linejoin:round;stroke-miterlimit:4;stroke-dasharray:none;stroke-opacity:1"
       d="m 1119.8974,542.31889 39.8971,10.043 19.9999,-34.9999 30,-24.99998 40.1028,-10.0428 20.0003,34.99968 29.9997,25.0001 -19.9998,34.9999 4e-4,39.9998 19.9998,35.0003 -29.9999,24.9999 39.9997,10 -30.0003,25.0004 -39.9998,9.9997 -40,-10 -20.0001,35 -29.9999,25.0001 -30.0001,-25.0002 -1e-4,40 -39.9996,10 29.9998,24.9999 -19.9998,35 -4e-4,40.0001 20.0001,35.00031 -29.8968,24.95653 -20.0002,34.99988 -39.9998,-9.913 -30.0001,-25.00007 -20.1028,-35.04345 -40.0002,9.99979 -20,-35.00009 -30,-25 -39.9999,-9.9999 0,-39.9999 -20,-35.0002 -10e-5,-40.0001 20.0002,-34.9997 29.9999,-24.9998 40,-10 40,9.9999 30,25.0001 29.9999,-25 20,-35.0002 10e-5,-40.0001 39.9998,-9.9996 30,-25 z"
       id="path6001-1-5-7-5-6-5"
       inkscape:connector-curvature="0" />
    <path
       style="fill:#00c800;fill-opacity:1;fill-rule:evenodd;stroke:#000000;stroke-width:4;stroke-linecap:round;stroke-linejoin:round;stroke-miterlimit:4;stroke-dasharray:none;stroke-opacity:1"
       d="m 1020,982.3624 40,9.9131 39.897,-9.9566 30,-25 30.0001,24.9998 40,10 19.9998,-34.9997 30.0001,-25 40,-10 20,35 30,24.9998 40,10.0001 19.9999,-34.9999 30,-25 40.0001,-9.9999 19.9999,34.9999 30,25 -20,35 -30,25.0001 -39.9999,9.9999 0,39.9999 -20,35.0002 -30,25 -30,-25.0001 -40,-9.9999 -40,10 -29.9999,24.9998 -20.0002,34.9997 0,40.0001 -30,-25 -39.9998,-9.9997 -40,10 -20,-35.0001 -29.9997,-25.0001 -30.0003,25.0002 -10e-5,-40 -39.99983,-10 30.00003,-24.9999 -19.99978,-35.0003 -4e-4,-39.9999 z"
       id="path5774-1-38"
       inkscape:connector-curvature="0" />
    <path
       style="fill:#00c800;fill-opacity:1;fill-rule:evenodd;stroke:#000000;stroke-width:4;stroke-linecap:round;stroke-linejoin:round;stroke-miterlimit:4;stroke-dasharray:none;stroke-opacity:1"
       d="m 1199.9998,102.36238 40,9.9131 39.897,-9.9566 30,-25 30.0001,24.9999 40,10 19.9998,-34.9998 30.0001,-25 40,-10 20,35 30,24.9999 40,10 19.9999,-34.9999 30,-25 40.0001,-9.9999 19.9999,34.9999 30,25 -20,35.0001 -30,25.00001 -39.9999,9.9999 0,39.9999 -20,35.0002 -30,25 -30,-25.0001 -40,-9.9999 -40,10 -29.9999,24.9998 -20.0002,34.9997 0,40.0001 -30,-25 -39.9998,-9.9997 -40,10 -20,-35.0001 -29.9997,-25.0001 -30.0003,25.0002 -10e-5,-40 -39.9998,-10 30,-24.9999 -19.9998,-35.0003 -4e-4,-39.99981 z"
       id="path5774-1-90-85"
       inkscape:connector-curvature="0" />
    <path
       style="fill:#00c800;fill-opacity:1;fill-rule:evenodd;stroke:#000000;stroke-width:4;stroke-linecap:round;stroke-linejoin:round;stroke-miterlimit:4;stroke-dasharray:none;stroke-opacity:1"
       d="m 1299.9999,542.36241 40,9.9131 39.897,-9.9566 30,-25 30.0001,24.9999 40,10 19.9998,-34.9998 30.0001,-25 40,-10 20,35 30,24.9999 40,10 19.9999,-34.9999 30,-25 40.0001,-9.9999 19.9999,34.9999 30,25 -20,35.0001 -30,25 -39.9999,9.9999 0,39.9999 -20,35.0002 -30,25 -30,-25.0001 -40,-9.9999 -40,10 -29.9999,24.9998 -20.0002,34.9997 0,40.0001 -30,-25 -39.9998,-9.9997 -40,10 -20,-35.0001 -29.9997,-25.0001 -30.0003,25.0002 -10e-5,-40 -39.9998,-10 30,-24.9999 -19.9998,-35.0003 -4e-4,-39.9998 z"
       id="path5774-1-90"
       inkscape:connector-curvature="0" />
    <path
       style="fill:#00c800;fill-opacity:1;fill-rule:evenodd;stroke:#000000;stroke-width:4;stroke-linecap:round;stroke-linejoin:round;stroke-miterlimit:4;stroke-dasharray:none;stroke-opacity:1"
       d="m 620.00013,542.36241 40,9.9131 39.897,-9.9566 30,-25 30.0001,24.9999 40,10 19.9998,-34.9998 30.0001,-25 40,-10 20,35 30,24.9999 40,10 19.9999,-34.9999 29.99997,-25 40.0001,-9.9999 19.9999,34.9999 30,25 -20,35.0001 -30,25 -39.9999,9.9999 0,39.9999 -20,35.0002 -29.99997,25 -30,-25.0001 -40,-9.9999 -40,10 -29.9999,24.9998 -20.0002,34.9997 0,40.0001 -30,-25 -39.9998,-9.9997 -40,10 -20,-35.0001 -29.9997,-25.0001 -30.0003,25.0002 -1e-4,-40 -39.9998,-10 30,-24.9999 -19.9998,-35.0003 -4e-4,-39.9998 z"
       id="path5774-1-90-8"
       inkscape:connector-curvature="0" />
    <path
       style="fill:#00c800;fill-opacity:1;fill-rule:evenodd;stroke:#000000;stroke-width:4;stroke-linecap:round;stroke-linejoin:round;stroke-miterlimit:4;stroke-dasharray:none;stroke-opacity:1"
       d="m 340.00023,982.36236 40,9.913 39.897,-9.9566 30,-25 30.0001,24.9999 40,10 19.9998,-34.9998 30.0001,-25 40,-10 20,35 30,24.9999 40,10 19.9999,-34.9999 30,-25 40.0001,-9.9999 19.9999,34.9999 30,25 -20,35.00014 -30,25 -39.9999,9.9999 0,39.9999 -20,35.0002 -30,25 -30,-25.0001 -40,-9.9999 -40,10 -29.9999,24.9998 -20.0002,34.9997 0,40.0001 -30,-25 -39.9998,-9.9997 -40,10 -20,-35.0001 -29.9997,-25.0001 -30.0003,25.0002 -1e-4,-40 -39.99976,-10 29.99996,-24.9999 -19.9998,-35.0003 -4e-4,-39.9998 z"
       id="path5774-1-3"
       inkscape:connector-curvature="0" />
    <path
       style="fill:#00ff00;fill-opacity:1;fill-rule:evenodd;stroke:#000000;stroke-width:4;stroke-linecap:round;stroke-linejoin:round;stroke-miterlimit:4;stroke-dasharray:none;stroke-opacity:1"
       d="m 1210.0001,1372.2753 40,-9.9131 39.897,9.9566 30,25 30.0001,-24.9999 40,-10 19.9998,34.9998 30.0001,25 40,10 20,-35 30,-24.9998 40,-10.0001 19.9999,34.9999 30,25 40.0001,9.9999 19.9999,-34.9999 30,-25 -20,-35.0001 -30,-25 -39.9999,-9.9999 0,-39.9999 -20,-35.0002 -30,-25 -30,25.0001 -40,9.9999 -40,-10 -29.9999,-24.9998 -20.0002,-34.9997 0,-40.0001 -30,25 -39.9998,9.9997 -40,-10 -20,35.0001 -29.9997,25.0001 -30.0003,-25.0002 -1e-4,40 -39.9998,10 30,24.9999 -19.9998,35.0003 -4e-4,39.9998 z"
       id="path5774-1-9"
       inkscape:connector-curvature="0" />
    <path
       style="fill:#00ff00;fill-opacity:1;fill-rule:evenodd;stroke:#000000;stroke-width:4;stroke-linecap:round;stroke-linejoin:round;stroke-miterlimit:4;stroke-dasharray:none;stroke-opacity:1"
       d="m 710.0001,492.27517 40,-9.91306 39.897,9.95659 30,25 30.0001,-24.99987 40,-10 19.9998,34.99977 30.0001,25 40,9.99999 20,-34.99999 30,-24.99986 40,-10.00004 19.9999,34.9999 30,25 40.0001,9.9999 19.9999,-34.9999 30,-25 -20,-35.00007 -30,-25.00001 -39.9999,-9.9999 0,-39.9999 -20,-35.0002 -30,-25 -30,25.0001 -40,9.9999 -40,-10 -29.9999,-24.9998 -20.0002,-34.9997 0,-40.0001 -30,25 -39.9998,9.9997 -40,-10 -20,35.0001 -29.9997,25.0001 -30.0003,-25.0002 -10e-5,40 -39.9998,10 30,24.9999 -19.9998,35.0003 -4e-4,39.99981 z"
       id="path5774-1-2"
       inkscape:connector-curvature="0" />
    <path
       style="fill:#00ff00;fill-opacity:0.98113209;fill-rule:evenodd;stroke:#000000;stroke-width:4;stroke-linecap:round;stroke-linejoin:round;stroke-miterlimit:4;stroke-dasharray:none;stroke-opacity:1"
       d="m 430.00003,932.27546 40,-9.91306 39.897,9.95659 30,25 30.0001,-24.99987 40,-10 19.9998,34.99977 30.0001,25 40,9.99999 20,-34.99999 30,-24.99986 40,-10.00004 19.9999,34.9999 30,25 40.0001,9.9999 19.9999,-34.9999 30.00003,-25 -20,-35.00007 -30.00003,-25.00001 -39.9999,-9.9999 0,-39.9999 -20,-35.0002 -30,-24.99999 -30,25.00009 -40,9.9999 -40,-10 -29.9999,-24.99979 -20.0002,-34.9997 0,-40.0001 -30,25 -39.9998,9.9997 -40,-10 -20,35.0001 -29.9997,25.0001 -30.0003,-25.0002 -1e-4,39.99999 -39.9998,10 30,24.9999 -19.9998,35.0003 -4e-4,39.99981 z"
       id="path5774-1-4-8"
       inkscape:connector-curvature="0" />
    <path
       style="fill:#00ff00;fill-opacity:1;fill-rule:evenodd;stroke:#000000;stroke-width:4;stroke-linecap:round;stroke-linejoin:round;stroke-miterlimit:4;stroke-dasharray:none;stroke-opacity:1"
       d="m 1389.8973,492.31839 40,-9.91306 39.897,9.95659 30,25 30.0001,-24.99987 40,-10 19.9998,34.99977 30.0001,25 40,9.99999 20,-34.99999 30,-24.99986 40,-10.00004 19.9999,34.9999 30,25 40.0001,9.9999 19.9999,-34.9999 30,-25 -20,-35.00007 -30,-25.00001 -39.9999,-9.9999 0,-39.9999 -20,-35.0002 -30,-24.99999 -30,25.00009 -40,9.9999 -40,-10 -29.9999,-24.99979 -20.0002,-34.9997 0,-40.0001 -30,25 -39.9998,9.9997 -40,-10 -20,35.0001 -29.9997,25.0001 -30.0003,-25.0002 -10e-5,39.99999 -39.9998,10 30,24.9999 -19.9998,35.0003 -4e-4,39.99981 z"
       id="path5774-1-4"
       inkscape:connector-curvature="0" />
    <path
       style="fill:#00ff00;fill-opacity:1;fill-rule:evenodd;stroke:#000000;stroke-width:4;stroke-linecap:round;stroke-linejoin:round;stroke-opacity:1;stroke-miterlimit:4;stroke-dasharray:none"
       d="m 1109.9999,932.27527 40,-9.91306 39.897,9.95659 30,25 30.0001,-24.99987 40,-10 19.9998,34.99977 30.0001,25 40,9.99999 20,-34.99999 30,-24.99986 40,-10.00004 19.9999,34.9999 30,25 40.0001,9.9999 19.9999,-34.9999 30,-25 -20,-35.00007 -30,-25.00001 -39.9999,-9.9999 0,-39.9999 -20,-35.0002 -30,-25 -30,25.0001 -40,9.9999 -40,-10 -29.9999,-24.9998 -20.0002,-34.9997 0,-40.0001 -30,25 -39.9998,9.9997 -40,-10 -20,35.0001 -29.9997,25.0001 -30.0003,-25.0002 -10e-5,40 -39.9998,10 30,24.9999 -19.9998,35.0003 -4e-4,39.99981 z"
       id="path5774-1"
       inkscape:connector-curvature="0" />
    <path
       style="fill:#00ffff;fill-opacity:1;fill-rule:evenodd;stroke:#000000;stroke-width:4;stroke-linecap:round;stroke-linejoin:round;stroke-miterlimit:4;stroke-dasharray:none;stroke-opacity:1"
       d="m 1889.8968,492.31898 39.8971,-10.043 19.9999,34.9999 30,25 40.1028,10.0428 20.0003,-34.9997 29.9997,-25.0001 -19.9998,-34.9999 4e-4,-39.9998 19.9998,-35.0003 -29.9999,-24.9999 39.9997,-10 -30.0003,-25.0004 -39.9998,-9.9997 -40,10 -20.0001,-35 -29.9999,-25.0001 -30.0001,25.0002 -10e-5,-40 -39.9996,-10 29.9998,-24.9999 -19.9998,-35 -4e-4,-40.0001 20.0001,-35.00031 -29.8968,-24.95653 -20.0002,-34.99988 -39.9998,9.91298 -30.0001,25.00009 -20.1028,35.04345 -40.0002,-9.99979 -20,35.00009 -30,25 -39.9999,9.9999 0,39.9999 -20,35.0002 -10e-5,40.0001 20.0002,34.9997 29.9999,24.9998 40,10 40,-9.9999 30,-25.0001 29.9999,25 20,35.0002 10e-5,40.0001 39.9998,9.9996 30,25 z"
       id="path6001-1-5-7-5"
       inkscape:connector-curvature="0" />
    <path
       style="fill:#00c8c8;fill-opacity:1;fill-rule:evenodd;stroke:#000000;stroke-width:4;stroke-linecap:round;stroke-linejoin:round;stroke-miterlimit:4;stroke-dasharray:none;stroke-opacity:1"
       d="m 1799.8972,542.31857 39.8971,10.043 19.9999,-34.9999 30,-24.99998 40.1028,-10.0428 20.0003,34.99968 29.9997,25.0001 -19.9998,34.9999 4e-4,39.9998 19.9998,35.0003 -29.9999,24.9999 39.9997,10 -30.0003,25.0004 -39.9998,9.9997 -40,-10 -20.0001,35 -29.9999,25.0001 -30.0001,-25.0002 -10e-5,40 -39.9996,10 29.9998,24.9999 -19.9998,35 -4e-4,40.0001 20.0001,35.00031 -29.8968,24.95653 -20.0002,34.99988 -39.9998,-9.913 -30.0001,-25.00007 -20.1028,-35.04345 -40.0002,9.99979 -20,-35.00009 -30,-25 -39.9999,-9.9999 0,-39.9999 -20,-35.0002 -1e-4,-40.0001 20.0002,-34.9997 29.9999,-24.9998 40,-10 40,9.9999 30,25.0001 29.9999,-25 20,-35.0002 1e-4,-40.0001 39.9998,-9.9996 30,-25 z"
       id="path6001-1-5-7-5-6"
       inkscape:connector-curvature="0" />
    <path
       style="fill:#00ffff;fill-opacity:1;fill-rule:evenodd;stroke:#000000;stroke-width:4;stroke-linecap:round;stroke-linejoin:round;stroke-opacity:1;stroke-miterlimit:4;stroke-dasharray:none"
       d="m 1709.794,1372.2756 39.8971,-10.043 19.9999,34.9999 30,25 40.1028,10.0428 20.0003,-34.9997 29.9997,-25.0001 -19.9998,-34.9999 4e-4,-39.9998 19.9998,-35.0003 -29.9999,-24.9999 39.9997,-10 -30.0003,-25.0004 -39.9998,-9.9997 -40,10 -20.0001,-35 -29.9999,-25.0001 -30.0001,25.0002 -10e-5,-40 -39.9996,-10 29.9998,-24.9999 -19.9998,-35 -4e-4,-40.0001 20.0001,-35.00027 -29.8968,-24.95653 -20.0002,-34.99987 -39.9998,9.91297 -30.0001,25.00009 -20.1028,35.04345 -40.0002,-9.99979 -20,35.00005 -30,25 -39.9999,9.9999 0,39.9999 -20,35.0002 -1e-4,40.0001 20.0002,34.9997 29.9999,24.9998 40,10 40,-9.9999 30,-25.0001 29.9999,25 20,35.0002 1e-4,40.0001 39.9998,9.9996 30,25 z"
       id="path6001-1-5-7"
       inkscape:connector-curvature="0" />
    <path
       style="fill:#ffff00;fill-opacity:1;fill-rule:evenodd;stroke:#000000;stroke-width:1px;stroke-linecap:butt;stroke-linejoin:miter;stroke-opacity:1"
       d="m 1209.8971,612.31871 0,40 -29.9999,-25 -30,25 0,-40 -40.0001,-10 30.0001,-25 -20.0001,-35 40.0001,10 20,-34.99999 20,34.99999 40,-10 -20.0001,35 30.0001,25 -40.0001,10"
       id="path4894-4-7-7-5-2-1-7-4-6-8-2-3-4-7-9-9-9-5-1"
       inkscape:connector-curvature="0" />
    <path
       style="fill:#ffff00;fill-opacity:1;fill-rule:evenodd;stroke:#000000;stroke-width:1px;stroke-linecap:butt;stroke-linejoin:miter;stroke-opacity:1"
       d="m 1269.8971,247.31879 0,40 -29.9999,-25 -30,25 0,-40 -40,-10 30,-25 -20,-35 40,10 20,-34.99999 20,34.99999 40,-10 -20.0001,35 30.0001,25 -40.0001,10"
       id="path4894-4-7-7-5-2-1-7-4-6-8-2-3-4-7-9-9-9-5-2"
       inkscape:connector-curvature="0" />
    <path
       style="fill:#ffff00;fill-opacity:1;fill-rule:evenodd;stroke:#000000;stroke-width:1px;stroke-linecap:butt;stroke-linejoin:miter;stroke-opacity:1"
       d="m 529.89723,612.31871 0,40 -30,-25 -30,25 0,-40 -40,-10 30,-25 -20,-35 40,10 20,-35 20,35 40.00002,-10 -20.00002,35 30.00002,25 -40.00002,10"
       id="path4894-4-7-7-5-2-1-7-4-6-8-2-3-4-7-9-9"
       inkscape:connector-curvature="0" />
    <path
       style="fill:#ffff00;fill-opacity:1;fill-rule:evenodd;stroke:#000000;stroke-width:1px;stroke-linecap:butt;stroke-linejoin:miter;stroke-opacity:1"
       d="m 689.89723,687.31871 0,40 -30,-25 -30,25 0,-40 -39.99999,-10 29.99999,-25 -20,-35 40,10 20,-35 20,35 40.00002,-10 -20.00002,35 30.00002,25 -40.00002,10"
       id="path4894-4-7-7-5-2-1-7-4-6-8-2-3-4-7-9-9-0"
       inkscape:connector-curvature="0" />
    <path
       style="fill:#ffff00;fill-opacity:1;fill-rule:evenodd;stroke:#000000;stroke-width:1px;stroke-linecap:butt;stroke-linejoin:miter;stroke-opacity:1"
       d="m 849.89722,612.31881 0,40 -29.99999,-25 -30,25 0,-40 -40,-10 30,-25 -20,-35 40,10 20,-35 20,35 40.00001,-10 -20.00002,35 30.00002,25 -40.00002,10"
       id="path4894-4-7-7-5-2-1-7-4-6-8-2-3-4-7-9-9-5"
       inkscape:connector-curvature="0" />
    <path
       style="fill:#ffff00;fill-opacity:1;fill-rule:evenodd;stroke:#000000;stroke-width:1px;stroke-linecap:butt;stroke-linejoin:miter;stroke-opacity:1"
       d="m 1029.8972,612.31871 0,40 -29.99997,-25 -30,25 0,-40 -40,-10 30,-25 -20,-35 40,10 20,-34.99999 19.99997,34.99999 40,-10 -20,35 30,25 -40,10"
       id="path4894-4-7-7-5-2-1-7-4-6-8-2-3-4-7-9-9-04"
       inkscape:connector-curvature="0" />
    <path
       style="fill:#ff7d00;fill-opacity:1;fill-rule:evenodd;stroke:#000000;stroke-width:1px;stroke-linecap:butt;stroke-linejoin:miter;stroke-opacity:1"
       d="m 499.89723,787.31882 0,-40 -30,25 -30,-25 0,40 -40,10 30,24.99999 -20,35 40,-10 20,35 20,-35 40.00002,10 -20.00002,-35 30.00002,-24.99999 -40.00002,-10"
       id="path4894-4-7-7-5-2-1-7-4-6-8-2-3-4-7-9-9-1"
       inkscape:connector-curvature="0" />
    <path
       style="fill:#ff7d00;fill-opacity:1;fill-rule:evenodd;stroke:#000000;stroke-width:1px;stroke-linecap:butt;stroke-linejoin:miter;stroke-opacity:1"
       d="m 659.89713,862.31892 0,-40 -30,25 -30,-25 0,40 -40,10 30,24.99999 -20,35 40,-10 20,35 20,-35 40.00002,10 -20.00002,-35 30.00002,-24.99999 -40.00002,-10"
       id="path4894-4-7-7-5-2-1-7-4-6-8-2-3-4-7-9-9-1-7"
       inkscape:connector-curvature="0" />
    <path
       style="fill:#ff7d00;fill-opacity:1;fill-rule:evenodd;stroke:#000000;stroke-width:1px;stroke-linecap:butt;stroke-linejoin:miter;stroke-opacity:1"
       d="m 839.89723,862.31892 0,-40 -30,25 -30,-25 0,40 -40,10 30,24.99999 -20,35 40,-10 20,35 20,-35 40.00002,10 -20.00002,-35 30.00002,-24.99999 -40.00002,-10"
       id="path4894-4-7-7-5-2-1-7-4-6-8-2-3-4-7-9-9-1-9"
       inkscape:connector-curvature="0" />
    <path
       style="fill:#ff7d00;fill-opacity:1;fill-rule:evenodd;stroke:#000000;stroke-width:1px;stroke-linecap:butt;stroke-linejoin:miter;stroke-opacity:1"
       d="m 999.89713,787.31892 0,-40 -30,25 -30,-25 0,40 -40,9.99999 30,25 -20,35 40,-10 20,35 20,-35 39.99997,10 -20,-35 30,-25 -39.99997,-9.99999"
       id="path4894-4-7-7-5-2-1-7-4-6-8-2-3-4-7-9-9-1-3"
       inkscape:connector-curvature="0" />
    <path
       style="fill:#ff7d00;fill-opacity:1;fill-rule:evenodd;stroke:#000000;stroke-width:1px;stroke-linecap:butt;stroke-linejoin:miter;stroke-opacity:1"
       d="m 619.89746,422.31869 0,-40 -29.99999,25 -30,-25 0,40 -40.00001,10 30.00001,24.99999 -20,35 40,-10 20,35 20,-35 40.00001,10 -20.00002,-35 30.00002,-24.99999 -40.00002,-10"
       id="path4894-4-7-7-5-2-1-7-4-6-8-2-3-4-7-9-9-1-73"
       inkscape:connector-curvature="0" />
    <path
       style="fill:#ff7d00;fill-opacity:1;fill-rule:evenodd;stroke:#000000;stroke-width:1px;stroke-linecap:butt;stroke-linejoin:miter;stroke-opacity:1"
       d="m 1119.8972,422.31883 0,-40.00001 -30,25.00001 -30,-25.00001 0,40.00001 -40,10 30,24.99999 -20,34.99999 40,-10 20,35 20,-35 40,10 -20,-34.99999 30.0001,-24.99999 -40.0001,-10"
       id="path4894-4-7-7-5-2-1-7-4-6-8-2-3-4-7-9-9-1-4"
       inkscape:connector-curvature="0" />
    <path
       style="fill:#ff7d00;fill-opacity:1;fill-rule:evenodd;stroke:#000000;stroke-width:1px;stroke-linecap:butt;stroke-linejoin:miter;stroke-opacity:1"
       d="m 939.8972,422.31883 0,-40.00001 -30,25.00001 -30,-25.00001 0,40.00001 -40,10 30,24.99999 -20,34.99999 40,-10 20,35 20,-35 40,10 -20,-34.99999 30.0001,-24.99999 -40.0001,-10"
       id="path4894-4-7-7-5-2-1-7-4-6-8-2-3-4-7-9-9-1-4-7"
       inkscape:connector-curvature="0" />
    <path
       style="fill:#ffff00;fill-opacity:1;fill-rule:evenodd;stroke:#000000;stroke-width:1px;stroke-linecap:butt;stroke-linejoin:miter;stroke-opacity:1"
       d="m 589.89737,247.31861 0,40 -30,-25 -30,25 0,-40 -40,-10 30,-25 -20,-35 40,10 20,-35 20,35 40.00002,-10 -20.00002,35 30.00002,25 -40.00002,10"
       id="path4894-4-7-7-5-2-1-7-4-6-8-2-3-4-7-9-9-2"
       inkscape:connector-curvature="0" />
    <path
       style="fill:#ffff00;fill-opacity:1;fill-rule:evenodd;stroke:#000000;stroke-width:1px;stroke-linecap:butt;stroke-linejoin:miter;stroke-opacity:1"
       d="m 749.8971,172.31861 0,39.99999 -30,-25 -30,25 0,-39.99999 -40,-10 30,-25 -20,-35 40,10 20,-35 20,35 40.00002,-10 -20.00002,35 30.00002,25 -40.00002,10"
       id="path4894-4-7-7-5-2-1-7-4-6-8-2-3-4-7-9-9-17"
       inkscape:connector-curvature="0" />
    <path
       style="fill:#ffff00;fill-opacity:1;fill-rule:evenodd;stroke:#000000;stroke-width:1px;stroke-linecap:butt;stroke-linejoin:miter;stroke-opacity:1"
       d="m 929.8972,172.31861 0,40 -30,-25 -30,25 0,-40 -40,-10 30,-25 -20,-35 40,10 20,-34.999999 20,34.999999 40.00002,-10 -20.00002,35 30.00002,25 -40.00002,10"
       id="path4894-4-7-7-5-2-1-7-4-6-8-2-3-4-7-9-9-9"
       inkscape:connector-curvature="0" />
    <path
       style="fill:none;fill-rule:evenodd;stroke:#000000;stroke-width:1px;stroke-linecap:butt;stroke-linejoin:miter;stroke-opacity:1"
       d="m 1029.8971,897.31901 0,-40.0001 -39.99997,-10 -20,35.0001 0,40 39.99997,10 z"
       id="path4475-3-0-29-3-3-0-9-9-6-4-5-2-5-7-6"
       inkscape:connector-curvature="0" />
    <path
       style="fill:none;fill-rule:evenodd;stroke:#000000;stroke-width:1px;stroke-linecap:butt;stroke-linejoin:miter;stroke-opacity:1"
       d="m 1059.8972,152.31871 0,-40.0001 40,-10 20,35.0001 0,40 -40,10 z"
       id="path4475-3-0-29-3-3-0-9-9-6-4-5-2-5-7-9"
       inkscape:connector-curvature="0" />
    <path
       style="fill:#ff7d00;fill-opacity:1;fill-rule:evenodd;stroke:#000000;stroke-width:1px;stroke-linecap:butt;stroke-linejoin:miter;stroke-opacity:1"
       d="m 779.8972,347.31873 0,-40.00001 -30,25.00001 -30,-25.00001 0,40.00001 -40,10 30,24.99999 -20,34.99999 40,-10 20,35 20,-35 40,10 -20,-34.99999 30.0001,-24.99999 -40.0001,-10"
       id="path4894-4-7-7-5-2-1-7-4-6-8-2-3-4-7-9-9-1-4-7-5"
       inkscape:connector-curvature="0" />
    <path
       style="fill:#ffff00;fill-opacity:1;fill-rule:evenodd;stroke:#000000;stroke-width:1px;stroke-linecap:butt;stroke-linejoin:miter;stroke-opacity:1"
       d="m 1089.8971,247.31871 0,40 -29.9999,-25 -30,25 0,-40 -40.00005,-10 30.00005,-25 -20.00005,-35 40.00005,10 20,-34.99999 20,34.99999 40,-10 -20.0001,35 30.0001,25 -40.0001,10"
       id="path4894-4-7-7-5-2-1-7-4-6-8-2-3-4-7-9-9-9-5"
       inkscape:connector-curvature="0" />
    <path
       style="fill:#ff7d00;fill-opacity:1;fill-rule:evenodd;stroke:#000000;stroke-width:1px;stroke-linecap:butt;stroke-linejoin:miter;stroke-opacity:1"
       d="m 1299.8973,422.31871 0,-40 -30,25 -30,-25 0,40 -40,10 30,24.99999 -20,35 40,-10 20,35 20,-35 40,10 -20,-35 30,-24.99999 -40,-10"
       id="path4894-4-7-7-5-2-1-7-4-6-8-2-3-4-7-9-9-1-73-5"
       inkscape:connector-curvature="0" />
    <path
       style="fill:#ff7d00;fill-opacity:1;fill-rule:evenodd;stroke:#000000;stroke-width:1px;stroke-linecap:butt;stroke-linejoin:miter;stroke-opacity:1"
       d="m 1179.8972,787.31889 0,-40 -30,25 -30,-25 0,40 -40,10 30,24.99999 -20,35 40,-10 20,35 20,-35 40,10 -20,-35 30,-24.99999 -40,-10"
       id="path4894-4-7-7-5-2-1-7-4-6-8-2-3-4-7-9-9-1-99"
       inkscape:connector-curvature="0" />
    <path
       style="fill:#ffff00;fill-opacity:1;fill-rule:evenodd;stroke:#000000;stroke-width:1px;stroke-linecap:butt;stroke-linejoin:miter;stroke-opacity:1"
       d="m 569.89719,1052.3188 0,40 -29.99999,-25 -30,25 0,-40 -40,-10 30,-25 -20,-34.99998 40,10 20,-35 20,35 40.00001,-10 -20.00002,34.99998 30.00002,25 -40.00002,10"
       id="path4894-4-7-7-5-2-1-7-4-6-8-2-3-4-7-9-9-17-1"
       inkscape:connector-curvature="0" />
    <path
       style="fill:#ffff00;fill-opacity:1;fill-rule:evenodd;stroke:#000000;stroke-width:1px;stroke-linecap:butt;stroke-linejoin:miter;stroke-opacity:1"
       d="m 749.89723,1052.3188 0,40 -30,-25 -30,25 0,-40 -40,-10 30,-25 -20,-35.00004 40,10 20,-35 20,35 40.00002,-10 -20.00002,35.00004 30.00002,25 -40.00002,10"
       id="path4894-4-7-7-5-2-1-7-4-6-8-2-3-4-7-9-9-9-6"
       inkscape:connector-curvature="0" />
    <path
       style="fill:#ff7d00;fill-opacity:1;fill-rule:evenodd;stroke:#000000;stroke-width:1px;stroke-linecap:butt;stroke-linejoin:miter;stroke-opacity:1"
       d="m 839.8972,-17.68123 0,-40 -30,25 -30,-25 0,40 -40,10 30,24.99999 -20,35 40,-10 20,35 20,-35 40.00002,10 -20.00002,-35 30.00002,-24.99999 -40.00002,-10"
       id="path4894-4-7-7-5-2-1-7-4-6-8-2-3-4-7-9-9-1-7-2"
       inkscape:connector-curvature="0" />
    <path
       style="fill:#ff7d00;fill-opacity:1;fill-rule:evenodd;stroke:#000000;stroke-width:1px;stroke-linecap:butt;stroke-linejoin:miter;stroke-opacity:1"
       d="m 1019.8972,-17.68126 0,-40 -29.99997,25 -30,-25 0,40 -40,10 30,24.99999 -20,35 40,-10 20,35 19.99997,-35 40.0001,10 -20.0001,-35 30.0001,-24.99999 -40.0001,-10"
       id="path4894-4-7-7-5-2-1-7-4-6-8-2-3-4-7-9-9-1-9-1"
       inkscape:connector-curvature="0" />
    <path
       style="fill:#ffff00;fill-opacity:1;fill-rule:evenodd;stroke:#000000;stroke-width:1px;stroke-linecap:butt;stroke-linejoin:miter;stroke-opacity:1"
       d="m 1429.8971,172.31851 0,39.99999 -30,-25 -30,25 0,-39.99999 -40,-10 30,-25 -20,-35 40,10 20,-34.999999 20,34.999999 40,-10 -20,35 30,25 -40,10"
       id="path4894-4-7-7-5-2-1-7-4-6-8-2-3-4-7-9-9-17-9"
       inkscape:connector-curvature="0" />
    <path
       style="fill:#ffff00;fill-opacity:1;fill-rule:evenodd;stroke:#000000;stroke-width:1px;stroke-linecap:butt;stroke-linejoin:miter;stroke-opacity:1"
       d="m 1609.8972,172.31851 0,39.99998 -30,-25 -30,25 0,-39.99998 -40,-10 30,-25 -20,-35 40,10 20,-35 20,35 40,-10 -20,35 30,25 -40,10"
       id="path4894-4-7-7-5-2-1-7-4-6-8-2-3-4-7-9-9-17-2"
       inkscape:connector-curvature="0" />
    <path
       style="fill:#ffff00;fill-opacity:1;fill-rule:evenodd;stroke:#000000;stroke-width:1px;stroke-linecap:butt;stroke-linejoin:miter;stroke-opacity:1"
       d="m 1529.897,612.31881 0,40 -30,-25 -30,25 0,-40 -40,-10 30,-25 -20,-35 40,10 20,-35 20,35 40.0001,-10 -20.0001,35 30.0001,25 -40.0001,10"
       id="path4894-4-7-7-5-2-1-7-4-6-8-2-3-4-7-9-9-5-2"
       inkscape:connector-curvature="0" />
    <path
       style="fill:#ffff00;fill-opacity:1;fill-rule:evenodd;stroke:#000000;stroke-width:1px;stroke-linecap:butt;stroke-linejoin:miter;stroke-opacity:1"
       d="m 1709.8972,612.31851 0,40 -30,-25 -30,25 0,-40 -40,-10 30,-25 -20,-35 40,10 20,-35 20,35 40.0001,-10 -20.0001,35 30.0001,25 -40.0001,10"
       id="path4894-4-7-7-5-2-1-7-4-6-8-2-3-4-7-9-9-5-8"
       inkscape:connector-curvature="0" />
    <path
       style="fill:#ff7d00;fill-opacity:1;fill-rule:evenodd;stroke:#000000;stroke-width:1px;stroke-linecap:butt;stroke-linejoin:miter;stroke-opacity:1"
       d="m 1619.8972,422.31873 0,-40.00001 -30,25.00001 -30,-25.00001 0,40.00001 -40,10 30,24.99999 -20,34.99999 40,-10 20,35 20,-35 40,10 -20,-34.99999 30.0001,-24.99999 -40.0001,-10"
       id="path4894-4-7-7-5-2-1-7-4-6-8-2-3-4-7-9-9-1-4-7-9"
       inkscape:connector-curvature="0" />
    <path
       style="fill:#ff7d00;fill-opacity:1;fill-rule:evenodd;stroke:#000000;stroke-width:1px;stroke-linecap:butt;stroke-linejoin:miter;stroke-opacity:1"
       d="m 1799.8972,422.31873 0,-40.00001 -30,25.00001 -30,-25.00001 0,40.00001 -40,10 30,24.99999 -20,34.99999 40,-10 20,35 20,-35 40,10 -20,-34.99999 30.0001,-24.99999 -40.0001,-10"
       id="path4894-4-7-7-5-2-1-7-4-6-8-2-3-4-7-9-9-1-4-7-7"
       inkscape:connector-curvature="0" />
    <path
       style="fill:#ffff00;fill-opacity:1;fill-rule:evenodd;stroke:#000000;stroke-width:1px;stroke-linecap:butt;stroke-linejoin:miter;stroke-opacity:1"
       d="m 1249.8971,1052.3187 0,40 -30,-25 -30,25 0,-40 -40,-10 30,-25 -20,-35 40,10 20,-35 20,35 40,-10 -20,35 30,25 -40,10"
       id="path4894-4-7-7-5-2-1-7-4-6-8-2-3-4-7-9-9-5-3"
       inkscape:connector-curvature="0" />
    <path
       style="fill:#ffff00;fill-opacity:1;fill-rule:evenodd;stroke:#000000;stroke-width:1px;stroke-linecap:butt;stroke-linejoin:miter;stroke-opacity:1"
       d="m 1429.897,1052.3188 0,40 -30,-25 -30,25 0,-40 -40,-10 30,-25 -20,-34.99997 40,10 20,-35 20,35 40,-10 -20,34.99997 30,25 -40,10"
       id="path4894-4-7-7-5-2-1-7-4-6-8-2-3-4-7-9-9-5-3-6"
       inkscape:connector-curvature="0" />
    <path
       style="fill:#ff7d00;fill-opacity:1;fill-rule:evenodd;stroke:#000000;stroke-width:1px;stroke-linecap:butt;stroke-linejoin:miter;stroke-opacity:1"
       d="m 1439.8972,1302.3189 0,-40 -30,25 -30,-25 0,40 -40,10 30,25 -20,35 40,-10 20,35 20,-35 40,10 -20,-35 30.0001,-25 -40.0001,-10"
       id="path4894-4-7-7-5-2-1-7-4-6-8-2-3-4-7-9-9-1-4-7-1"
       inkscape:connector-curvature="0" />
    <path
       style="fill:#ff7d00;fill-opacity:1;fill-rule:evenodd;stroke:#000000;stroke-width:1px;stroke-linecap:butt;stroke-linejoin:miter;stroke-opacity:1"
       d="m 1619.8972,1302.3189 0,-40 -30,25 -30,-25 0,40 -40,10 30,25 -20,35 40,-10 20,35 20,-35 40,10 -20,-35 30.0001,-25 -40.0001,-10"
       id="path4894-4-7-7-5-2-1-7-4-6-8-2-3-4-7-9-9-1-4-2"
       inkscape:connector-curvature="0" />
    <path
       style="fill:none;fill-opacity:1;fill-rule:evenodd;stroke:#ff0000;stroke-width:1px;stroke-linecap:butt;stroke-linejoin:miter;stroke-opacity:1"
       d="m 1499.8972,1397.3189 30,-25 20,-35.0001 -30,-25 -19.9999,-34.9998 -20.0001,34.9998 -30,25 20,35.0001 z"
       id="path7540-93-1"
       inkscape:connector-curvature="0" />
    <path
       style="fill:#ffffaf;fill-opacity:1;fill-rule:evenodd;stroke:#000000;stroke-width:1px;stroke-linecap:butt;stroke-linejoin:miter;stroke-opacity:1"
       d="m 1589.8972,1127.3189 0,40 -29.9999,-25 -30,25 0,-40 -40.0001,-10 30.0001,-25 -20.0001,-35 40.0001,10 20,-35 20,35 40,-10 -20.0001,35 30.0001,25 -40.0001,10"
       id="path4894-4-7-7-5-2-1-7-4-6-8-2-3-4-7-9-9-9-5-7"
       inkscape:connector-curvature="0"
       inkscape:transform-center-x="153.89599"
       inkscape:transform-center-y="-224.08433" />
    <path
       style="fill:none;fill-rule:evenodd;stroke:#000000;stroke-width:1px;stroke-linecap:butt;stroke-linejoin:miter;stroke-opacity:1"
       d="m 1559.8969,1032.3187 0,-40.0001 -40,-10 -20,35.0001 0,40 40,10 z"
       id="path4475-3-0-29-3-3-0-9-9-6-4-5-2-5-7-9-8"
       inkscape:connector-curvature="0" />
    <path
       style="fill:#ff7d00;fill-opacity:1;fill-rule:evenodd;stroke:#000000;stroke-width:1px;stroke-linecap:butt;stroke-linejoin:miter;stroke-opacity:1"
       d="m 1119.8972,1302.3189 0,-40 -30,25 -30,-25 0,40 -40,10 30,25 -20,35 40,-10 20,35 20,-35 40,10 -20,-35 30,-25 -40,-10"
       id="path4894-4-7-7-5-2-1-7-4-6-8-2-3-4-7-9-9-1-73-4"
       inkscape:connector-curvature="0" />
    <path
       style="fill:none;fill-rule:evenodd;stroke:#000000;stroke-width:1px;stroke-linecap:butt;stroke-linejoin:miter;stroke-opacity:1;fill-opacity:1"
       d="m 1189.8972,1337.3189 0,-40.0001 40,-10 20,35.0001 0,40 -40,10 z"
       id="path4475-3-0-29-3-3-0-9-9-6-4-5-2-5-7-9-8-5"
       inkscape:connector-curvature="0" />
    <path
       style="fill:#ff7d00;fill-opacity:1;fill-rule:evenodd;stroke:#000000;stroke-width:1px;stroke-linecap:butt;stroke-linejoin:miter;stroke-opacity:1"
       d="m 1279.8972,1227.3188 0,-40 -30,25 -30,-25 0,40 -40,10 30,25 -20,35 40,-10 20,35 20,-35 40,10 -20,-35 30,-25 -40,-10"
       id="path4894-4-7-7-5-2-1-7-4-6-8-2-3-4-7-9-9-1-73-4-0"
       inkscape:connector-curvature="0" />
    <path
       style="fill:#ffff00;fill-opacity:1;fill-rule:evenodd;stroke:#000000;stroke-width:1px;stroke-linecap:butt;stroke-linejoin:miter;stroke-opacity:1"
       d="m 1089.8974,1127.3187 0,40 -30,-25 -30,25 0,-40 -40,-10 30,-25 -20,-35 40,10 20,-35 20,35 40.0001,-10 -20.0001,35 30.0001,25 -40.0001,10"
       id="path4894-4-7-7-5-2-1-7-4-6-8-2-3-4-7-9-9-2-3"
       inkscape:connector-curvature="0" />
    <path
       style="fill:none;fill-rule:evenodd;stroke:#000000;stroke-width:1px;stroke-linecap:butt;stroke-linejoin:miter;stroke-opacity:1;fill-opacity:1"
       d="m 1499.8972,1277.3189 0,-40.0001 40,-10 20,35.0001 0,40 -40,10 z"
       id="path4475-3-0-29-3-3-0-9-9-6-4-5-2-5-7-9-8-5-6"
       inkscape:connector-curvature="0" />
    <path
       style="fill:none;fill-rule:evenodd;stroke:#000000;stroke-width:1px;stroke-linecap:butt;stroke-linejoin:miter;stroke-opacity:1;fill-opacity:1"
       d="m 1499.8972,1277.3189 0,-40.0001 -40,-10 -20,35.0001 0,40 40,10 z"
       id="path4475-3-0-29-3-3-0-9-9-6-4-5-2-5-7-9-8-5-1-0-6"
       inkscape:connector-curvature="0" />
    <path
       style="fill:none;fill-opacity:1;fill-rule:evenodd;stroke:#000000;stroke-width:1px;stroke-linecap:butt;stroke-linejoin:miter;stroke-opacity:1"
       d="m 1439.8972,1422.3189 40,9.9999 20,-34.9999 -30,-25 -40,-10 -20,35 z"
       id="path4539-7-9-8-0-62-4-0-6-8-6-0"
       inkscape:connector-curvature="0" />
    <path
       style="fill:none;fill-opacity:1;fill-rule:evenodd;stroke:#000000;stroke-width:1px;stroke-linecap:butt;stroke-linejoin:miter;stroke-opacity:1"
       d="m 1619.8972,1422.3189 40,9.9999 20,-34.9999 -30,-25 -40,-10 -20,35 z"
       id="path4539-7-9-8-0-62-4-0-6-8-6-6"
       inkscape:connector-curvature="0" />
    <path
       style="fill:none;fill-opacity:1;fill-rule:evenodd;stroke:#000000;stroke-width:1px;stroke-linecap:butt;stroke-linejoin:miter;stroke-opacity:1"
       d="m 1709.8973,1372.3189 -30,25 -30,-25 -20,-35 30,-25 30,25 20,35"
       id="path4473-1-9-6-3-3-8-91-8-1-0-6-9-2-9-7-5-4"
       inkscape:connector-curvature="0" />
    <path
       style="fill:none;fill-opacity:1;fill-rule:evenodd;stroke:#000000;stroke-width:1px;stroke-linecap:butt;stroke-linejoin:miter;stroke-opacity:1"
       d="m 1289.8972,1372.319 30,25 30,-25 20,-35.0001 -30,-25 -30,25 -20,35.0001"
       id="path4473-1-9-6-3-3-8-91-8-1-0-6-9-2-9-7-5-7-6"
       inkscape:connector-curvature="0" />
    <path
       style="fill:none;fill-opacity:1;fill-rule:evenodd;stroke:#000000;stroke-width:1px;stroke-linecap:butt;stroke-linejoin:miter;stroke-opacity:1"
       d="m 1619.8972,1262.3189 -30,25 -30,-25 -20,-35.0001 30,-25 30,25 20,35.0001"
       id="path4473-1-9-6-3-3-8-91-8-1-0-6-9-2-9-7-5-5-9"
       inkscape:connector-curvature="0" />
    <path
       style="fill:none;fill-opacity:1;fill-rule:evenodd;stroke:#000000;stroke-width:1px;stroke-linecap:butt;stroke-linejoin:miter;stroke-opacity:1"
       d="m 1309.8972,1337.3189 0,-40.0001 -40,-10 -20,35.0001 0,40 40,10 z"
       id="path4475-3-0-29-3-3-0-9-9-6-4-5-2-5-7-9-8-5-1-0-3"
       inkscape:connector-curvature="0" />
    <path
       style="fill:none;fill-opacity:1;fill-rule:evenodd;stroke:#000000;stroke-width:1px;stroke-linecap:butt;stroke-linejoin:miter;stroke-opacity:1"
       d="m 1309.8972,1337.3189 30,-25 40,-10 0,-40 -20,-35.0001 -40,10 -30,25.0001 20,35 0,40 z"
       id="path7632-3-3-5-2"
       inkscape:connector-curvature="0" />
    <path
       style="fill:none;fill-opacity:1;fill-rule:evenodd;stroke:#ff0000;stroke-width:1px;stroke-linecap:butt;stroke-linejoin:miter;stroke-opacity:1"
       d="m 1409.8972,1287.3188 30,-25 20,-35 -30,-25 -19.9999,-34.9999 -20.0001,34.9999 -30,25 20,35 z"
       id="path7540-93-4"
       inkscape:connector-curvature="0"
       inkscape:transform-center-x="54.983808"
       inkscape:transform-center-y="218.14999" />
    <path
       style="fill:none;fill-opacity:1;fill-rule:evenodd;stroke:#000000;stroke-width:1px;stroke-linecap:butt;stroke-linejoin:miter;stroke-opacity:1"
       d="m 1339.8972,1202.3188 0,-40.0001 -40,-10 -20,35.0001 0,40 40,10 z"
       id="path4475-3-0-29-3-3-0-9-9-6-4-5-2-5-7-9-8-5-1-0-6-4"
       inkscape:connector-curvature="0" />
    <path
       style="fill:none;fill-opacity:1;fill-rule:evenodd;stroke:#000000;stroke-width:1px;stroke-linecap:butt;stroke-linejoin:miter;stroke-opacity:1"
       d="m 1589.8972,1167.3189 -30,-25 -30,25 -20,35.0001 30,25 30,-25 20,-35.0001"
       id="path4473-1-9-6-3-3-8-91-8-1-0-6-9-2-9-7-5-5-4"
       inkscape:connector-curvature="0" />
    <path
       style="fill:none;fill-opacity:1;fill-rule:evenodd;stroke:#000000;stroke-width:1px;stroke-linecap:butt;stroke-linejoin:miter;stroke-opacity:1"
       d="m 1489.8969,1117.3189 -19.9999,35 -20,-35 -40,10 20,-35 0,-40 40,-10 29.9999,-25 0,40 20,35 z"
       id="path4903-9-5-4-0"
       inkscape:connector-curvature="0" />
    <path
       style="fill:none;fill-opacity:1;fill-rule:evenodd;stroke:#000000;stroke-width:1px;stroke-linecap:butt;stroke-linejoin:miter;stroke-opacity:1"
       d="m 1409.897,1167.3191 0,-40.0001 40,-10 20,35.0001 0,40 -40,10 z"
       id="path4475-3-0-29-3-3-0-9-9-6-4-5-2-5-7-9-8-5-6-8"
       inkscape:connector-curvature="0" />
    <path
       style="fill:none;fill-opacity:1;fill-rule:evenodd;stroke:#000000;stroke-width:1px;stroke-linecap:butt;stroke-linejoin:miter;stroke-opacity:1"
       d="m 1620,1262.3622 0,40.0001 40,10 20,-35.0001 0,-40 -40,-10 z"
       id="path4475-3-0-29-3-3-0-9-9-6-4-5-2-5-7-9-8-5-6-8-6"
       inkscape:connector-curvature="0" />
    <path
       style="fill:none;fill-opacity:1;fill-rule:evenodd;stroke:#000000;stroke-width:1px;stroke-linecap:butt;stroke-linejoin:miter;stroke-opacity:1"
       d="m 1529.8973,1167.3189 0,-40.0001 -40,-10 -20,35.0001 0,40 40,10 z"
       id="path4475-3-0-29-3-3-0-9-9-6-4-5-2-5-7-9-8-5-6-8-8"
       inkscape:connector-curvature="0" />
    <path
       style="fill:none;fill-rule:evenodd;stroke:#000000;stroke-width:1px;stroke-linecap:butt;stroke-linejoin:miter;stroke-opacity:1;fill-opacity:1"
       d="m 1429.897,1202.3191 40,-10 40.0002,9.9999 30,24.9998 -40,10 -40,-10 -30.0002,-24.9997"
       id="path5445"
       inkscape:connector-curvature="0" />
    <path
       style="fill:#d4cfc8;fill-opacity:1;fill-rule:evenodd;stroke:#000000;stroke-width:1px;stroke-linecap:butt;stroke-linejoin:miter;stroke-opacity:1"
       d="m 1799.8971,1302.3189 0,-40 -30,25 -30,-25 0,40 -40,10 30,25 -20,35 40,-10 20,35 20,-35 40,10 -20,-35 30,-25 -40,-10"
       id="path4894-4-7-7-5-2-1-7-4-6-8-2-3-4-7-9-9-1-73-4-3"
       inkscape:connector-curvature="0" />
    <path
       style="fill:none;fill-opacity:1;fill-rule:evenodd;stroke:#000000;stroke-width:1px;stroke-linecap:butt;stroke-linejoin:miter;stroke-opacity:1"
       d="m 1740,1262.3622 0,40.0001 -40,10 -20,-35.0001 0,-40 40,-10 z"
       id="path4475-3-0-29-3-3-0-9-9-6-4-5-2-5-7-9-8-5-6-8-6-2"
       inkscape:connector-curvature="0" />
    <path
       style="fill:none;fill-opacity:1;fill-rule:evenodd;stroke:#000000;stroke-width:1px;stroke-linecap:butt;stroke-linejoin:miter;stroke-opacity:1"
       d="m 1650,1152.3622 0,40.0001 -40,10 -20,-35.0001 0,-40 40,-10 z"
       id="path4475-3-0-29-3-3-0-9-9-6-4-5-2-5-7-9-8-5-6-8-6-2-0"
       inkscape:connector-curvature="0" />
    <path
       style="fill:none;fill-opacity:1;fill-rule:evenodd;stroke:#000000;stroke-width:1px;stroke-linecap:butt;stroke-linejoin:miter;stroke-opacity:1"
       d="m 1650,1152.3622 0,40.0001 40,10 20,-35.0001 0,-40 -40,-10 z"
       id="path4475-3-0-29-3-3-0-9-9-6-4-5-2-5-7-9-8-5-6-8-6-2-6"
       inkscape:connector-curvature="0" />
    <path
       style="fill:none;fill-opacity:1;fill-rule:evenodd;stroke:#000000;stroke-width:1px;stroke-linecap:butt;stroke-linejoin:miter;stroke-opacity:1"
       d="m 1610,1202.3622 40,-10 40.0002,9.9999 30,24.9998 -40,10 -40,-10 L 1610,1202.3622"
       id="path5445-8"
       inkscape:connector-curvature="0" />
    <path
       style="fill:none;fill-rule:evenodd;stroke:#000000;stroke-width:1px;stroke-linecap:butt;stroke-linejoin:miter;stroke-opacity:1;fill-opacity:1"
       d="m 1319.8972,1237.3188 20,-35 0,-40.0001 39.9998,-9.9997 30,-25 0,40.0001 -19.9998,34.9997 -30,25 z"
       id="path5742"
       inkscape:connector-curvature="0" />
    <path
       style="fill:none;fill-opacity:1;fill-rule:evenodd;stroke:#000000;stroke-width:1px;stroke-linecap:butt;stroke-linejoin:miter;stroke-opacity:1"
       d="m 1339.8972,1202.3188 0,-40.0001 -40,-10 -20,35.0001 0,40 40,10 z"
       id="path4475-3-0-29-3-3-0-9-9-6-4-5-2-5-7-9-8-5-1-0-6-4-0-2"
       inkscape:connector-curvature="0" />
    <path
       style="fill:none;fill-opacity:1;fill-rule:evenodd;stroke:#000000;stroke-width:1px;stroke-linecap:butt;stroke-linejoin:miter;stroke-opacity:1"
       d="m 1770,1167.3622 -30,-25 -30,25 -20,35.0001 30,25 30,-25 20,-35.0001"
       id="path4473-1-9-6-3-3-8-91-8-1-0-6-9-2-9-7-5-5-4-7"
       inkscape:connector-curvature="0" />
    <path
       style="fill:none;fill-opacity:1;fill-rule:evenodd;stroke:#000000;stroke-width:1px;stroke-linecap:butt;stroke-linejoin:miter;stroke-opacity:1"
       d="m 1769.7939,1287.2755 30,-25 20,-35 -30,-25 -19.9999,-34.9999 -20.0001,34.9999 -30,25 20,35 z"
       id="path7540-93-3"
       inkscape:connector-curvature="0" />
    <path
       style="fill:none;fill-opacity:1;fill-rule:evenodd;stroke:#000000;stroke-width:1px;stroke-linecap:butt;stroke-linejoin:miter;stroke-opacity:1"
       d="m 1869.7939,1337.2756 -30,-25 -40,-10 0,-40 20,-35.0001 40,10 30,25.0001 -20,35 0,40 z"
       id="path7632-3-3-5-2-6"
       inkscape:connector-curvature="0" />
    <path
       style="fill:#ff7d00;fill-opacity:1;fill-rule:evenodd;stroke:#000000;stroke-width:1px;stroke-linecap:butt;stroke-linejoin:miter;stroke-opacity:1"
       d="m 1339.897,862.31894 0,-40 -30,25 -30,-25 0,40 -40,10 30,24.99999 -20,35 40,-10 20,35 20,-35 40,10 -20,-35 30,-24.99999 -40,-10"
       id="path4894-4-7-7-5-2-1-7-4-6-8-2-3-4-7-9-9-1-7-3"
       inkscape:connector-curvature="0" />
    <path
       style="fill:#ff7d00;fill-opacity:1;fill-rule:evenodd;stroke:#000000;stroke-width:1px;stroke-linecap:butt;stroke-linejoin:miter;stroke-opacity:1"
       d="m 1519.8969,862.31872 0,-40 -30,25 -30,-25 0,40 -40,10 30,24.99999 -20,35 40,-10 20,35 20,-35 40,10 -20,-35 30,-24.99999 -40,-10"
       id="path4894-4-7-7-5-2-1-7-4-6-8-2-3-4-7-9-9-1-9-9"
       inkscape:connector-curvature="0" />
    <path
       style="fill:#00ff00;fill-opacity:1;fill-rule:evenodd;stroke:#000000;stroke-width:4;stroke-linecap:round;stroke-linejoin:round;stroke-miterlimit:4;stroke-dasharray:none;stroke-opacity:1"
       d="m 530.0003,1372.2752 40,-9.9131 39.897,9.9566 30,25 30.0001,-24.9999 40,-10 19.9998,34.9998 30.0001,25 40,10 20,-35 30,-24.9999 40,-10 19.9999,34.9999 30,25 40.0001,9.9999 19.9999,-34.9999 30,-25 -20,-35.0001 -30,-25 -39.9999,-9.9999 0,-39.9999 -20,-35.0002 -30,-25 -30,25.0001 -40,9.9999 -40,-10 -29.9999,-24.9998 -20.0002,-34.9997 0,-40.0001 -30,25 -39.9998,9.9997 -40,-10 -20,35.0001 -29.9997,25.0001 -30.0003,-25.0002 -10e-5,40 -39.99985,10 30.00005,24.9999 -19.99985,35.0003 -4e-4,39.9998 z"
       id="path5774-1-1"
       inkscape:connector-curvature="0" />
    <path
       style="fill:none;fill-rule:evenodd;stroke:#000000;stroke-width:1px;stroke-linecap:butt;stroke-linejoin:miter;stroke-opacity:1"
       d="m 1709.8972,897.31877 0,-40.0001 -39.9999,-10 -20,35.0001 0,40 39.9999,10 z"
       id="path4475-3-0-29-3-3-0-9-9-6-4-5-2-5-7-6-0"
       inkscape:connector-curvature="0" />
    <path
       style="fill:#ff7d00;fill-opacity:1;fill-rule:evenodd;stroke:#000000;stroke-width:1px;stroke-linecap:butt;stroke-linejoin:miter;stroke-opacity:1"
       d="m 1679.8973,787.31868 0,-40 -30,25 -30,-25 0,40 -40,9.99999 30,25 -20,35 40,-10 20,35 20,-35 40,10 -20,-35 30,-25 -40,-9.99999"
       id="path4894-4-7-7-5-2-1-7-4-6-8-2-3-4-7-9-9-1-3-9"
       inkscape:connector-curvature="0" />
    <path
       style="fill:#ffff00;fill-opacity:1;fill-rule:evenodd;stroke:#000000;stroke-width:1px;stroke-linecap:butt;stroke-linejoin:miter;stroke-opacity:1"
       d="m 1889.7942,612.36172 0,40 -29.9999,-25 -30,25 0,-40 -40.0001,-10 30.0001,-25 -20.0001,-35 40.0001,10 20,-34.99999 20,34.99999 40,-10 -20.0001,35 30.0001,25 -40.0001,10"
       id="path4894-4-7-7-5-2-1-7-4-6-8-2-3-4-7-9-9-9-5-1-6"
       inkscape:connector-curvature="0" />
    <path
       style="fill:#ffff00;fill-opacity:1;fill-rule:evenodd;stroke:#000000;stroke-width:1px;stroke-linecap:butt;stroke-linejoin:miter;stroke-opacity:1"
       d="m 1369.8976,687.31899 0,40 -30,-25 -30,25 0,-40 -40,-10 30,-25 -20,-35 40,10 20,-35 20,35 40.0001,-10 -20.0001,35 30.0001,25 -40.0001,10"
       id="path4894-4-7-7-5-2-1-7-4-6-8-2-3-4-7-9-9-2-3-5"
       inkscape:connector-curvature="0" />
    <path
       style="fill:#ff7d00;fill-opacity:1;fill-rule:evenodd;stroke:#000000;stroke-width:1px;stroke-linecap:butt;stroke-linejoin:miter;stroke-opacity:1"
       d="m 1459.7947,347.36205 0,-40 -30,25 -30,-25 0,40 -40,10 30,25 -20,35 40,-10 20,35 20,-35 40,10 -20,-35 30,-25 -40,-10"
       id="path4894-4-7-7-5-2-1-7-4-6-8-2-3-4-7-9-9-1-73-4-0-9"
       inkscape:connector-curvature="0" />
    <path
       style="fill:#ff7d00;fill-opacity:1;fill-rule:evenodd;stroke:#000000;stroke-width:1px;stroke-linecap:butt;stroke-linejoin:miter;stroke-opacity:1"
       d="m 1979.897,422.31889 0,-40 -30,25 -30,-25 0,40 -40,10 30,25 -20,35 40,-10 20,35 20,-35 40,10 -20,-35 30,-25 -40,-10"
       id="path4894-4-7-7-5-2-1-7-4-6-8-2-3-4-7-9-9-1-73-4-3-8"
       inkscape:connector-curvature="0" />
    <path
       style="fill:none;fill-rule:evenodd;stroke:#000000;stroke-width:1px;stroke-linecap:butt;stroke-linejoin:miter;stroke-opacity:1"
       d="m 879.89703,1032.3189 0,-40.00011 40,-10 20,35.00011 0,40 -40,10 z"
       id="path4475-3-0-29-3-3-0-9-9-6-4-5-2-5-7-9-8-4"
       inkscape:connector-curvature="0" />
    <path
       style="fill:none;fill-rule:evenodd;stroke:#000000;stroke-width:1px;stroke-linecap:butt;stroke-linejoin:miter;stroke-opacity:1"
       d="m 1739.8969,152.31889 0,-40.00011 40,-10.00001 20,35.00012 0,40 -40,10 z"
       id="path4475-3-0-29-3-3-0-9-9-6-4-5-2-5-7-9-8-4-8"
       inkscape:connector-curvature="0" />
    <path
       style="fill:#ffff00;fill-opacity:1;fill-rule:evenodd;stroke:#000000;stroke-width:1px;stroke-linecap:butt;stroke-linejoin:miter;stroke-opacity:1"
       d="m 909.89693,1127.3189 0,40 -29.9999,-25 -30,25 0,-40 -40.0001,-10 30.0001,-25 -20.0001,-35 40.0001,10 20,-35 20,35 40,-10 -20.0001,35 30.0001,25 -40.0001,10"
       id="path4894-4-7-7-5-2-1-7-4-6-8-2-3-4-7-9-9-9-5-7-1"
       inkscape:connector-curvature="0"
       inkscape:transform-center-x="153.89599"
       inkscape:transform-center-y="-224.08433" />
    <path
       style="fill:#ffff00;fill-opacity:1;fill-rule:evenodd;stroke:#000000;stroke-width:1px;stroke-linecap:butt;stroke-linejoin:miter;stroke-opacity:1"
       d="m 1769.8968,247.31889 0,40 -29.9999,-25 -30,25 0,-40 -40.0001,-10 30.0001,-25 -20.0001,-35 40.0001,10 20,-35 20,35 40,-10 -20.0001,35 30.0001,25 -40.0001,10"
       id="path4894-4-7-7-5-2-1-7-4-6-8-2-3-4-7-9-9-9-5-7-1-0"
       inkscape:connector-curvature="0"
       inkscape:transform-center-x="153.89599"
       inkscape:transform-center-y="-224.08433" />
    <path
       style="fill:none;fill-opacity:1;fill-rule:evenodd;stroke:#000000;stroke-width:1px;stroke-linecap:butt;stroke-linejoin:miter;stroke-opacity:1"
       d="m 1649.7941,1032.2757 30,25 20,35 -30,25 -19.9999,34.9999 -20.0001,-34.9999 -30,-25 20,-35 z"
       id="path7540-93-3-0"
       inkscape:connector-curvature="0" />
    <path
       style="fill:none;fill-rule:evenodd;stroke:#000000;stroke-width:1px;stroke-linecap:butt;stroke-linejoin:miter;stroke-opacity:1"
       d="m 1670,957.3622 0,40 -20,35"
       id="path6531"
       inkscape:connector-curvature="0" />
    <path
       style="fill:none;fill-rule:evenodd;stroke:#ff0000;stroke-width:8;stroke-linecap:butt;stroke-linejoin:miter;stroke-miterlimit:4;stroke-dasharray:none;stroke-opacity:1"
       d="m 930.0005,932.27483 39.9998,-9.913 20.0002,34.9999 29.8968,24.9565 40.1027,9.95727 39.897,-9.9566 30,-25 30.0003,24.99963 40,10 19.9996,-34.99953 30.0001,-25 40,-10 20,35 30,24.9999 40,10 19.9999,-34.9999 30,-25 40.0001,-9.9999 19.9999,34.9999 30,25.00001"
       id="path12969-3"
       inkscape:connector-curvature="0"
       sodipodi:nodetypes="cccccccccccccccccccc" />
    <path
       style="fill:none;fill-rule:evenodd;stroke:#0000ff;stroke-width:8;stroke-linecap:butt;stroke-linejoin:miter;stroke-opacity:1;stroke-miterlimit:4;stroke-dasharray:none"
       d="m 929.89696,932.31889 -20,-35.00007 -30.00003,-25.00001 -39.99953,-9.99992 0,-39.9999 -20,-35.0002 -10e-5,-40.0001 20.0002,-34.9997 29.99963,-24.99988 40.00027,-9.99992 39.99973,9.99982 30,25.0001 30.00017,-24.99992 20,-35.0002 10e-5,-40.0001 39.9998,-10.00018 30,-24.99942 19.9998,-35.00028 39.8975,10.04288 19.9999,-34.9999 30,-24.99998 -19.8974,-35.04348 -29.9997,-24.9997 -40.0001,-10 0,-40.00001 -20.0001,-35.0003 -30,-25 -30,25.0001 -39.99978,9.99959 -40,-10 -29.9999,-24.9998 -20.00042,-34.99939 0,-40.0001 20.00032,-35.00051 -3.2e-4,-39.99959 39.9999,-9.9999 30.00032,-25.00031 19.99968,-34.9998"
       id="path12986"
       inkscape:connector-curvature="0" />
    <path
       style="fill:none;fill-rule:evenodd;stroke:#0000ff;stroke-width:8;stroke-linecap:butt;stroke-linejoin:miter;stroke-miterlimit:4;stroke-dasharray:none;stroke-opacity:1"
       d="m 1609.7941,932.36211 -20,-35.00007 -30,-25.00001 -39.9995,-9.99992 0,-39.9999 -20,-35.0002 -10e-5,-40.0001 20.0002,-34.9997 29.9996,-24.99988 40.0003,-9.99992 39.9997,9.99982 30,25.0001 30.0002,-24.99992 20,-35.0002 10e-5,-40.0001 39.9998,-10.00018 30,-24.99942 19.9998,-35.00028 39.8975,10.04288 19.9999,-34.9999 30,-24.99998 -19.8974,-35.04348 -29.9997,-24.9997 -40.0001,-10 0,-40.00001 -20.0001,-35.0003 -30,-25 -30,25.0001 -39.9998,9.99959 -40,-10 -29.9999,-24.9998 -20.0004,-34.99939 0,-40.0001 20.0003,-35.00051 -3e-4,-39.99959 39.9999,-9.9999 30.0003,-25.00031 19.9997,-34.9998"
       id="path12986-6"
       inkscape:connector-curvature="0" />
    <path
       style="fill:none;fill-rule:evenodd;stroke:#ff0000;stroke-width:8;stroke-linecap:butt;stroke-linejoin:miter;stroke-miterlimit:4;stroke-dasharray:none;stroke-opacity:1"
       d="m 1110.0001,52.27512 39.9998,-9.913 20.0002,34.9999 29.8968,24.95646 40.1027,9.9573 39.897,-9.9566 30,-24.99999 30.0003,24.99959 40,10 19.9997,-34.99949 30.0001,-25 40,-10 20,35 30,24.99989 40,10 19.9999,-34.99989 30,-25 40.0001,-9.9999 19.9999,34.9999 30,24.99999"
       id="path12969-3-7"
       inkscape:connector-curvature="0"
       sodipodi:nodetypes="cccccccccccccccccccc" />
    <path
       style="fill:none;fill-rule:evenodd;stroke:#007d00;stroke-width:8;stroke-linecap:butt;stroke-linejoin:miter;stroke-opacity:1;stroke-miterlimit:4;stroke-dasharray:none"
       d="m 1019.8969,102.31881 40.0005,9.9995 20.1028,-35.0434 29.9999,-24.99979"
       id="path13018"
       inkscape:connector-curvature="0" />
    <path
       style="fill:none;fill-rule:evenodd;stroke:#007d00;stroke-width:8;stroke-linecap:butt;stroke-linejoin:miter;stroke-miterlimit:4;stroke-dasharray:none;stroke-opacity:1"
       d="m 1519.7936,982.27589 40.0005,9.9995 20.1028,-35.0434 29.9999,-24.99979"
       id="path13018-5"
       inkscape:connector-curvature="0" />
    <path
       style="fill:none;fill-rule:evenodd;stroke:#000000;stroke-width:1px;stroke-linecap:butt;stroke-linejoin:miter;stroke-opacity:1"
       d="m 1829.8971,1372.3189 29.897,24.9567"
       id="path13035"
       inkscape:connector-curvature="0" />
    <path
       style="fill:none;fill-rule:evenodd;stroke:#820000;stroke-width:8;stroke-linecap:butt;stroke-linejoin:miter;stroke-miterlimit:4;stroke-dasharray:none;stroke-opacity:1"
       d="m 1210.0006,492.27454 39.9998,-9.913 20.0002,34.9999 29.8968,24.95646 40.1027,9.9573 39.897,-9.9566 30,-24.99999 30.0003,24.99959 40,10 19.9997,-34.99949 30.0001,-25 40,-10 20,35 30,24.99989 40,10 19.9999,-34.99989 30,-25 40.0001,-9.9999 19.9999,34.9999 30,24.99999"
       id="path12969-3-7-3"
       inkscape:connector-curvature="0"
       sodipodi:nodetypes="cccccccccccccccccccc" />
  </g>
</svg>
