<?xml version="1.0" encoding="UTF-8" standalone="no"?>
<!-- Created with Inkscape (http://www.inkscape.org/) -->

<svg
   xmlns:dc="http://purl.org/dc/elements/1.1/"
   xmlns:cc="http://creativecommons.org/ns#"
   xmlns:rdf="http://www.w3.org/1999/02/22-rdf-syntax-ns#"
   xmlns:svg="http://www.w3.org/2000/svg"
   xmlns="http://www.w3.org/2000/svg"
   xmlns:sodipodi="http://sodipodi.sourceforge.net/DTD/sodipodi-0.dtd"
   xmlns:inkscape="http://www.inkscape.org/namespaces/inkscape"
   width="142mm"
   height="107mm"
   viewBox="0 0 503.14941 379.13355"
   id="svg4849"
   version="1.1"
   inkscape:version="0.91 r13725"
   sodipodi:docname="stars7.svg">
  <defs
     id="defs4851" />
  <sodipodi:namedview
     id="base"
     pagecolor="#ffffff"
     bordercolor="#666666"
     borderopacity="1.0"
     inkscape:pageopacity="0.0"
     inkscape:pageshadow="2"
     inkscape:zoom="1.0481284"
     inkscape:cx="249.89442"
     inkscape:cy="191.45714"
     inkscape:document-units="px"
     inkscape:current-layer="layer1"
     showgrid="false"
     inkscape:window-width="1863"
     inkscape:window-height="1056"
     inkscape:window-x="57"
     inkscape:window-y="24"
     inkscape:window-maximized="1"
     inkscape:object-nodes="true" />
  <metadata
     id="metadata4854">
    <rdf:RDF>
      <cc:Work
         rdf:about="">
        <dc:format>image/svg+xml</dc:format>
        <dc:type
           rdf:resource="http://purl.org/dc/dcmitype/StillImage" />
        <dc:title />
      </cc:Work>
    </rdf:RDF>
  </metadata>
  <g
     inkscape:label="Layer 1"
     inkscape:groupmode="layer"
     id="layer1"
     transform="translate(0,-673.22876)">
    <path
       style="display:block;fill:#ff0000;fill-opacity:0.37735847;fill-rule:evenodd;stroke:#000000;stroke-width:1.99999917;stroke-linecap:butt;stroke-linejoin:miter;stroke-miterlimit:4;stroke-dasharray:none;stroke-opacity:1"
       d="m 52.687788,799.89335 39.091584,-31.17449 48.746388,-11.12604 48.74641,11.12604 39.0916,31.17449 21.6942,45.04845 0,50 -21.6942,45.04844 -39.0916,31.17449 -48.74641,11.12605 -48.746398,-11.12605 -39.091584,-31.17449 -21.694194,-45.04844 1e-5,-50.00001 c 0,0 21.694194,-45.04844 21.694204,-45.04843"
       id="path4528-7-3"
       inkscape:connector-curvature="0"
       sodipodi:nodetypes="ccccccccccccccc" />
    <path
       style="display:block;fill:#ff8000;fill-opacity:0.37647059;fill-rule:evenodd;stroke:#000000;stroke-width:1.99999917;stroke-linecap:butt;stroke-linejoin:miter;stroke-miterlimit:4;stroke-dasharray:none;stroke-opacity:1"
       d="m 228.36378,939.99024 39.09158,31.17449 21.69419,45.04847 48.74639,-11.126 48.7464,11.126 21.69418,-45.04847 39.09158,-31.17449 -21.69419,-45.04844 0,-50 -48.74639,-11.12604 -39.09158,-31.1745 -39.09157,31.1745 -48.7464,11.12604 0,50 z"
       id="path4428-6-6"
       inkscape:connector-curvature="0" />
    <path
       style="display:block;fill:#ffff00;fill-opacity:0.37647059;fill-rule:evenodd;stroke:#000000;stroke-width:1.99999917;stroke-linecap:butt;stroke-linejoin:miter;stroke-miterlimit:4;stroke-dasharray:none;stroke-opacity:1"
       d="m 109.17675,894.9418 48.74639,11.12604 21.69419,-45.04844 21.69419,45.04844 48.74639,-11.12604 -21.69418,45.04844 39.09158,31.17449 -48.7464,11.12605 0,50.00002 -39.09157,-31.1745 -39.09158,31.1745 0,-50.00002 -48.746398,-11.12605 39.091578,-31.17449 -21.69419,-45.04844"
       id="path4468-3-7"
       inkscape:connector-curvature="0" />
    <path
       style="display:block;fill:none;fill-opacity:0.37647059;fill-rule:evenodd;stroke:#000000;stroke-width:1.99999917;stroke-linecap:butt;stroke-linejoin:miter;stroke-miterlimit:4;stroke-dasharray:none;stroke-opacity:0.509434"
       d="m 70.085252,723.67048 48.746368,11.12604 21.69418,-45.04843 21.69417,45.04843 48.74637,-11.12604 -21.69417,45.04838 39.09156,31.1745 -48.74638,11.1261 0,49.9999 -39.09154,-31.1744 -39.09157,31.1744 0,-49.9999 -48.746379,-11.1261 39.091571,-31.1745 -21.69418,-45.04838"
       id="path4468-3-7-3"
       inkscape:connector-curvature="0" />
    <path
       style="display:block;fill:none;fill-opacity:0.37647059;fill-rule:evenodd;stroke:#000000;stroke-width:1.99999917;stroke-linecap:butt;stroke-linejoin:miter;stroke-miterlimit:4;stroke-dasharray:none;stroke-opacity:0.509434"
       d="m 316.20177,757.59291 48.74635,11.12603 21.69417,-45.0484 21.69415,45.0484 48.74635,-11.12603 -21.69416,45.04835 39.09154,31.17448 -48.74636,11.12609 0,49.99988 -39.09151,-31.17439 -39.09155,31.17439 0,-49.99988 -48.74636,-11.12609 39.09155,-31.17448 -21.69417,-45.04835"
       id="path4468-3-7-3-6"
       inkscape:connector-curvature="0" />
    <text
       xml:space="preserve"
       style="font-style:normal;font-weight:normal;font-size:17.49999329px;line-height:125%;font-family:Sans;text-align:start;letter-spacing:0px;word-spacing:0px;text-anchor:start;fill:#000000;fill-opacity:1;stroke:none;stroke-width:1px;stroke-linecap:butt;stroke-linejoin:miter;stroke-opacity:1;"
       x="21.138897"
       y="816.54718"
       id="text14219"
       sodipodi:linespacing="125%"><tspan
         sodipodi:role="line"
         id="tspan14221"
         x="21.138897"
         y="816.54718">1</tspan></text>
    <text
       xml:space="preserve"
       style="font-style:normal;font-weight:normal;font-size:17.49999329px;line-height:125%;font-family:Sans;text-align:start;letter-spacing:0px;word-spacing:0px;text-anchor:start;fill:#000000;fill-opacity:1;stroke:none;stroke-width:1px;stroke-linecap:butt;stroke-linejoin:miter;stroke-opacity:1;"
       x="417.6091"
       y="992.23425"
       id="text14223"
       sodipodi:linespacing="125%"><tspan
         sodipodi:role="line"
         id="tspan14225"
         x="417.6091"
         y="992.23425">2</tspan></text>
    <text
       xml:space="preserve"
       style="font-style:normal;font-weight:normal;font-size:17.49999329px;line-height:125%;font-family:Sans;text-align:start;letter-spacing:0px;word-spacing:0px;text-anchor:start;fill:#000000;fill-opacity:1;stroke:none;stroke-width:1px;stroke-linecap:butt;stroke-linejoin:miter;stroke-opacity:1;"
       x="116.96822"
       y="1021.8286"
       id="text14227"
       sodipodi:linespacing="125%"><tspan
         sodipodi:role="line"
         id="tspan14229"
         x="116.96822"
         y="1021.8286">3</tspan></text>
    <text
       xml:space="preserve"
       style="font-style:normal;font-weight:normal;font-size:22.5px;line-height:125%;font-family:Sans;text-align:start;letter-spacing:0px;word-spacing:0px;text-anchor:start;fill:#000000;fill-opacity:1;stroke:none;stroke-width:1px;stroke-linecap:butt;stroke-linejoin:miter;stroke-opacity:1"
       x="290.99487"
       y="693.62787"
       id="text4152"
       sodipodi:linespacing="125%"><tspan
         sodipodi:role="line"
         id="tspan4154"
         x="290.99487"
         y="693.62787"></tspan></text>
  </g>
</svg>
