<?xml version="1.0" encoding="UTF-8" standalone="no"?>
<!-- Created with Inkscape (http://www.inkscape.org/) -->

<svg
   xmlns:dc="http://purl.org/dc/elements/1.1/"
   xmlns:cc="http://creativecommons.org/ns#"
   xmlns:rdf="http://www.w3.org/1999/02/22-rdf-syntax-ns#"
   xmlns:svg="http://www.w3.org/2000/svg"
   xmlns="http://www.w3.org/2000/svg"
   xmlns:sodipodi="http://sodipodi.sourceforge.net/DTD/sodipodi-0.dtd"
   xmlns:inkscape="http://www.inkscape.org/namespaces/inkscape"
   width="193mm"
   height="261mm"
   viewBox="0 0 683.85822 924.80318"
   id="svg2"
   version="1.1"
   inkscape:version="0.91 r13725"
   sodipodi:docname="crowns-13.svg">
  <defs
     id="defs4" />
  <sodipodi:namedview
     id="base"
     pagecolor="#ffffff"
     bordercolor="#666666"
     borderopacity="1.0"
     inkscape:pageopacity="0.0"
     inkscape:pageshadow="2"
     inkscape:zoom="0.46355545"
     inkscape:cx="262.12051"
     inkscape:cy="520"
     inkscape:document-units="px"
     inkscape:current-layer="layer1"
     showgrid="false"
     inkscape:window-width="1863"
     inkscape:window-height="1056"
     inkscape:window-x="57"
     inkscape:window-y="24"
     inkscape:window-maximized="1" />
  <metadata
     id="metadata7">
    <rdf:RDF>
      <cc:Work
         rdf:about="">
        <dc:format>image/svg+xml</dc:format>
        <dc:type
           rdf:resource="http://purl.org/dc/dcmitype/StillImage" />
        <dc:title></dc:title>
      </cc:Work>
    </rdf:RDF>
  </metadata>
  <g
     inkscape:label="Layer 1"
     inkscape:groupmode="layer"
     id="layer1"
     transform="translate(0,-127.55908)">
    <path
       style="display:block;fill:#7d7d7d;fill-opacity:0.54117647;fill-rule:evenodd;stroke:none;stroke-width:1px;stroke-linecap:butt;stroke-linejoin:miter;stroke-opacity:1"
       d="m 503.37195,483.57578 33.1561,-37.42566 49.6354,-6.02683 -33.1561,37.42567 z"
       id="path5391"
       inkscape:connector-curvature="0" />
    <path
       style="display:block;fill:#7d7d7d;fill-opacity:0.54088051;fill-rule:evenodd;stroke:none;stroke-width:1px;stroke-linecap:butt;stroke-linejoin:miter;stroke-opacity:1"
       d="m 462.90355,759.72891 41.1492,-28.40324 23.2361,44.27287 23.2361,-44.27287 41.1492,28.40324 -23.2362,44.2728 -41.1491,28.40331 -41.1492,-28.40324 -23.2362,-44.2728"
       id="path5311"
       inkscape:connector-curvature="0" />
    <path
       style="display:block;fill:#ffc200;fill-opacity:0.50196078;fill-rule:evenodd;stroke:none;stroke-width:1px;stroke-linecap:butt;stroke-linejoin:miter;stroke-opacity:1"
       d="m 462.90345,759.72898 23.2362,-44.27287 41.1492,28.4033 41.1492,-28.4033 23.2361,44.2728 -23.2362,44.2728 -41.1491,28.40331 -41.1492,-28.40324 -23.2362,-44.2728"
       id="path5309"
       inkscape:connector-curvature="0" />
    <path
       style="display:block;fill:#7d7d7d;fill-opacity:0.54117647;fill-rule:evenodd;stroke:none;stroke-width:1px;stroke-linecap:butt;stroke-linejoin:miter;stroke-opacity:1"
       d="m 486.48505,946.27669 49.6354,-6.02683 41.1492,28.40324 -49.6354,6.02683 z"
       id="path5307"
       inkscape:connector-curvature="0" />
    <path
       style="display:block;fill:#7d7d7d;fill-opacity:0.54117647;fill-rule:evenodd;stroke:none;stroke-width:1px;stroke-linecap:butt;stroke-linejoin:miter;stroke-opacity:1"
       d="m 468.42805,590.91334 46.7508,-17.73017 11.9658,48.54709 11.9658,-48.54709 46.7508,17.73024 -11.9658,48.54702 -46.7508,17.73037 -46.7508,-17.73037 -11.9658,-48.54709 z"
       id="path5366"
       inkscape:connector-curvature="0" />
    <path
       style="display:block;fill:none;fill-rule:evenodd;stroke:#000000;stroke-width:3;stroke-linecap:round;stroke-linejoin:round;stroke-miterlimit:4;stroke-dasharray:none;stroke-opacity:1"
       d="m 107.72575,819.23832 49.6355,-6.0268 -11.9658,-48.5471 46.7508,17.7302 11.9658,-48.5471 33.1561,37.4256 33.1562,-37.4256 11.9658,48.5471 46.7508,-17.7302 -11.9658,48.5471 49.6355,6.0268 -33.1562,37.4256 -46.7508,-17.7303 -49.6354,-6.0268 -49.6353,6.0268 -46.751,17.7303 -33.1562,-37.4256"
       id="path4890"
       inkscape:connector-curvature="0" />
    <path
       style="display:block;fill:none;fill-rule:evenodd;stroke:#000000;stroke-width:3;stroke-linecap:round;stroke-linejoin:round;stroke-miterlimit:4;stroke-dasharray:none;stroke-opacity:1"
       d="m 188.02065,996.84659 49.6354,-6.0268 49.6356,6.0267 41.1492,-28.4032 -49.6355,6.0268 23.2362,-44.27282 -41.1492,28.40332 0,-50.00002 -23.2361,44.27282 -23.2362,-44.27282 0,50.00002 -41.1492,-28.40332 23.2362,44.27282 -49.6356,-6.0268 z"
       id="path4920"
       inkscape:connector-curvature="0" />
    <path
       style="display:block;fill:none;fill-rule:evenodd;stroke:#000000;stroke-width:3;stroke-linecap:round;stroke-linejoin:round;stroke-miterlimit:4;stroke-dasharray:none;stroke-opacity:1"
       d="m 76.339648,655.99428 46.750802,-17.7302 0,-50 49.6355,6.0268 23.2361,-44.2728 41.1492,28.4033 41.1492,-28.4033 23.2361,44.2728 49.6355,-6.0268 0,50 46.7508,17.7303 -23.2362,44.2727 -41.1492,-28.4032 -46.7508,-17.7303 -49.6354,-6.0268 -49.6354,6.0268 -46.7508,17.7302 -41.149202,28.4033 -23.2362,-44.2728"
       id="path4820"
       inkscape:connector-curvature="0" />
    <path
       style="display:block;fill:none;fill-rule:evenodd;stroke:#000000;stroke-width:3;stroke-linecap:round;stroke-linejoin:round;stroke-miterlimit:4;stroke-dasharray:none;stroke-opacity:1"
       d="m 68.801848,526.73609 33.156102,-37.4255 41.1492,-28.4033 46.7508,-17.7302 49.6354,-6.0268 49.6354,6.0268 46.7508,17.7303 41.1491,28.4032 33.1561,37.4255 11.9659,-48.54702 -41.1492,-28.40324 -11.9658,-48.54698 -49.6354,-6.0269 -33.1561,-37.4255 -46.7508,17.7302 -46.7509,-17.7302 -33.156,37.4255 -49.6354,6.0268 -11.965802,48.54711 -41.1492,28.40321 z"
       id="path4666"
       inkscape:connector-curvature="0" />
    <path
       style="display:block;fill:#f7fc00;fill-opacity:0.50196078;fill-rule:evenodd;stroke:#000000;stroke-width:1px;stroke-linecap:butt;stroke-linejoin:miter;stroke-opacity:1"
       d="m 188.02065,996.84659 -41.1492,-28.4033 49.6356,6.0268 49.6354,-6.02683 41.1492,28.40323 -49.6356,-6.0267 -49.6354,6.0268"
       id="path4922"
       inkscape:connector-curvature="0" />
    <path
       style="display:block;fill:#f7fc00;fill-opacity:0.50196078;fill-rule:evenodd;stroke:#000000;stroke-width:1px;stroke-linecap:butt;stroke-linejoin:miter;stroke-opacity:1"
       d="m 107.72575,819.23832 49.6355,-6.0268 46.7508,-17.73024 33.1561,37.42554 -49.6352,6.0268 -46.751,17.7303 z"
       id="path4892"
       inkscape:connector-curvature="0" />
    <path
       style="display:block;fill:#f7fc00;fill-opacity:0.50196078;fill-rule:evenodd;stroke:#000000;stroke-width:1px;stroke-linecap:butt;stroke-linejoin:miter;stroke-opacity:1"
       d="m 378.94295,264.50491 -10e-5,-50.00014 23.2362,44.2728 33.1561,37.4256 0,50.00004 -23.2361,-44.2728 z"
       id="path4753-1"
       inkscape:connector-curvature="0" />
    <path
       style="display:block;fill:#f7fc00;fill-opacity:0.50196078;fill-rule:evenodd;stroke:#000000;stroke-width:1px;stroke-linecap:butt;stroke-linejoin:miter;stroke-opacity:1"
       d="m 381.00145,449.78583 -33.1561,-37.42554 -11.9658,48.54709 41.1492,28.4033 33.1561,37.4255 11.9658,-48.54702 z"
       id="path4668-3"
       inkscape:connector-curvature="0" />
    <path
       style="display:block;fill:#f7fc00;fill-opacity:0.50196078;fill-rule:evenodd;stroke:#000000;stroke-width:1px;stroke-linecap:butt;stroke-linejoin:miter;stroke-opacity:1"
       d="m 76.339648,655.99432 46.750802,-17.73024 41.1492,-28.40324 23.2362,44.27274 -46.7508,17.7302 -41.149202,28.4033 z"
       id="path4822"
       inkscape:connector-curvature="0" />
    <path
       style="display:block;fill:#f7fc00;fill-opacity:0.50196078;fill-rule:evenodd;stroke:#000000;stroke-width:1px;stroke-linecap:butt;stroke-linejoin:miter;stroke-opacity:1"
       d="m 97.985248,449.78574 33.156102,-37.42554 11.9658,48.54709 -41.1492,28.4033 -33.156102,37.4255 -11.9658,-48.54702 z"
       id="path4668"
       inkscape:connector-curvature="0" />
    <path
       style="display:block;fill:#ffc200;fill-opacity:0.50196078;fill-rule:evenodd;stroke:#000000;stroke-width:1px;stroke-linecap:butt;stroke-linejoin:miter;stroke-opacity:1"
       d="m 97.985248,449.78586 11.965802,-48.54711 49.6354,-6.0268 33.156,-37.4255 -11.9657,48.54692 -49.6354,6.02683 z"
       id="path4670"
       inkscape:connector-curvature="0" />
    <path
       style="display:block;fill:#f7fc00;fill-opacity:0.50196078;fill-rule:evenodd;stroke:#000000;stroke-width:1px;stroke-linecap:butt;stroke-linejoin:miter;stroke-opacity:1"
       d="m 180.77675,406.33344 46.7508,-17.73024 11.9658,48.54709 -49.6354,6.0268 -46.7508,17.7302 -11.9658,-48.54709 z"
       id="path4672"
       inkscape:connector-curvature="0" />
    <path
       style="display:block;fill:#ffc200;fill-opacity:0.50196078;fill-rule:evenodd;stroke:#000000;stroke-width:1px;stroke-linecap:butt;stroke-linejoin:miter;stroke-opacity:1"
       d="m 286.24415,357.78645 11.9658,48.54699 -46.7508,-17.73024 -11.9658,48.54709 -11.9658,-48.54709 -46.7508,17.73017 11.9657,-48.54692 46.7509,17.7302 z"
       id="path4674"
       inkscape:connector-curvature="0" />
    <path
       style="display:block;fill:#f7fc00;fill-opacity:0.50196078;fill-rule:evenodd;stroke:#000000;stroke-width:1px;stroke-linecap:butt;stroke-linejoin:miter;stroke-opacity:1"
       d="m 298.20995,406.33344 -46.7508,-17.73024 -11.9658,48.54709 49.6354,6.0268 46.7508,17.7302 11.9658,-48.54709 z"
       id="path4672-5"
       inkscape:connector-curvature="0" />
    <path
       style="display:block;fill:#ffc200;fill-opacity:0.50196078;fill-rule:evenodd;stroke:#000000;stroke-width:1px;stroke-linecap:butt;stroke-linejoin:miter;stroke-opacity:1"
       d="m 381.00145,449.78586 -11.9658,-48.54711 -49.6354,-6.0268 -33.156,-37.4255 11.9657,48.54692 49.6354,6.02683 z"
       id="path4670-6"
       inkscape:connector-curvature="0" />
    <path
       style="display:block;fill:none;fill-rule:evenodd;stroke:#000000;stroke-width:3;stroke-linecap:butt;stroke-linejoin:miter;stroke-miterlimit:4;stroke-dasharray:none;stroke-opacity:1"
       d="m 47.479648,346.20321 23.2361,-44.2728 33.156102,-37.4255 41.1492,-28.4033 46.7508,-17.7302 49.6354,-6.0268 49.6354,6.0268 46.7508,17.7303 41.1491,28.4032 33.1561,37.4255 23.2363,44.27281 2e-4,-50.00005 -33.1561,-37.4256 -23.2362,-44.2728 -46.7508,-17.7302 -41.1492,-28.4033 -49.6354,6.0269 -49.6354,-6.0269 -41.1492,28.4033 -46.7509,17.7302 -23.236202,44.2728 -33.1561,37.4256 z"
       id="path4751"
       inkscape:connector-curvature="0" />
    <path
       style="display:block;fill:#f7fc00;fill-opacity:0.50196078;fill-rule:evenodd;stroke:#000000;stroke-width:1px;stroke-linecap:butt;stroke-linejoin:miter;stroke-opacity:1"
       d="m 103.87185,264.50491 1e-4,-50.00014 -23.236202,44.2728 -33.1561,37.4256 0,50.00004 23.2361,-44.2728 z"
       id="path4753"
       inkscape:connector-curvature="0" />
    <path
       style="display:block;fill:#f7fc00;fill-opacity:0.50196078;fill-rule:evenodd;stroke:#000000;stroke-width:1px;stroke-linecap:butt;stroke-linejoin:miter;stroke-opacity:1"
       d="m 103.87195,214.50477 46.7509,-17.7302 41.1492,-28.4033 -2e-4,50.00014 -46.7508,17.7302 -41.1492,28.4033 1e-4,-50.00014"
       id="path4770"
       inkscape:connector-curvature="0" />
    <path
       style="display:block;fill:#f7fc00;fill-opacity:0.50196078;fill-rule:evenodd;stroke:#000000;stroke-width:1px;stroke-linecap:butt;stroke-linejoin:miter;stroke-opacity:1"
       d="m 378.94295,214.50477 -46.7509,-17.7302 -41.1492,-28.4033 2e-4,50.00014 46.7508,17.7302 41.1492,28.4033 -1e-4,-50.00014"
       id="path4770-2"
       inkscape:connector-curvature="0" />
    <path
       style="display:block;fill:#f7fc00;fill-opacity:0.50196078;fill-rule:evenodd;stroke:#000000;stroke-width:1px;stroke-linecap:butt;stroke-linejoin:miter;stroke-opacity:1"
       d="m 191.77205,168.37127 49.6354,6.0269 49.6354,-6.0269 2e-4,50.00014 -49.6358,-6.0268 -49.6354,6.0268 z"
       id="path4787"
       inkscape:connector-curvature="0" />
    <path
       style="display:block;fill:#f7fc00;fill-opacity:0.50196078;fill-rule:evenodd;stroke:#000000;stroke-width:1px;stroke-linecap:butt;stroke-linejoin:miter;stroke-opacity:1"
       d="m 397.88285,655.99442 -46.7508,-17.73024 -41.1492,-28.40324 -23.2362,44.27274 46.7508,17.7302 41.1492,28.4033 z"
       id="path4822-9"
       inkscape:connector-curvature="0" />
    <path
       style="display:block;fill:#f7fc00;fill-opacity:0.50196078;fill-rule:evenodd;stroke:#000000;stroke-width:1px;stroke-linecap:butt;stroke-linejoin:miter;stroke-opacity:1"
       d="m 187.47585,604.13368 49.6354,6.02683 49.6354,-6.02683 0,50 -49.6354,-6.0269 -49.6354,6.0268 z"
       id="path4839"
       inkscape:connector-curvature="0" />
    <path
       style="display:block;fill:#ffc200;fill-opacity:0.50196078;fill-rule:evenodd;stroke:#000000;stroke-width:1px;stroke-linecap:butt;stroke-linejoin:miter;stroke-opacity:1"
       d="m 123.09045,638.26408 0,-50 49.6355,6.0268 41.1492,-28.40324 23.2361,44.27287 -49.6354,-6.02683 0,49.9999 -23.2362,-44.27274 -41.1492,28.40324"
       id="path4841"
       inkscape:connector-curvature="0" />
    <path
       style="display:block;fill:#ffc200;fill-opacity:0.50196078;fill-rule:evenodd;stroke:#000000;stroke-width:1px;stroke-linecap:butt;stroke-linejoin:miter;stroke-opacity:1"
       d="m 351.13205,638.26408 0,-50 -49.6355,6.0268 -41.1492,-28.40324 -23.2361,44.27287 49.6354,-6.02683 0,49.9999 23.2362,-44.27274 41.1492,28.40324"
       id="path4841-3"
       inkscape:connector-curvature="0" />
    <path
       style="display:block;fill:#ffc200;fill-opacity:0.50196078;fill-rule:evenodd;stroke:#000000;stroke-width:1px;stroke-linecap:butt;stroke-linejoin:miter;stroke-opacity:1"
       d="m 172.72595,594.29088 23.2361,-44.2728 41.1492,28.4033 41.1492,-28.4033 23.2361,44.2728 -41.1492,-28.40324 -23.2361,44.27287 -23.2361,-44.27287 -41.1492,28.40324"
       id="path4858"
       inkscape:connector-curvature="0" />
    <path
       style="display:block;fill:#f7fc00;fill-opacity:0.50196078;fill-rule:evenodd;stroke:#000000;stroke-width:1px;stroke-linecap:butt;stroke-linejoin:miter;stroke-opacity:1"
       d="m 204.11205,795.48128 46.7508,17.73024 49.6355,6.02684 33.1561,37.42556 -46.7508,-17.7303 -49.6354,-6.0268 z"
       id="path4894"
       inkscape:connector-curvature="0" />
    <path
       style="display:block;fill:#ffc200;fill-opacity:0.50196078;fill-rule:evenodd;stroke:#000000;stroke-width:1px;stroke-linecap:butt;stroke-linejoin:miter;stroke-opacity:1"
       d="m 157.36125,813.21152 -11.9658,-48.5471 46.7508,17.7302 11.9658,-48.5471 11.9658,48.54709 46.7508,-17.73024 -11.9658,48.54715 -46.7508,-17.73024 -46.7508,17.73024"
       id="path4897"
       inkscape:connector-curvature="0" />
    <path
       style="display:block;fill:#ffc200;fill-opacity:0.50196078;fill-rule:evenodd;stroke:#000000;stroke-width:1px;stroke-linecap:butt;stroke-linejoin:miter;stroke-opacity:1"
       d="m 262.82865,764.66437 33.1561,37.42554 33.1562,-37.42549 -11.9658,48.5471 49.6355,6.0268 -33.1562,37.4256 -33.1561,-37.42556 -49.6355,-6.0269 z"
       id="path4899"
       inkscape:connector-curvature="0" />
    <path
       style="display:block;fill:#ffc200;fill-opacity:0.50196078;fill-rule:evenodd;stroke:#000000;stroke-width:1px;stroke-linecap:butt;stroke-linejoin:miter;stroke-opacity:1"
       d="m 216.07785,782.39461 -11.9658,-48.54709 33.1561,37.4256 33.1562,-37.4256 11.9658,48.5471 46.7508,-17.7302 -33.1562,37.42549 -33.1561,-37.42554 -46.7508,17.73024"
       id="path4901"
       inkscape:connector-curvature="0" />
    <path
       style="display:block;fill:#ffc200;fill-opacity:0.50196078;fill-rule:evenodd;stroke:#000000;stroke-width:1px;stroke-linecap:butt;stroke-linejoin:miter;stroke-opacity:1"
       d="m 196.50705,974.47009 49.6354,-6.02683 41.1492,28.40323 41.1492,-28.4032 -49.6355,6.0268 23.2362,-44.27282 -41.1492,28.40332 0,-50.00002 -23.2361,44.27282 -23.2362,-44.27282 0,50.00002 -41.1492,-28.40332 23.2362,44.27282"
       id="path4924"
       inkscape:connector-curvature="0" />
    <path
       style="display:block;fill:#f7fc00;fill-opacity:0.50196078;fill-rule:evenodd;stroke:#000000;stroke-width:1px;stroke-linecap:butt;stroke-linejoin:miter;stroke-opacity:1"
       d="m 468.55995,252.7193 49.6355,-6.0268 46.7508,-17.73024 33.1561,37.42554 -49.6352,6.0268 -46.751,17.7303 z"
       id="path4892-8"
       inkscape:connector-curvature="0" />
    <path
       style="display:block;fill:#f7fc00;fill-opacity:0.50196078;fill-rule:evenodd;stroke:#000000;stroke-width:1px;stroke-linecap:butt;stroke-linejoin:miter;stroke-opacity:1"
       d="m 532.05735,334.23491 46.7508,-17.73024 11.9658,48.54709 -49.6354,6.0268 -46.7508,17.7302 -11.9658,-48.54709 z"
       id="path4672-7"
       inkscape:connector-curvature="0" />
    <path
       style="display:block;fill:#f7fc00;fill-opacity:0.50196078;fill-rule:evenodd;stroke:#000000;stroke-width:1px;stroke-linecap:butt;stroke-linejoin:miter;stroke-opacity:1"
       d="m 505.90365,192.09725 -41.1492,-28.4033 49.6356,6.0268 49.6354,-6.02683 41.1492,28.40323 -49.6356,-6.0267 -49.6354,6.0268"
       id="path4922-3"
       inkscape:connector-curvature="0" />
    <text
       xml:space="preserve"
       style="font-style:normal;font-weight:normal;font-size:40px;line-height:125%;font-family:Sans;text-align:start;letter-spacing:0px;word-spacing:0px;text-anchor:start;display:block;fill:#000000;fill-opacity:1;stroke:none;stroke-width:1px;stroke-linecap:butt;stroke-linejoin:miter;stroke-opacity:1"
       x="48.016663"
       y="196.00735"
       id="text5061"
       sodipodi:linespacing="125%"><tspan
         sodipodi:role="line"
         id="tspan5063"
         x="48.016663"
         y="196.00735">C<tspan
   style="font-size:64.99999762%;baseline-shift:sub"
   id="tspan5107">4</tspan></tspan></text>
    <text
       xml:space="preserve"
       style="font-style:normal;font-weight:normal;font-size:40px;line-height:125%;font-family:Sans;text-align:start;letter-spacing:0px;word-spacing:0px;text-anchor:start;display:block;fill:#000000;fill-opacity:1;stroke:none;stroke-width:1px;stroke-linecap:butt;stroke-linejoin:miter;stroke-opacity:1"
       x="27.841127"
       y="434.3421"
       id="text5061-7"
       sodipodi:linespacing="125%"><tspan
         sodipodi:role="line"
         id="tspan5063-5"
         x="27.841127"
         y="434.3421">C<tspan
   style="font-size:64.99999762%;baseline-shift:sub"
   id="tspan5109">3</tspan></tspan></text>
    <text
       xml:space="preserve"
       style="font-style:normal;font-weight:normal;font-size:40px;line-height:125%;font-family:Sans;text-align:start;letter-spacing:0px;word-spacing:0px;text-anchor:start;display:block;fill:#000000;fill-opacity:1;stroke:none;stroke-width:1px;stroke-linecap:butt;stroke-linejoin:miter;stroke-opacity:1"
       x="49.075256"
       y="623.81512"
       id="text5061-9"
       sodipodi:linespacing="125%"><tspan
         sodipodi:role="line"
         id="tspan5063-2"
         x="49.075256"
         y="623.81512">C<tspan
   style="font-size:64.99999762%;baseline-shift:sub"
   id="tspan5111">2</tspan></tspan></text>
    <text
       xml:space="preserve"
       style="font-style:normal;font-weight:normal;font-size:40px;line-height:125%;font-family:Sans;text-align:start;letter-spacing:0px;word-spacing:0px;text-anchor:start;display:block;fill:#000000;fill-opacity:1;stroke:none;stroke-width:1px;stroke-linecap:butt;stroke-linejoin:miter;stroke-opacity:1"
       x="66.597961"
       y="795.92023"
       id="text5061-2"
       sodipodi:linespacing="125%"><tspan
         sodipodi:role="line"
         id="tspan5063-8"
         x="66.597961"
         y="795.92023">C<tspan
   style="font-size:64.99999762%;baseline-shift:sub"
   id="tspan5113">1</tspan></tspan></text>
    <text
       xml:space="preserve"
       style="font-style:normal;font-weight:normal;font-size:40px;line-height:125%;font-family:Sans;text-align:start;letter-spacing:0px;word-spacing:0px;text-anchor:start;display:block;fill:#000000;fill-opacity:1;stroke:none;stroke-width:1px;stroke-linecap:butt;stroke-linejoin:miter;stroke-opacity:1"
       x="90.054993"
       y="954.36865"
       id="text5061-97"
       sodipodi:linespacing="125%"><tspan
         sodipodi:role="line"
         id="tspan5063-3"
         x="90.054993"
         y="954.36865">C<tspan
   style="font-size:64.99999762%;baseline-shift:sub"
   id="tspan5115">0</tspan></tspan></text>
    <text
       xml:space="preserve"
       style="font-style:normal;font-weight:normal;font-size:40px;line-height:125%;font-family:Sans;text-align:start;letter-spacing:0px;word-spacing:0px;text-anchor:start;display:block;fill:#000000;fill-opacity:1;stroke:none;stroke-width:1px;stroke-linecap:butt;stroke-linejoin:miter;stroke-opacity:1"
       x="622.22296"
       y="201.79501"
       id="text5061-2-6"
       sodipodi:linespacing="125%"><tspan
         sodipodi:role="line"
         id="tspan5063-8-1"
         x="622.22296"
         y="201.79501">X<tspan
   style="font-size:64.99999762%;baseline-shift:sub"
   id="tspan5113-2">1</tspan></tspan></text>
    <text
       xml:space="preserve"
       style="font-style:normal;font-weight:normal;font-size:40px;line-height:125%;font-family:Sans;text-align:start;letter-spacing:0px;word-spacing:0px;text-anchor:start;display:block;fill:#000000;fill-opacity:1;stroke:none;stroke-width:1px;stroke-linecap:butt;stroke-linejoin:miter;stroke-opacity:1"
       x="622.06415"
       y="286.54712"
       id="text5061-7-9"
       sodipodi:linespacing="125%"><tspan
         sodipodi:role="line"
         id="tspan5063-5-3"
         x="622.06415"
         y="286.54712">X<tspan
   style="font-size:64.99999762%;baseline-shift:sub"
   id="tspan5109-1">3</tspan></tspan></text>
    <text
       xml:space="preserve"
       style="font-style:normal;font-weight:normal;font-size:40px;line-height:125%;font-family:Sans;text-align:start;letter-spacing:0px;word-spacing:0px;text-anchor:start;display:block;fill:#000000;fill-opacity:1;stroke:none;stroke-width:1px;stroke-linecap:butt;stroke-linejoin:miter;stroke-opacity:1"
       x="618.48639"
       y="370.03403"
       id="text5061-94"
       sodipodi:linespacing="125%"><tspan
         sodipodi:role="line"
         id="tspan5063-7"
         x="618.48639"
         y="370.03403">X<tspan
   style="font-size:64.99999762%;baseline-shift:sub"
   id="tspan5107-8">5</tspan></tspan></text>
    <text
       xml:space="preserve"
       style="font-style:normal;font-weight:normal;font-size:25px;line-height:125%;font-family:Sans;text-align:start;letter-spacing:0px;word-spacing:0px;text-anchor:start;display:block;fill:#000000;fill-opacity:1;stroke:none;stroke-width:1px;stroke-linecap:butt;stroke-linejoin:miter;stroke-opacity:1"
       x="458.92108"
       y="512.62634"
       id="text5061-97-4"
       sodipodi:linespacing="125%"><tspan
         sodipodi:role="line"
         id="tspan5063-3-5"
         x="458.92108"
         y="512.62634">P<tspan
   style="font-size:25px;baseline-shift:sub"
   id="tspan5459">0</tspan>=R<tspan
   style="font-size:25px;baseline-shift:sub"
   id="tspan5461">1</tspan>+R<tspan
   style="font-size:25px;baseline-shift:sub"
   id="tspan5463">4</tspan>-R<tspan
   style="font-size:25px;baseline-shift:sub"
   id="tspan5465">2</tspan></tspan></text>
    <text
       xml:space="preserve"
       style="font-style:normal;font-weight:normal;font-size:25px;line-height:125%;font-family:Sans;text-align:start;letter-spacing:0px;word-spacing:0px;text-anchor:start;display:block;fill:#000000;fill-opacity:1;stroke:none;stroke-width:1px;stroke-linecap:butt;stroke-linejoin:miter;stroke-opacity:1"
       x="454.0722"
       y="687.63202"
       id="text5061-2-3"
       sodipodi:linespacing="125%"><tspan
         sodipodi:role="line"
         id="tspan5063-8-6"
         x="454.0722"
         y="687.63202">P<tspan
   style="font-size:25px;baseline-shift:sub"
   id="tspan5451">1</tspan>=2R<tspan
   style="font-size:25px;baseline-shift:sub"
   id="tspan5453">3</tspan>+R<tspan
   style="font-size:25px;baseline-shift:sub"
   id="tspan5455">1</tspan>-R<tspan
   style="font-size:25px;baseline-shift:sub"
   id="tspan5457">2</tspan></tspan></text>
    <path
       style="display:block;fill:#ffc200;fill-opacity:0.50196078;fill-rule:evenodd;stroke:#000000;stroke-width:1px;stroke-linecap:butt;stroke-linejoin:miter;stroke-opacity:1"
       d="m 527.63425,974.67993 -41.1492,-28.40324 -23.2362,-44.27282 41.1492,28.40332 0,-50.00002 23.2362,44.27282 23.2361,-44.27282 10e-5,49.99996 41.1491,-28.40326 -23.2361,44.27282 49.6354,-6.0268 -41.1492,28.40321 z"
       id="path5268"
       inkscape:connector-curvature="0" />
    <path
       style="display:block;fill:none;fill-rule:evenodd;stroke:#000000;stroke-width:1;stroke-linecap:butt;stroke-linejoin:miter;stroke-miterlimit:4;stroke-dasharray:3, 3;stroke-dashoffset:0;stroke-opacity:1"
       d="m 504.39805,930.40713 23.2362,44.2728"
       id="path5270"
       inkscape:connector-curvature="0" />
    <path
       style="display:block;fill:none;fill-rule:evenodd;stroke:#000000;stroke-width:1;stroke-linecap:butt;stroke-linejoin:miter;stroke-miterlimit:4;stroke-dasharray:3, 3;stroke-dashoffset:0;stroke-opacity:1"
       d="m 527.63425,924.67999 0,49.99994"
       id="path5272"
       inkscape:connector-curvature="0" />
    <path
       style="display:block;fill:none;fill-rule:evenodd;stroke:#000000;stroke-width:1;stroke-linecap:butt;stroke-linejoin:miter;stroke-miterlimit:4;stroke-dasharray:3, 3;stroke-dashoffset:0;stroke-opacity:1"
       d="m 550.87045,930.40713 -23.2362,44.2728"
       id="path5274"
       inkscape:connector-curvature="0" />
    <path
       style="display:block;fill:none;fill-rule:evenodd;stroke:#000000;stroke-width:1;stroke-linecap:butt;stroke-linejoin:miter;stroke-miterlimit:4;stroke-dasharray:3, 3;stroke-dashoffset:0;stroke-opacity:1"
       d="m 568.78345,946.27669 -41.1492,28.40324"
       id="path5276"
       inkscape:connector-curvature="0" />
    <path
       style="display:block;fill:none;fill-rule:evenodd;stroke:#000000;stroke-width:1;stroke-linecap:butt;stroke-linejoin:miter;stroke-miterlimit:4;stroke-dasharray:none;stroke-dashoffset:0;stroke-opacity:1"
       d="m 486.48505,946.27669 49.6354,-6.02683 41.1492,28.40324"
       id="path5278"
       inkscape:connector-curvature="0" />
    <path
       style="display:block;fill:none;fill-opacity:0.50196078;fill-rule:evenodd;stroke:#000000;stroke-width:1px;stroke-linecap:butt;stroke-linejoin:miter;stroke-opacity:1"
       d="m 462.90355,759.72891 23.2361,-44.2728 41.1492,28.4033 41.1492,-28.4033 23.2361,44.2728 -41.1492,-28.40324 -23.2361,44.27287 -23.2361,-44.27287 -41.1492,28.40324"
       id="path4858-0-1"
       inkscape:connector-curvature="0" />
    <path
       style="display:block;fill:none;fill-rule:evenodd;stroke:#000000;stroke-width:1;stroke-linecap:butt;stroke-linejoin:miter;stroke-miterlimit:4;stroke-dasharray:3, 3;stroke-dashoffset:0;stroke-opacity:1"
       d="m 462.90355,759.72891 41.1491,28.4033 23.2362,-44.2728"
       id="path5295"
       inkscape:connector-curvature="0" />
    <path
       style="display:block;fill:none;fill-rule:evenodd;stroke:#000000;stroke-width:1;stroke-linecap:butt;stroke-linejoin:miter;stroke-miterlimit:4;stroke-dasharray:3, 3;stroke-dashoffset:0;stroke-opacity:1"
       d="m 527.28885,743.85941 23.2361,44.27274 41.1492,-28.40324"
       id="path5297"
       inkscape:connector-curvature="0" />
    <path
       style="display:block;fill:none;fill-rule:evenodd;stroke:#000000;stroke-width:1;stroke-linecap:butt;stroke-linejoin:miter;stroke-miterlimit:4;stroke-dasharray:3, 3;stroke-dashoffset:0;stroke-opacity:1"
       d="m 462.90345,759.72898 23.2362,44.2728 41.1492,-28.40324"
       id="path5299"
       inkscape:connector-curvature="0" />
    <path
       style="display:block;fill:none;fill-rule:evenodd;stroke:#000000;stroke-width:1;stroke-linecap:butt;stroke-linejoin:miter;stroke-miterlimit:4;stroke-dasharray:3, 3;stroke-dashoffset:0;stroke-opacity:1"
       d="m 527.28875,775.59847 41.1492,28.40324 23.2362,-44.2728"
       id="path5301"
       inkscape:connector-curvature="0" />
    <path
       style="display:block;fill:none;fill-rule:evenodd;stroke:#000000;stroke-width:1;stroke-linecap:butt;stroke-linejoin:miter;stroke-miterlimit:4;stroke-dasharray:3, 3;stroke-dashoffset:0;stroke-opacity:1"
       d="m 486.13965,804.00178 41.1492,28.40324 -23.2362,-44.2728"
       id="path5303"
       inkscape:connector-curvature="0" />
    <path
       style="display:block;fill:none;fill-rule:evenodd;stroke:#000000;stroke-width:1;stroke-linecap:butt;stroke-linejoin:miter;stroke-miterlimit:4;stroke-dasharray:3, 3;stroke-dashoffset:0;stroke-opacity:1"
       d="m 550.52505,788.13222 -23.2362,44.2728 41.1491,-28.40331"
       id="path5305"
       inkscape:connector-curvature="0" />
    <path
       style="display:block;fill:#ffc200;fill-opacity:0.50196078;fill-rule:evenodd;stroke:#000000;stroke-width:1px;stroke-linecap:butt;stroke-linejoin:miter;stroke-opacity:1"
       d="m 573.89545,542.36642 11.9658,48.54699 -11.9658,48.54702 -46.7508,17.73037 -46.7508,-17.73037 -11.9658,-48.54709 11.9657,-48.54692 46.7509,17.7302 z"
       id="path4674-2-5"
       inkscape:connector-curvature="0"
       sodipodi:nodetypes="ccccccccc" />
    <path
       style="display:block;fill:none;fill-rule:evenodd;stroke:#000000;stroke-width:1;stroke-linecap:butt;stroke-linejoin:miter;stroke-miterlimit:4;stroke-dasharray:3, 3;stroke-dashoffset:0;stroke-opacity:1"
       d="m 468.42805,590.91334 11.9658,48.54709 46.7508,-17.73017"
       id="path5328"
       inkscape:connector-curvature="0" />
    <path
       style="display:block;fill:none;fill-rule:evenodd;stroke:#000000;stroke-width:1;stroke-linecap:butt;stroke-linejoin:miter;stroke-miterlimit:4;stroke-dasharray:3, 3;stroke-dashoffset:0;stroke-opacity:1"
       d="m 585.86125,590.91334 -11.9658,48.54709 -46.7508,-17.73017"
       id="path5328-5"
       inkscape:connector-curvature="0" />
    <path
       style="display:block;fill:none;fill-rule:evenodd;stroke:#000000;stroke-width:1;stroke-linecap:butt;stroke-linejoin:miter;stroke-miterlimit:4;stroke-dasharray:3, 3;stroke-dashoffset:0;stroke-opacity:1"
       d="m 468.42805,590.91334 46.7508,17.73037 11.9658,-48.54709"
       id="path5345"
       inkscape:connector-curvature="0" />
    <path
       style="display:block;fill:none;fill-rule:evenodd;stroke:#000000;stroke-width:1;stroke-linecap:butt;stroke-linejoin:miter;stroke-miterlimit:4;stroke-dasharray:3, 3;stroke-dashoffset:0;stroke-opacity:1"
       d="m 585.86125,590.91334 -46.7508,17.73037 -11.9658,-48.54709"
       id="path5345-4"
       inkscape:connector-curvature="0" />
    <path
       style="display:block;fill:none;fill-rule:evenodd;stroke:#000000;stroke-width:1;stroke-linecap:butt;stroke-linejoin:miter;stroke-miterlimit:4;stroke-dasharray:3, 3;stroke-dashoffset:0;stroke-opacity:1"
       d="m 515.17885,608.64371 11.9658,48.54709 11.9658,-48.54709"
       id="path5362"
       inkscape:connector-curvature="0" />
    <path
       style="display:block;fill:none;fill-rule:evenodd;stroke:#000000;stroke-width:1;stroke-linecap:butt;stroke-linejoin:miter;stroke-miterlimit:4;stroke-dasharray:3, 3;stroke-dashoffset:0;stroke-opacity:1"
       d="m 480.39385,639.46043 46.7508,17.73037 46.7508,-17.73037"
       id="path5364"
       inkscape:connector-curvature="0" />
    <path
       style="display:block;fill:none;fill-rule:evenodd;stroke:#000000;stroke-width:1;stroke-linecap:butt;stroke-linejoin:miter;stroke-miterlimit:4;stroke-dasharray:none;stroke-dashoffset:0;stroke-opacity:1"
       d="m 468.42805,590.91334 46.7508,-17.73017 11.9658,48.54709 11.9658,-48.54709 46.7508,17.73017"
       id="path5368"
       inkscape:connector-curvature="0" />
    <path
       style="display:block;fill:#ffc200;fill-opacity:0.50196078;fill-rule:evenodd;stroke:#000000;stroke-width:1px;stroke-linecap:butt;stroke-linejoin:miter;stroke-opacity:1"
       d="m 503.37195,483.57578 11.9658,-48.54711 49.6354,-6.0268 33.156,-37.4255 -11.9657,48.54692 -33.1561,37.42567 z"
       id="path4670-9-7"
       inkscape:connector-curvature="0"
       sodipodi:nodetypes="ccccccc" />
    <path
       style="display:block;fill:none;fill-rule:evenodd;stroke:#000000;stroke-width:1;stroke-linecap:butt;stroke-linejoin:miter;stroke-miterlimit:4;stroke-dasharray:3, 3;stroke-dashoffset:0;stroke-opacity:1"
       d="m 503.37195,483.57578 49.6354,-6.02682 11.9658,-48.54709"
       id="path5385"
       inkscape:connector-curvature="0" />
    <path
       style="display:block;fill:none;fill-rule:evenodd;stroke:#000000;stroke-width:1;stroke-linecap:butt;stroke-linejoin:miter;stroke-miterlimit:4;stroke-dasharray:3, 3;stroke-dashoffset:0;stroke-opacity:1"
       d="m 553.00735,477.54896 33.1561,-37.42567"
       id="path5387"
       inkscape:connector-curvature="0" />
    <path
       style="display:block;fill:none;fill-rule:evenodd;stroke:#000000;stroke-width:1px;stroke-linecap:butt;stroke-linejoin:miter;stroke-opacity:1"
       d="m 503.37195,483.57578 33.1561,-37.42566 49.6354,-6.02683"
       id="path5389"
       inkscape:connector-curvature="0" />
    <text
       xml:space="preserve"
       style="font-style:normal;font-weight:normal;font-size:25px;line-height:125%;font-family:Sans;text-align:start;letter-spacing:0px;word-spacing:0px;text-anchor:start;display:block;fill:#000000;fill-opacity:1;stroke:none;stroke-width:1px;stroke-linecap:butt;stroke-linejoin:miter;stroke-opacity:1"
       x="470.78278"
       y="1008.3942"
       id="text5061-7-2-6"
       sodipodi:linespacing="125%"><tspan
         sodipodi:role="line"
         id="tspan5063-5-0-5"
         x="470.78278"
         y="1008.3942">P<tspan
   style="font-size:25px;baseline-shift:sub"
   id="tspan5416">3</tspan>=5R<tspan
   style="font-size:25px;baseline-shift:sub"
   id="tspan5414">1</tspan>-R<tspan
   style="font-size:25px;baseline-shift:sub"
   id="tspan5109-6-6">2</tspan></tspan></text>
    <text
       xml:space="preserve"
       style="font-style:normal;font-weight:normal;font-size:25px;line-height:125%;font-family:Sans;text-align:start;letter-spacing:0px;word-spacing:0px;text-anchor:start;display:block;fill:#000000;fill-opacity:1;stroke:none;stroke-width:1px;stroke-linecap:butt;stroke-linejoin:miter;stroke-opacity:1"
       x="453.16144"
       y="862.20587"
       id="text5061-7-2-6-9"
       sodipodi:linespacing="125%"><tspan
         sodipodi:role="line"
         id="tspan5063-5-0-5-3"
         x="453.16144"
         y="862.20587">P<tspan
   style="font-size:25px;baseline-shift:sub"
   id="tspan5416-7">2</tspan>=2R<tspan
   style="font-size:25px;baseline-shift:sub"
   id="tspan5445">1</tspan>+R<tspan
   style="font-size:25px;baseline-shift:sub"
   id="tspan5447">3</tspan>-R<tspan
   style="font-size:25px;baseline-shift:sub"
   id="tspan5449">4</tspan></tspan></text>
  </g>
</svg>
