<?xml version="1.0" encoding="UTF-8" standalone="no"?>
<!-- Created with Inkscape (http://www.inkscape.org/) -->

<svg
   xmlns:dc="http://purl.org/dc/elements/1.1/"
   xmlns:cc="http://creativecommons.org/ns#"
   xmlns:rdf="http://www.w3.org/1999/02/22-rdf-syntax-ns#"
   xmlns:svg="http://www.w3.org/2000/svg"
   xmlns="http://www.w3.org/2000/svg"
   xmlns:sodipodi="http://sodipodi.sourceforge.net/DTD/sodipodi-0.dtd"
   xmlns:inkscape="http://www.inkscape.org/namespaces/inkscape"
   width="186mm"
   height="205mm"
   viewBox="0 0 659.05505 726.37782"
   id="svg2"
   version="1.1"
   inkscape:version="0.91 r13725"
   sodipodi:docname="crowns-11.svg">
  <defs
     id="defs4" />
  <sodipodi:namedview
     id="base"
     pagecolor="#ffffff"
     bordercolor="#666666"
     borderopacity="1.0"
     inkscape:pageopacity="0.0"
     inkscape:pageshadow="2"
     inkscape:zoom="0.9780117"
     inkscape:cx="334.53313"
     inkscape:cy="332.57373"
     inkscape:document-units="px"
     inkscape:current-layer="layer1"
     showgrid="false"
     inkscape:window-width="1863"
     inkscape:window-height="1056"
     inkscape:window-x="57"
     inkscape:window-y="24"
     inkscape:window-maximized="1" />
  <metadata
     id="metadata7">
    <rdf:RDF>
      <cc:Work
         rdf:about="">
        <dc:format>image/svg+xml</dc:format>
        <dc:type
           rdf:resource="http://purl.org/dc/dcmitype/StillImage" />
        <dc:title></dc:title>
      </cc:Work>
    </rdf:RDF>
  </metadata>
  <g
     inkscape:label="Layer 1"
     inkscape:groupmode="layer"
     id="layer1"
     transform="translate(0,-325.98444)">
    <path
       style="display:block;fill:none;fill-rule:evenodd;stroke:#000000;stroke-width:1px;stroke-linecap:butt;stroke-linejoin:miter;stroke-opacity:1"
       d="m 190.33684,434.06065 -32.743,-37.7875 47.9746,14.0866 -7.1157,-49.4911 32.743,37.7875 20.7708,-45.4816 7.1157,49.4911 42.0627,-27.032 -20.7708,45.4816 50,0 -42.0627,27.032"
       id="path3620-3-4-4"
       inkscape:connector-curvature="0"
       sodipodi:nodetypes="ccccccccccc" />
    <path
       style="display:block;fill:none;fill-rule:evenodd;stroke:#000000;stroke-width:1px;stroke-linecap:butt;stroke-linejoin:miter;stroke-opacity:1"
       d="m 190.33684,434.06065 50,0 47.9746,14.0866"
       id="path3639-2-7"
       inkscape:connector-curvature="0" />
    <path
       style="display:block;fill:#ffff00;fill-opacity:0.43529412;fill-rule:evenodd;stroke:#000000;stroke-width:1px;stroke-linecap:butt;stroke-linejoin:miter;stroke-opacity:1"
       d="m 288.31144,448.14725 -32.743,-37.7875 -50,0 -7.1157,-49.491 32.743,37.7874 20.7708,-45.4816 7.1157,49.4911 42.0627,-27.032 -20.7708,45.4816 50,0 -42.0627,27.032"
       id="path3643-8-4-6"
       inkscape:connector-curvature="0" />
    <path
       style="display:block;fill:none;fill-rule:evenodd;stroke:#000000;stroke-width:1px;stroke-linecap:butt;stroke-linejoin:miter;stroke-opacity:1"
       d="m 139.58914,599.85405 -20.7707,-45.4816 50,0 7.1157,-49.4911 42.0627,27.0321 32.7431,-37.7875 20.7707,45.4816 47.9747,-14.0866 -7.1158,49.491 47.9747,14.0867 -32.7431,37.7874 -42.0626,-27.032 -47.9747,-14.0866 -50,0 -47.9747,14.0866"
       id="path5139-3-7-6"
       inkscape:connector-curvature="0" />
    <path
       style="display:block;fill:none;fill-rule:evenodd;stroke:#000000;stroke-width:1px;stroke-linecap:butt;stroke-linejoin:miter;stroke-opacity:1"
       d="m 319.48534,525.52095 -32.7431,37.7874 -42.0627,-27.032 -47.9746,14.0866 -20.7708,-45.4816"
       id="path5160-7-2"
       inkscape:connector-curvature="0" />
    <path
       style="display:block;fill:none;fill-rule:evenodd;stroke:#000000;stroke-width:1px;stroke-linecap:butt;stroke-linejoin:miter;stroke-opacity:1"
       d="m 244.67954,536.27635 -7.1157,49.4911"
       id="path5162-5-17"
       inkscape:connector-curvature="0" />
    <path
       style="display:block;fill:#ffff00;fill-opacity:0.43529412;fill-rule:evenodd;stroke:#000000;stroke-width:1px;stroke-linecap:butt;stroke-linejoin:miter;stroke-opacity:1"
       d="m 175.93424,504.88145 -7.1158,49.491 -50,0 20.7708,45.4816 47.9746,-14.0866 50.0001,0 7.1157,-49.4911 -47.9747,14.0867 z"
       id="path5609-8-5-8"
       inkscape:connector-curvature="0" />
    <path
       style="display:block;fill:#ffff00;fill-opacity:0.43529412;fill-rule:evenodd;stroke:#000000;stroke-width:1px;stroke-linecap:butt;stroke-linejoin:miter;stroke-opacity:1"
       d="m 244.67964,536.27635 -7.1157,49.4911 47.9746,14.0866 42.0626,27.032 32.7431,-37.7874 -47.9747,-14.0867 7.1158,-49.491 -32.7431,37.7874 c 0,0 -42.0626,-27.032 -42.0626,-27.032 l -1e-4,0 z"
       id="path5762-5"
       inkscape:connector-curvature="0" />
    <path
       style="display:block;fill:#ffff00;fill-opacity:0.43529412;fill-rule:evenodd;stroke:#000000;stroke-width:1px;stroke-linecap:butt;stroke-linejoin:miter;stroke-opacity:1"
       d="m 175.93424,504.88145 20.7707,45.4816 47.9746,-14.0867 42.0627,27.032 32.7431,-37.7874 -47.9747,14.0866 -20.7707,-45.4816 -32.7431,37.7875 -42.0626,-27.032"
       id="path5766-7"
       inkscape:connector-curvature="0" />
    <path
       style="display:block;fill:none;fill-rule:evenodd;stroke:#000000;stroke-width:1px;stroke-linecap:butt;stroke-linejoin:miter;stroke-opacity:1"
       d="m 357.63344,837.74995 20.7707,-45.4816 -42.0626,-27.032 -7.1157,-49.4911 -50.0001,0 -32.743,-37.7874 -42.0627,27.032 -47.9747,-14.0866 -20.7708,45.4816 -47.9746,14.0866 7.1157,49.4911"
       id="path5821-0-9-7"
       inkscape:connector-curvature="0"
       sodipodi:nodetypes="ccccccccccc" />
    <path
       style="display:block;fill:#ffff00;fill-opacity:0.43529412;fill-rule:evenodd;stroke:#000000;stroke-width:1px;stroke-linecap:butt;stroke-linejoin:miter;stroke-opacity:1"
       d="m 282.82774,772.93045 20.7707,-45.4816 -49.9999,0 -7.1158,-49.491 -20.7707,45.4815 -47.9747,-14.0866 7.1157,49.4911 50,0 47.9747,14.0866"
       id="path5900-8-5"
       inkscape:connector-curvature="0" />
    <path
       style="display:block;fill:#ffff00;fill-opacity:0.43529412;fill-rule:evenodd;stroke:#000000;stroke-width:1px;stroke-linecap:butt;stroke-linejoin:miter;stroke-opacity:1"
       d="m 336.34154,765.23635 -7.1157,-49.4911 -50.0001,0 -32.743,-37.7874 7.1157,49.491 50,0 32.7431,37.7875"
       id="path5902-0-3"
       inkscape:connector-curvature="0" />
    <path
       style="display:block;fill:#ffff00;fill-opacity:0.43529412;fill-rule:evenodd;stroke:#000000;stroke-width:1px;stroke-linecap:butt;stroke-linejoin:miter;stroke-opacity:1"
       d="m 225.71194,723.43935 20.7708,-45.4815 -42.0627,27.032 -47.9747,-14.0866 -20.7708,45.4815 42.0628,-27.032 z"
       id="path5912-5-8"
       inkscape:connector-curvature="0" />
    <path
       style="display:block;fill:none;fill-rule:evenodd;stroke:#000000;stroke-width:1px;stroke-linecap:butt;stroke-linejoin:miter;stroke-opacity:1"
       d="m 357.63344,837.75015 -32.743,-37.7877 -42.0627,-27.032 -47.9747,-14.0866 -50,0 -47.9747,14.0866 -42.0626,27.0321"
       id="path5838-1-6-8"
       inkscape:connector-curvature="0" />
    <path
       style="display:block;fill:none;fill-rule:evenodd;stroke:#000000;stroke-width:1px;stroke-linecap:butt;stroke-linejoin:miter;stroke-opacity:1"
       d="m 130.72284,868.77005 -7.1157,49.491"
       id="path5500-8"
       inkscape:connector-curvature="0" />
    <path
       style="display:block;fill:none;fill-rule:evenodd;stroke:#000000;stroke-width:1px;stroke-linecap:butt;stroke-linejoin:miter;stroke-opacity:1"
       d="m 228.69744,854.68345 -7.1156,49.4909"
       id="path5502-9"
       inkscape:connector-curvature="0" />
    <path
       style="display:block;fill:none;fill-rule:evenodd;stroke:#000000;stroke-width:1px;stroke-linecap:butt;stroke-linejoin:miter;stroke-opacity:1"
       d="m 318.73484,895.80205 -7.1157,49.4909"
       id="path5504-6"
       inkscape:connector-curvature="0" />
    <path
       style="display:block;fill:none;fill-rule:evenodd;stroke:#000000;stroke-width:1px;stroke-linecap:butt;stroke-linejoin:miter;stroke-opacity:1"
       d="m 365.13294,1028.5623 7.1157,-49.49115 -32.743,-37.7875 -20.7708,-45.4816 -47.9747,-14.0866 -42.0627,-27.032 -47.9746,14.0866 -50,0 -32.743,37.7875 -42.062701,27.0319 -7.1157,49.4911"
       id="path7206"
       inkscape:connector-curvature="0" />
    <path
       style="display:block;fill:none;fill-rule:evenodd;stroke:#000000;stroke-width:1px;stroke-linecap:butt;stroke-linejoin:miter;stroke-opacity:1"
       d="m 365.13294,1028.5623 -20.7708,-45.48185 -32.743,-37.7875 -42.0627,-27.032 -47.9746,-14.0866 -50,0 -47.9747,14.0867 -42.0627,27.032 -32.743001,37.7875"
       id="path7208"
       inkscape:connector-curvature="0" />
    <path
       style="display:block;fill:#e7b513;fill-opacity:0.51764709;fill-rule:evenodd;stroke:#000000;stroke-width:1px;stroke-linecap:butt;stroke-linejoin:miter;stroke-opacity:1"
       d="m 205.56844,410.35975 -47.9746,-14.0866 32.743,37.7875 50,0 47.9746,14.0866 -32.743,-37.7875 z"
       id="path7210"
       inkscape:connector-curvature="0" />
    <path
       style="display:block;fill:#e7b513;fill-opacity:0.51764709;fill-rule:evenodd;stroke:#000000;stroke-width:1px;stroke-linecap:butt;stroke-linejoin:miter;stroke-opacity:1"
       d="m 130.72284,868.77005 -32.743,37.7875 -42.062701,27.0319 -7.1157,49.4911 32.743001,-37.7875 42.0627,-27.032 z"
       id="path7212"
       inkscape:connector-curvature="0" />
    <path
       style="display:block;fill:#e7b513;fill-opacity:0.51764709;fill-rule:evenodd;stroke:#000000;stroke-width:1px;stroke-linecap:butt;stroke-linejoin:miter;stroke-opacity:1"
       d="m 318.73484,895.80205 -7.1157,49.4909 32.743,37.7875 20.7708,45.48185 7.1157,-49.49115 -32.743,-37.7875 z"
       id="path7214"
       inkscape:connector-curvature="0" />
    <path
       style="display:block;fill:#e7b513;fill-opacity:0.51764709;fill-rule:evenodd;stroke:#000000;stroke-width:1px;stroke-linecap:butt;stroke-linejoin:miter;stroke-opacity:1"
       d="m 87.69994,750.47145 7.1157,49.4911 42.0627,-27.0321 47.9747,-14.0866 -7.1157,-49.4911 -42.0628,27.0321 -47.9746,14.0866"
       id="path7216"
       inkscape:connector-curvature="0" />
    <path
       style="display:block;fill:#e7b513;fill-opacity:0.51764709;fill-rule:evenodd;stroke:#000000;stroke-width:1px;stroke-linecap:butt;stroke-linejoin:miter;stroke-opacity:1"
       d="m 303.59844,727.44885 -20.7707,45.4816 42.0627,27.032 32.743,37.7875 20.7707,-45.4816 -42.0626,-27.032 z"
       id="path7218"
       inkscape:connector-curvature="0" />
    <path
       style="display:block;fill:#e7b513;fill-opacity:0.51764709;fill-rule:evenodd;stroke:#000000;stroke-width:1px;stroke-linecap:butt;stroke-linejoin:miter;stroke-opacity:1"
       d="m 130.72284,868.77005 -7.1157,49.491 47.9747,-14.0867 50,0 47.9746,14.0866 42.0627,27.032 7.1157,-49.4909 -47.9747,-14.0866 -42.0627,-27.032 -47.9746,14.0866 z"
       id="path7220"
       inkscape:connector-curvature="0" />
    <text
       xml:space="preserve"
       style="font-style:normal;font-weight:normal;font-size:30px;line-height:125%;font-family:Sans;text-align:start;letter-spacing:0px;word-spacing:0px;text-anchor:start;display:block;fill:#000000;fill-opacity:1;stroke:none;stroke-width:1px;stroke-linecap:butt;stroke-linejoin:miter;stroke-opacity:1"
       x="93.257668"
       y="420.22797"
       id="text7222"
       sodipodi:linespacing="125%"><tspan
         sodipodi:role="line"
         id="tspan7224"
         x="93.257668"
         y="420.22797">C<tspan
   style="font-size:64.99999762%;baseline-shift:sub"
   id="tspan7365">0</tspan></tspan></text>
    <path
       style="display:block;fill:#e7b513;fill-opacity:0.51764709;fill-rule:evenodd;stroke:#000000;stroke-width:1px;stroke-linecap:butt;stroke-linejoin:miter;stroke-opacity:1"
       d="m 442.18006,530.75315 -17.3435,-46.8957 49.86257,3.7051 48.88661,-10.493 17.34351,46.8957 -49.86268,-3.705 -48.88651,10.4929"
       id="path7216-0"
       inkscape:connector-curvature="0"
       inkscape:transform-center-x="-30.171652"
       inkscape:transform-center-y="43.626736" />
    <path
       style="display:block;fill:#e7b513;fill-opacity:0.51764709;fill-rule:evenodd;stroke:#000000;stroke-width:1px;stroke-linecap:butt;stroke-linejoin:miter;stroke-opacity:1"
       d="m 535.42428,430.52025 -49.75105,-4.9832 -49.13963,9.2353 -39.15909,-31.0895 49.75098,4.9831 49.1397,-9.2352 z"
       id="path7212-4"
       inkscape:connector-curvature="0"
       inkscape:transform-center-x="3.3524081"
       inkscape:transform-center-y="-1.1174688" />
    <path
       style="display:block;fill:#ffff00;fill-opacity:0.43529412;fill-rule:evenodd;stroke:#000000;stroke-width:1px;stroke-linecap:butt;stroke-linejoin:miter;stroke-opacity:1"
       d="m 458.23987,767.63898 -20.7707,-45.4816 49.9999,0 7.1158,-49.491 20.7707,45.4815 47.9747,-14.0866 -7.1157,49.4911 -50,0 -47.9747,14.0866"
       id="path5900-8-5-8"
       inkscape:connector-curvature="0" />
    <path
       style="display:block;fill:#ffff00;fill-opacity:0.43529412;fill-rule:evenodd;stroke:#000000;stroke-width:1px;stroke-linecap:butt;stroke-linejoin:miter;stroke-opacity:1"
       d="m 537.16354,937.9471 20.7708,45.4815 -42.0627,-27.032 -47.9747,14.0866 -20.77079,-45.4815 42.06279,27.032 z"
       id="path5912-5-8-8"
       inkscape:connector-curvature="0" />
    <path
       style="display:block;fill:#ffff00;fill-opacity:0.43529412;fill-rule:evenodd;stroke:#000000;stroke-width:1px;stroke-linecap:butt;stroke-linejoin:miter;stroke-opacity:1"
       d="m 578.02419,815.3824 -20.77071,45.4816 -47.9746,-14.0867 -42.0627,27.032 -32.7431,-37.7874 47.9747,14.0866 20.7707,-45.4816 32.7431,37.7875 42.06261,-27.032"
       id="path5766-7-9"
       inkscape:connector-curvature="0" />
    <path
       style="display:block;fill:#ffff00;fill-opacity:0.43529412;fill-rule:evenodd;stroke:#000000;stroke-width:1px;stroke-linecap:butt;stroke-linejoin:miter;stroke-opacity:1"
       d="m 476.60937,658.61895 32.743,-37.7875 50,0 7.1157,-49.491 -32.743,37.7874 -20.7708,-45.4816 -7.1157,49.4911 -42.0627,-27.032 20.7708,45.4816 -50,0 42.0627,27.032"
       id="path3643-8-4-6-7"
       inkscape:connector-curvature="0" />
    <text
       xml:space="preserve"
       style="font-style:normal;font-weight:normal;font-size:30px;line-height:125%;font-family:Sans;text-align:start;letter-spacing:0px;word-spacing:0px;text-anchor:start;display:block;fill:#000000;fill-opacity:1;stroke:none;stroke-width:1px;stroke-linecap:butt;stroke-linejoin:miter;stroke-opacity:1"
       x="60.89674"
       y="533.95105"
       id="text7222-7"
       sodipodi:linespacing="125%"><tspan
         sodipodi:role="line"
         id="tspan7224-6"
         x="60.89674"
         y="533.95105">C<tspan
   style="font-size:64.99999762%;baseline-shift:sub"
   id="tspan7367">1</tspan></tspan></text>
    <text
       xml:space="preserve"
       style="font-style:normal;font-weight:normal;font-size:30px;line-height:125%;font-family:Sans;text-align:start;letter-spacing:0px;word-spacing:0px;text-anchor:start;display:block;fill:#000000;fill-opacity:1;stroke:none;stroke-width:1px;stroke-linecap:butt;stroke-linejoin:miter;stroke-opacity:1"
       x="52.31665"
       y="725.1933"
       id="text7222-4"
       sodipodi:linespacing="125%"><tspan
         sodipodi:role="line"
         id="tspan7224-3"
         x="52.31665"
         y="725.1933">C<tspan
   style="font-size:64.99999762%;baseline-shift:sub"
   id="tspan7369">2</tspan></tspan></text>
    <text
       xml:space="preserve"
       style="font-style:normal;font-weight:normal;font-size:30px;line-height:125%;font-family:Sans;text-align:start;letter-spacing:0px;word-spacing:0px;text-anchor:start;display:block;fill:#000000;fill-opacity:1;stroke:none;stroke-width:1px;stroke-linecap:butt;stroke-linejoin:miter;stroke-opacity:1"
       x="48.574249"
       y="895.95825"
       id="text7222-0"
       sodipodi:linespacing="125%"><tspan
         sodipodi:role="line"
         id="tspan7224-30"
         x="48.574249"
         y="895.95825">C<tspan
   style="font-size:64.99999762%;baseline-shift:sub"
   id="tspan7371">3</tspan></tspan></text>
    <text
       xml:space="preserve"
       style="font-style:normal;font-weight:normal;font-size:30px;line-height:125%;font-family:Sans;text-align:start;letter-spacing:0px;word-spacing:0px;text-anchor:start;display:block;fill:#000000;fill-opacity:1;stroke:none;stroke-width:1px;stroke-linecap:butt;stroke-linejoin:miter;stroke-opacity:1"
       x="589.65466"
       y="620.70282"
       id="text7222-9"
       sodipodi:linespacing="125%"><tspan
         sodipodi:role="line"
         id="tspan7224-2"
         x="589.65466"
         y="620.70282">P<tspan
   style="font-size:64.99999762%;baseline-shift:sub"
   id="tspan7365-5">0</tspan></tspan></text>
    <text
       xml:space="preserve"
       style="font-style:normal;font-weight:normal;font-size:30px;line-height:125%;font-family:Sans;text-align:start;letter-spacing:0px;word-spacing:0px;text-anchor:start;display:block;fill:#000000;fill-opacity:1;stroke:none;stroke-width:1px;stroke-linecap:butt;stroke-linejoin:miter;stroke-opacity:1"
       x="551.76544"
       y="424.64001"
       id="text7222-40"
       sodipodi:linespacing="125%"><tspan
         sodipodi:role="line"
         id="tspan7224-5"
         x="551.76544"
         y="424.64001">X<tspan
   style="font-size:64.99999762%;baseline-shift:sub"
   id="tspan7365-9">1</tspan></tspan></text>
    <text
       xml:space="preserve"
       style="font-style:normal;font-weight:normal;font-size:30px;line-height:125%;font-family:Sans;text-align:start;letter-spacing:0px;word-spacing:0px;text-anchor:start;display:block;fill:#000000;fill-opacity:1;stroke:none;stroke-width:1px;stroke-linecap:butt;stroke-linejoin:miter;stroke-opacity:1"
       x="592.28961"
       y="728.39966"
       id="text7222-46"
       sodipodi:linespacing="125%"><tspan
         sodipodi:role="line"
         id="tspan7224-9"
         x="592.28961"
         y="728.39966">P<tspan
   style="font-size:64.99999762%;baseline-shift:sub"
   id="tspan7365-2">1</tspan></tspan></text>
    <text
       xml:space="preserve"
       style="font-style:normal;font-weight:normal;font-size:30px;line-height:125%;font-family:Sans;text-align:start;letter-spacing:0px;word-spacing:0px;text-anchor:start;display:block;fill:#000000;fill-opacity:1;stroke:none;stroke-width:1px;stroke-linecap:butt;stroke-linejoin:miter;stroke-opacity:1"
       x="592.71631"
       y="879.60126"
       id="text7222-2"
       sodipodi:linespacing="125%"><tspan
         sodipodi:role="line"
         id="tspan7224-4"
         x="592.71631"
         y="879.60126">P<tspan
   style="font-size:64.99999762%;baseline-shift:sub"
   id="tspan7365-7">2</tspan></tspan></text>
    <text
       xml:space="preserve"
       style="font-style:normal;font-weight:normal;font-size:30px;line-height:125%;font-family:Sans;text-align:start;letter-spacing:0px;word-spacing:0px;text-anchor:start;display:block;fill:#000000;fill-opacity:1;stroke:none;stroke-width:1px;stroke-linecap:butt;stroke-linejoin:miter;stroke-opacity:1"
       x="594.81628"
       y="991.65887"
       id="text7222-75"
       sodipodi:linespacing="125%"><tspan
         sodipodi:role="line"
         id="tspan7224-48"
         x="594.81628"
         y="991.65887">P<tspan
   style="font-size:64.99999762%;baseline-shift:sub"
   id="tspan7365-1">3</tspan></tspan></text>
    <text
       xml:space="preserve"
       style="font-style:normal;font-weight:normal;font-size:30px;line-height:125%;font-family:Sans;text-align:start;letter-spacing:0px;word-spacing:0px;text-anchor:start;display:block;fill:#000000;fill-opacity:1;stroke:none;stroke-width:1px;stroke-linecap:butt;stroke-linejoin:miter;stroke-opacity:1"
       x="558.56866"
       y="509.71106"
       id="text7222-28"
       sodipodi:linespacing="125%"><tspan
         sodipodi:role="line"
         id="tspan7224-93"
         x="558.56866"
         y="509.71106">X<tspan
   style="font-size:64.99999762%;baseline-shift:sub"
   id="tspan7365-6">3</tspan></tspan></text>
  </g>
</svg>
