<svg viewBox="0 0 150 300" width="150" height="300" style="display: block;">
<g transform="translate(75,75)">
<line x1="0" y1="0" x2="0" y2="-50" stroke="#f00"></line>
<line x1="0" y1="0" x2="15.450849718747369" y2="-47.552825814757675" stroke="#f00"></line>
<line x1="0" y1="0" x2="29.389262614623657" y2="-40.45084971874737" stroke="#f00"></line>
<line x1="0" y1="0" x2="40.45084971874737" y2="-29.389262614623657" stroke="#f00"></line>
<line x1="0" y1="0" x2="47.552825814757675" y2="-15.450849718747373" stroke="#f00"></line>
<line x1="0" y1="0" x2="50" y2="-3.061616997868383e-15" stroke="#f00">
</line><line x1="0" y1="0" x2="47.55282581475768" y2="15.450849718747367" stroke="#f00"></line>
<line x1="0" y1="0" x2="40.45084971874737" y2="29.38926261462365" stroke="#f00"></line>
<line x1="0" y1="0" x2="29.38926261462366" y2="40.450849718747364" stroke="#f00"></line>
<line x1="0" y1="0" x2="15.450849718747376" y2="47.552825814757675" stroke="#f00"></line>
<line x1="0" y1="0" x2="6.123233995736766e-15" y2="50" stroke="#f00"></line>
<line x1="0" y1="0" x2="-15.450849718747364" y2="47.55282581475768" stroke="#f00"></line>
<line x1="0" y1="0" x2="-29.38926261462365" y2="40.45084971874737" stroke="#f00"></line>
<line x1="0" y1="0" x2="-40.450849718747364" y2="29.38926261462366" stroke="#f00"></line>
<line x1="0" y1="0" x2="-47.552825814757675" y2="15.450849718747378" stroke="#f00"></line>
<line x1="0" y1="0" x2="-50" y2="9.184850993605149e-15" stroke="#f00"></line>
<line x1="0" y1="0" x2="-47.55282581475768" y2="-15.450849718747362" stroke="#f00"></line>
<line x1="0" y1="0" x2="-40.45084971874738" y2="-29.389262614623647" stroke="#f00"></line>
<line x1="0" y1="0" x2="-29.389262614623668" y2="-40.450849718747364" stroke="#f00"></line>
<line x1="0" y1="0" x2="-15.450849718747381" y2="-47.552825814757675" stroke="#f00"></line>
<circle cx="0" cy="0" r="3" fill="#f00"></circle></g><g transform="translate(75,225)">
<line x1="0" y1="0" x2="7.821723252011544" y2="-49.38441702975689" stroke="#00f"></line>
<line x1="0" y1="0" x2="22.699524986977337" y2="-44.550326209418394" stroke="#00f"></line>
<line x1="0" y1="0" x2="35.35533905932737" y2="-35.35533905932738" stroke="#00f"></line>
<line x1="0" y1="0" x2="44.55032620941839" y2="-22.699524986977345" stroke="#00f"></line>
<line x1="0" y1="0" x2="49.38441702975689" y2="-7.821723252011546" stroke="#00f"></line>
<line x1="0" y1="0" x2="49.38441702975689" y2="7.821723252011541" stroke="#00f"></line>
<line x1="0" y1="0" x2="44.550326209418394" y2="22.699524986977337" stroke="#00f"></line>
<line x1="0" y1="0" x2="35.35533905932738" y2="35.35533905932737" stroke="#00f"></line>
<line x1="0" y1="0" x2="22.699524986977345" y2="44.55032620941839" stroke="#00f"></line>
<line x1="0" y1="0" x2="7.821723252011549" y2="49.38441702975688" stroke="#00f"></line>
<line x1="0" y1="0" x2="-7.8217232520115365" y2="49.38441702975689" stroke="#00f"></line>
<line x1="0" y1="0" x2="-22.699524986977334" y2="44.550326209418394" stroke="#00f"></line>
<line x1="0" y1="0" x2="-35.35533905932737" y2="35.355339059327385" stroke="#00f"></line>
<line x1="0" y1="0" x2="-44.55032620941839" y2="22.699524986977345" stroke="#00f"></line>
<line x1="0" y1="0" x2="-49.38441702975688" y2="7.821723252011552" stroke="#00f"></line>
<line x1="0" y1="0" x2="-49.38441702975689" y2="-7.821723252011534" stroke="#00f"></line>
<line x1="0" y1="0" x2="-44.5503262094184" y2="-22.69952498697733" stroke="#00f"></line>
<line x1="0" y1="0" x2="-35.355339059327385" y2="-35.35533905932737" stroke="#00f"></line>
<line x1="0" y1="0" x2="-22.699524986977348" y2="-44.55032620941839" stroke="#00f"></line>
<line x1="0" y1="0" x2="-7.821723252011556" y2="-49.38441702975688" stroke="#00f"></line>
<circle cx="0" cy="0" r="3" fill="#00f"></circle>
</g>
</svg>
