<svg viewBox="0 0 150 300" width="150" height="300" style="display: block;"><g transform="translate(75,75)"><line x1="0" y1="0" x2="0" y2="-50" stroke="#f00"></line><line x1="0" y1="0" x2="17.101007166283434" y2="-46.98463103929542" stroke="#f00"></line><line x1="0" y1="0" x2="32.13938048432696" y2="-38.302222155948904" stroke="#f00"></line><line x1="0" y1="0" x2="43.30127018922193" y2="-25.000000000000007" stroke="#f00"></line><line x1="0" y1="0" x2="49.2403876506104" y2="-8.68240888334652" stroke="#f00"></line><line x1="0" y1="0" x2="49.2403876506104" y2="8.682408883346515" stroke="#f00"></line><line x1="0" y1="0" x2="43.30127018922194" y2="24.99999999999999" stroke="#f00"></line><line x1="0" y1="0" x2="32.13938048432697" y2="38.3022221559489" stroke="#f00"></line><line x1="0" y1="0" x2="17.101007166283445" y2="46.984631039295415" stroke="#f00"></line><line x1="0" y1="0" x2="6.123233995736766e-15" y2="50" stroke="#f00"></line><line x1="0" y1="0" x2="-17.101007166283434" y2="46.98463...0" x2="24.999999999999996" y2="43.30127018922194" stroke="#00f"></line><line x1="0" y1="0" x2="8.682408883346536" y2="49.2403876506104" stroke="#00f"></line><line x1="0" y1="0" x2="-8.6824088833465" y2="49.24038765061041" stroke="#00f"></line><line x1="0" y1="0" x2="-24.999999999999986" y2="43.30127018922194" stroke="#00f"></line><line x1="0" y1="0" x2="-38.3022221559489" y2="32.13938048432697" stroke="#00f"></line><line x1="0" y1="0" x2="-46.98463103929541" y2="17.10100716628347" stroke="#00f"></line><line x1="0" y1="0" x2="-50" y2="9.184850993605149e-15" stroke="#00f"></line><line x1="0" y1="0" x2="-46.98463103929543" y2="-17.10100716628341" stroke="#00f"></line><line x1="0" y1="0" x2="-38.302222155948904" y2="-32.13938048432696" stroke="#00f"></line><line x1="0" y1="0" x2="-25.00000000000002" y2="-43.30127018922192" stroke="#00f"></line><line x1="0" y1="0" x2="-8.68240888334652" y2="-49.2403876506104" stroke="#00f"></line><circle cx="0" cy="0" r="3" fill="#00f"></circle></g></svg>
