<?xml version="1.0" encoding="UTF-8" standalone="no"?>
<!-- Created with Inkscape (http://www.inkscape.org/) -->

<svg
   xmlns:dc="http://purl.org/dc/elements/1.1/"
   xmlns:cc="http://creativecommons.org/ns#"
   xmlns:rdf="http://www.w3.org/1999/02/22-rdf-syntax-ns#"
   xmlns:svg="http://www.w3.org/2000/svg"
   xmlns="http://www.w3.org/2000/svg"
   xmlns:sodipodi="http://sodipodi.sourceforge.net/DTD/sodipodi-0.dtd"
   xmlns:inkscape="http://www.inkscape.org/namespaces/inkscape"
   width="184mm"
   height="158mm"
   viewBox="0 0 651.96843 559.8423"
   id="svg2"
   version="1.1"
   inkscape:version="0.91 r13725"
   sodipodi:docname="stars9.svg">
  <defs
     id="defs4" />
  <sodipodi:namedview
     id="base"
     pagecolor="#ffffff"
     bordercolor="#666666"
     borderopacity="1.0"
     inkscape:pageopacity="0.0"
     inkscape:pageshadow="2"
     inkscape:zoom="1.8285299"
     inkscape:cx="323.38554"
     inkscape:cy="282.7935"
     inkscape:document-units="px"
     inkscape:current-layer="layer1"
     showgrid="false"
     inkscape:window-width="1863"
     inkscape:window-height="1056"
     inkscape:window-x="57"
     inkscape:window-y="24"
     inkscape:window-maximized="1"
     inkscape:object-nodes="true" />
  <metadata
     id="metadata7">
    <rdf:RDF>
      <cc:Work
         rdf:about="">
        <dc:format>image/svg+xml</dc:format>
        <dc:type
           rdf:resource="http://purl.org/dc/dcmitype/StillImage" />
        <dc:title></dc:title>
      </cc:Work>
    </rdf:RDF>
  </metadata>
  <g
     inkscape:label="Layer 1"
     inkscape:groupmode="layer"
     id="layer1"
     transform="translate(0,-492.52001)">
    <path
       style="display:block;fill:#ff8000;fill-opacity:0.44654086;fill-rule:evenodd;stroke:#000000;stroke-width:2;stroke-linecap:butt;stroke-linejoin:miter;stroke-miterlimit:4;stroke-dasharray:none;stroke-opacity:1"
       d="m 472.68673,690.4096 43.3013,25 49.2403,8.6824 17.101,46.9846 32.1394,38.3023 -17.101,46.9846 0,50 -43.3013,25 -32.1394,38.30219 -49.2404,-8.6824 -49.2404,8.6824 -32.1393,-38.30219 -43.3013,-25 0,-50 -17.101,-46.9846 32.1394,-38.3023 17.101,-46.9846 49.2404,-8.6824 43.3013,-25"
       id="path4566-1-5-1"
       inkscape:connector-curvature="0" />
    <path
       style="display:block;fill:#ffff00;fill-opacity:0.44654086;fill-rule:evenodd;stroke:#000000;stroke-width:2;stroke-linecap:butt;stroke-linejoin:miter;stroke-miterlimit:4;stroke-dasharray:none;stroke-opacity:1"
       d="m 238.36303,666.4567 32.1393,38.3022 49.2404,-8.6824 0,50.0001 43.3013,25 -32.1394,38.3022 17.101,46.9846 -49.2403,8.6824 -17.1011,46.9847 c 0,0 -43.3012,-25 -43.3012,-25 0,0 -43.3013,25 -43.3013,25 l -17.101,-46.9847 -49.2404,-8.6824 17.101,-46.9846 -32.1394,-38.3022 43.3013,-25 0,-50.0001 49.2404,8.6824 32.1394,-38.3022"
       id="path5914-6-8-8-0-3-7"
       inkscape:connector-curvature="0" />
    <path
       style="display:block;fill:#ff0000;fill-opacity:0.44654086;fill-rule:evenodd;stroke:#000000;stroke-width:2;stroke-linecap:butt;stroke-linejoin:miter;stroke-miterlimit:4;stroke-dasharray:none;stroke-opacity:1"
       d="m 96.580935,674.092 17.100995,-46.98471 32.1394,-38.3022 43.3013,-25 49.2404,-8.6824 49.2403,8.6824 43.3013,25 32.1394,38.3022 17.101,46.98471 0,50 -17.101,46.9846 -32.1394,38.3022 -43.3013,25 -49.2403,8.6824 -49.2404,-8.6824 -43.3013,-25 -32.1394,-38.3022 -17.100995,-46.9846 0,-50"
       id="path3652-36"
       inkscape:connector-curvature="0" />
    <path
       style="display:block;fill:#00ff00;fill-opacity:0.44654086;fill-rule:evenodd;stroke:#000000;stroke-width:2;stroke-linecap:round;stroke-linejoin:round;stroke-miterlimit:4;stroke-dasharray:none;stroke-opacity:1"
       d="m 330.90463,809.3789 43.3013,25 17.101,-46.9847 17.101,46.9847 43.3013,-25 -17.101,46.9846 49.2404,8.6824 -43.3013,25 32.1394,38.3022 -49.2404,-8.6824 0,49.99999 -32.1394,-38.30219 -32.1394,38.30219 0,-49.99999 -49.2404,8.6824 32.1394,-38.3022 -43.3012,-25 49.2403,-8.6824 -17.101,-46.9846"
       id="path4797-8-7"
       inkscape:connector-curvature="0" />
    <path
       style="display:block;fill:none;fill-opacity:0.44654086;fill-rule:evenodd;stroke:#000000;stroke-width:2;stroke-linecap:round;stroke-linejoin:round;stroke-miterlimit:4;stroke-dasharray:none;stroke-opacity:0.49056606"
       d="m 472.68665,690.40961 43.30129,25 17.101,-46.98469 17.101,46.98469 43.30129,-25 -17.101,46.98459 49.24039,8.6824 -43.30129,25 32.13939,38.30219 -49.24039,-8.6824 0,49.99998 -32.13939,-38.30218 -32.13939,38.30218 0,-49.99998 -49.24039,8.6824 32.13939,-38.30219 -43.30119,-25 49.24029,-8.6824 -17.101,-46.98459"
       id="path4797-8-7-3"
       inkscape:connector-curvature="0" />
    <path
       style="display:block;fill:none;fill-opacity:0.44654086;fill-rule:evenodd;stroke:#000000;stroke-width:2;stroke-linecap:round;stroke-linejoin:round;stroke-miterlimit:4;stroke-dasharray:none;stroke-opacity:0.54716982"
       d="m 259.34044,674.09185 43.30128,-25 17.10099,46.98468 17.101,-46.98468 43.30128,25 -17.101,-46.98458 49.24038,-8.6824 -43.30128,-25 32.13938,-38.30218 -49.24038,8.6824 0,-49.99997 -32.13938,38.30217 -32.13938,-38.30217 0,49.99997 -49.24038,-8.6824 32.13938,38.30218 -43.30118,25 49.24028,8.6824 -17.10099,46.98458"
       id="path4797-8-7-3-7"
       inkscape:connector-curvature="0" />
    <path
       style="display:block;fill:none;fill-opacity:0.44654086;fill-rule:evenodd;stroke:#000000;stroke-width:2;stroke-linecap:round;stroke-linejoin:round;stroke-miterlimit:4;stroke-dasharray:none;stroke-opacity:0.54716982"
       d="m 53.279685,649.09207 43.30127,24.99999 17.100975,-46.98467 17.101,46.98467 43.30127,-24.99999 -17.101,46.98457 49.24037,8.68239 -43.30127,25 32.13937,38.30218 -49.24037,-8.6824 0,49.99996 -32.13937,-38.30217 -32.139365,38.30217 0,-49.99996 -49.24037,8.6824 32.13937,-38.30218 -43.30117,-25 49.24027,-8.68239 -17.10098,-46.98457"
       id="path4797-8-7-3-7-8"
       inkscape:connector-curvature="0" />
    <path
       style="display:block;fill:none;fill-opacity:0.44654086;fill-rule:evenodd;stroke:#000000;stroke-width:2;stroke-linecap:round;stroke-linejoin:round;stroke-miterlimit:4;stroke-dasharray:none;stroke-opacity:0.54716982"
       d="m 177.96075,865.04597 43.30127,24.99995 17.10098,-46.98465 17.101,46.98465 43.30127,-24.99995 -17.101,46.98453 49.24037,8.68239 -43.30127,25 32.13937,38.3022 -49.24037,-8.6824 0,50.00001 -32.13937,-38.30221 -32.13937,38.30221 0,-50.00001 -49.24037,8.6824 32.13937,-38.3022 -43.30117,-25 49.24027,-8.68239 -17.10098,-46.98453"
       id="path4797-8-7-3-7-2"
       inkscape:connector-curvature="0" />
    <text
       xml:space="preserve"
       style="font-style:normal;font-weight:normal;font-size:22.49999772px;line-height:125%;font-family:Sans;text-align:start;letter-spacing:0px;word-spacing:0px;text-anchor:start;fill:#000000;fill-opacity:1;stroke:none;stroke-width:1px;stroke-linecap:butt;stroke-linejoin:miter;stroke-opacity:1;"
       x="144.34846"
       y="565.31635"
       id="text13592"
       sodipodi:linespacing="125%"><tspan
         sodipodi:role="line"
         id="tspan13594"
         x="144.34846"
         y="565.31635">1</tspan></text>
    <text
       xml:space="preserve"
       style="font-style:normal;font-weight:normal;font-size:22.49999772px;line-height:125%;font-family:Sans;text-align:start;letter-spacing:0px;word-spacing:0px;text-anchor:start;fill:#000000;fill-opacity:1;stroke:none;stroke-width:1px;stroke-linecap:butt;stroke-linejoin:miter;stroke-opacity:1;"
       x="418"
       y="700.36243"
       id="text13596"
       sodipodi:linespacing="125%"><tspan
         sodipodi:role="line"
         id="tspan13598"
         x="418"
         y="700.36243">2</tspan></text>
    <text
       xml:space="preserve"
       style="font-style:normal;font-weight:normal;font-size:22.49999772px;line-height:125%;font-family:Sans;text-align:start;letter-spacing:0px;word-spacing:0px;text-anchor:start;fill:#000000;fill-opacity:1;stroke:none;stroke-width:1px;stroke-linecap:butt;stroke-linejoin:miter;stroke-opacity:1;"
       x="92.000038"
       y="866.36237"
       id="text13600"
       sodipodi:linespacing="125%"><tspan
         sodipodi:role="line"
         id="tspan13602"
         x="92.000038"
         y="866.36237">3</tspan></text>
    <text
       xml:space="preserve"
       style="font-style:normal;font-weight:normal;font-size:22.49999772px;line-height:125%;font-family:Sans;text-align:start;letter-spacing:0px;word-spacing:0px;text-anchor:start;fill:#000000;fill-opacity:1;stroke:none;stroke-width:1px;stroke-linecap:butt;stroke-linejoin:miter;stroke-opacity:1;"
       x="382.00003"
       y="990.36237"
       id="text13604"
       sodipodi:linespacing="125%"><tspan
         sodipodi:role="line"
         id="tspan13606"
         x="382.00003"
         y="990.36237">4</tspan></text>
  </g>
</svg>
